{
.appVersion = "1192";
DisplayStrings = (
"0123456789",
"/vavvav-hb/vavyod-hb/yodyod-hb/alef-hb/alefpatah-hb/alefqamats-hb/alefdagesh-hb/bet-hb/betdagesh-hb/betrafe-hb/gimel-hb/gimeldagesh-hb/dalet-hb/daletdagesh-hb/he-hb/hedagesh-hb/vav-hb/vavdagesh-hb/vavholam-hb/zayin-hb/zayindagesh-hb/het-hb/tet-hb/tetdagesh-hb/yod-hb/yoddagesh-hb/finalkaf-hb/finalkafdagesh-hb/kaf-hb/kafdagesh-hb/kafrafe-hb/lamed-hb/lameddagesh-hb/finalmem-hb/mem-hb/memdagesh-hb/finalnun-hb/nun-hb/nundagesh-hb/samekh-hb/samekhdagesh-hb/ayin-hb/finalpe-hb/finalpedagesh-hb/pe-hb/pedagesh-hb/perafe-hb/finaltsadi-hb/tsadi-hb/tsadidagesh-hb/qof-hb/qofdagesh-hb/resh-hb/reshdagesh-hb/shin-hb/shinshindot-hb/shinsindot-hb/shindageshshindot-hb/shindageshsindot-hb/shindagesh-hb/tav-hb/tavdagesh-hb/yodhiriq-hb/yodyodpatah-hb 0123456789.,:;!?·/bullet *#///backslash (){}[]-/endash/emdash _/quotesinglbase/quotedblbase/quotedblleft/quotedblright/quoteleft/quoteright \"'/uni05F3/uni05F4/maquaf-hb  /Euro $/newsheqelsign/newsheqelsign.ss01/alephsymbol +/minus ×÷=><~^%@&©°|/shindot-hb/sheva-hb/hatafsegol-hb/hatafpatah-hb/hatafqamats-hb/hiriq-hb/tsere-hb/segol-hb/patah-hb/qamats-hb/holam-hb/holamhaser-hb/qubuts-hb/dagesh-hb/rafe-hb/sindot-hb/qamatsqatan-hb/spacer",
"/alef-hb/bet-hb/gimel-hb/dalet-hb/he-hb/vav-hb/zayin-hb/het-hb/tet-hb/yod-hb/finalkaf-hb/kaf-hb/lamed-hb/finalmem-hb/mem-hb/finalnun-hb/nun-hb/samekh-hb/ayin-hb/finalpe-hb/pe-hb/finaltsadi-hb/tsadi-hb/qof-hb/resh-hb/shin-hb/tav-hb",

glyphs = (
{
glyphname = "aleflamed-hb";
lastChange = "2019-01-31 16:53:04 +0000";
layers = (
{
components = (
{
name = "lamed-hb";
}
);
hints = (
{
horizontal = 1;
place = "{-74.16, 696.27}";
type = Stem;
},
{
place = "{445, 116}";
type = Stem;
}
);
layerId = "79248770-D821-459F-BACB-A514C4DCB9B2";
paths = (
{
closed = 1;
nodes = (
"454 -24 OFFCURVE",
"490 3 OFFCURVE",
"490 36 CURVE SMOOTH",
"490 81 OFFCURVE",
"363 65 OFFCURVE",
"363 160 CURVE SMOOTH",
"363 255 OFFCURVE",
"508 315 OFFCURVE",
"569 336 CURVE SMOOTH",
"623 355 OFFCURVE",
"638 398 OFFCURVE",
"617 428 CURVE SMOOTH",
"598 456 OFFCURVE",
"561 453 OFFCURVE",
"528 444 CURVE SMOOTH",
"495 435 OFFCURVE",
"260 339 OFFCURVE",
"247 164 CURVE SMOOTH",
"238 41 OFFCURVE",
"359 -14 OFFCURVE",
"406 -19 CURVE SMOOTH"
);
}
);
width = 604;
}
);
leftMetricsKey = "lamed-hb";
rightMetricsKey = "alef-hb";
unicode = FB4F;
},
{
color = 4;
glyphname = "alef-hb";
lastChange = "2019-01-28 13:32:22 +0000";
layers = (
{
hints = (
{
horizontal = 1;
place = "{-74.16, 696.27}";
type = Stem;
},
{
place = "{180, 116}";
type = Stem;
}
);
layerId = "79248770-D821-459F-BACB-A514C4DCB9B2";
paths = (
{
closed = 1;
nodes = (
"0 -78 OFFCURVE",
"41 -77 OFFCURVE",
"57 -4 CURVE SMOOTH",
"73 70 OFFCURVE",
"248 478 OFFCURVE",
"270 525 CURVE SMOOTH",
"292 572 OFFCURVE",
"277 612 OFFCURVE",
"256 619 CURVE SMOOTH",
"222 630 OFFCURVE",
"189 613 OFFCURVE",
"162 575 CURVE SMOOTH",
"130 529 OFFCURVE",
"-26 119 OFFCURVE",
"-42 46 CURVE SMOOTH",
"-58 -27 OFFCURVE",
"-49 -66 OFFCURVE",
"-25 -72 CURVE SMOOTH"
);
},
{
closed = 1;
nodes = (
"387 -24 OFFCURVE",
"423 3 OFFCURVE",
"423 36 CURVE SMOOTH",
"423 81 OFFCURVE",
"296 65 OFFCURVE",
"296 160 CURVE SMOOTH",
"296 255 OFFCURVE",
"441 315 OFFCURVE",
"502 336 CURVE SMOOTH",
"556 355 OFFCURVE",
"571 398 OFFCURVE",
"550 428 CURVE SMOOTH",
"531 456 OFFCURVE",
"494 453 OFFCURVE",
"461 444 CURVE SMOOTH",
"428 435 OFFCURVE",
"193 339 OFFCURVE",
"180 164 CURVE SMOOTH",
"171 41 OFFCURVE",
"292 -14 OFFCURVE",
"339 -19 CURVE SMOOTH"
);
}
);
width = 537;
}
);
note = uni05D0;
unicode = 05D0;
},
{
glyphname = "alefpatah-hb";
lastChange = "2018-07-28 17:48:11 +0000";
layers = (
{
hints = (
{
horizontal = 1;
place = "{-193, 68}";
type = Stem;
},
{
place = "{180, 116}";
type = Stem;
}
);
layerId = "79248770-D821-459F-BACB-A514C4DCB9B2";
paths = (
{
closed = 1;
nodes = (
"0 -78 OFFCURVE",
"41 -77 OFFCURVE",
"57 -4 CURVE SMOOTH",
"73 70 OFFCURVE",
"248 478 OFFCURVE",
"270 525 CURVE SMOOTH",
"292 572 OFFCURVE",
"277 612 OFFCURVE",
"256 619 CURVE SMOOTH",
"222 630 OFFCURVE",
"189 613 OFFCURVE",
"162 575 CURVE SMOOTH",
"130 529 OFFCURVE",
"-26 119 OFFCURVE",
"-42 46 CURVE SMOOTH",
"-58 -27 OFFCURVE",
"-49 -66 OFFCURVE",
"-25 -72 CURVE SMOOTH"
);
},
{
closed = 1;
nodes = (
"387 -24 OFFCURVE",
"423 3 OFFCURVE",
"423 36 CURVE SMOOTH",
"423 66 OFFCURVE",
"296 65 OFFCURVE",
"296 160 CURVE SMOOTH",
"296 255 OFFCURVE",
"441 315 OFFCURVE",
"502 336 CURVE SMOOTH",
"556 355 OFFCURVE",
"571 398 OFFCURVE",
"550 428 CURVE SMOOTH",
"531 456 OFFCURVE",
"494 453 OFFCURVE",
"461 444 CURVE SMOOTH",
"428 435 OFFCURVE",
"193 339 OFFCURVE",
"180 164 CURVE SMOOTH",
"171 41 OFFCURVE",
"292 -14 OFFCURVE",
"339 -19 CURVE SMOOTH"
);
},
{
closed = 1;
nodes = (
"266 -193 OFFCURVE",
"284 -181 OFFCURVE",
"284 -159 CURVE SMOOTH",
"284 -140 OFFCURVE",
"271 -125 OFFCURVE",
"250 -125 CURVE SMOOTH",
"235 -125 OFFCURVE",
"116 -132 OFFCURVE",
"104 -132 CURVE SMOOTH",
"84 -132 OFFCURVE",
"72 -142 OFFCURVE",
"72 -157 CURVE SMOOTH",
"72 -172 OFFCURVE",
"85 -183 OFFCURVE",
"104 -184 CURVE",
"176 -191 OFFCURVE",
"234 -193 OFFCURVE",
"250 -193 CURVE SMOOTH"
);
}
);
width = 537;
}
);
note = uniFB2E;
unicode = FB2E;
},
{
glyphname = "alefqamats-hb";
lastChange = "2018-07-28 17:48:11 +0000";
layers = (
{
hints = (
{
horizontal = 1;
place = "{-167, 71}";
type = Stem;
},
{
place = "{130.76, 76.24}";
type = Stem;
},
{
place = "{180, 116}";
type = Stem;
}
);
layerId = "79248770-D821-459F-BACB-A514C4DCB9B2";
paths = (
{
closed = 1;
nodes = (
"222 630 OFFCURVE",
"189 613 OFFCURVE",
"162 575 CURVE SMOOTH",
"130 529 OFFCURVE",
"-26 119 OFFCURVE",
"-42 46 CURVE SMOOTH",
"-58 -27 OFFCURVE",
"-49 -66 OFFCURVE",
"-25 -72 CURVE SMOOTH",
"0 -78 OFFCURVE",
"41 -77 OFFCURVE",
"57 -4 CURVE SMOOTH",
"73 70 OFFCURVE",
"248 478 OFFCURVE",
"270 525 CURVE SMOOTH",
"292 572 OFFCURVE",
"277 612 OFFCURVE",
"256 619 CURVE SMOOTH"
);
},
{
closed = 1;
nodes = (
"531 456 OFFCURVE",
"494 453 OFFCURVE",
"461 444 CURVE SMOOTH",
"428 435 OFFCURVE",
"193 339 OFFCURVE",
"180 164 CURVE SMOOTH",
"171 41 OFFCURVE",
"292 -14 OFFCURVE",
"339 -19 CURVE SMOOTH",
"387 -24 OFFCURVE",
"423 3 OFFCURVE",
"423 36 CURVE SMOOTH",
"423 66 OFFCURVE",
"296 65 OFFCURVE",
"296 160 CURVE SMOOTH",
"296 255 OFFCURVE",
"441 315 OFFCURVE",
"502 336 CURVE SMOOTH",
"556 355 OFFCURVE",
"571 398 OFFCURVE",
"550 428 CURVE SMOOTH"
);
},
{
closed = 1;
nodes = (
"242 -96 OFFCURVE",
"117 -103 OFFCURVE",
"104 -103 CURVE SMOOTH",
"83 -103 OFFCURVE",
"71 -114 OFFCURVE",
"71 -130 CURVE SMOOTH",
"71 -146 OFFCURVE",
"85 -156 OFFCURVE",
"104 -158 CURVE SMOOTH",
"123 -160 OFFCURVE",
"142 -161 OFFCURVE",
"159 -162 CURVE",
"135 -218 LINE SMOOTH",
"123 -246 OFFCURVE",
"137 -273 OFFCURVE",
"170 -273 CURVE SMOOTH",
"205 -273 OFFCURVE",
"207 -259 OFFCURVE",
"207 -224 CURVE SMOOTH",
"207 -218 OFFCURVE",
"203 -186 OFFCURVE",
"202 -165 CURVE",
"229 -166 OFFCURVE",
"249 -167 OFFCURVE",
"258 -167 CURVE SMOOTH",
"274 -167 OFFCURVE",
"293 -155 OFFCURVE",
"293 -132 CURVE SMOOTH",
"293 -112 OFFCURVE",
"279 -96 OFFCURVE",
"258 -96 CURVE SMOOTH"
);
}
);
width = 537;
}
);
note = uniFB2F;
unicode = FB2F;
},
{
glyphname = "alefdagesh-hb";
lastChange = "2018-07-28 17:48:11 +0000";
layers = (
{
hints = (
{
horizontal = 1;
place = "{149, 75}";
type = Stem;
},
{
place = "{180, 116}";
type = Stem;
},
{
place = "{368, 74}";
type = Stem;
}
);
layerId = "79248770-D821-459F-BACB-A514C4DCB9B2";
paths = (
{
closed = 1;
nodes = (
"0 -78 OFFCURVE",
"41 -77 OFFCURVE",
"57 -4 CURVE SMOOTH",
"73 70 OFFCURVE",
"248 478 OFFCURVE",
"270 525 CURVE SMOOTH",
"292 572 OFFCURVE",
"277 612 OFFCURVE",
"256 619 CURVE SMOOTH",
"222 630 OFFCURVE",
"189 613 OFFCURVE",
"162 575 CURVE SMOOTH",
"130 529 OFFCURVE",
"-26 119 OFFCURVE",
"-42 46 CURVE SMOOTH",
"-58 -27 OFFCURVE",
"-49 -66 OFFCURVE",
"-25 -72 CURVE SMOOTH"
);
},
{
closed = 1;
nodes = (
"387 -24 OFFCURVE",
"423 3 OFFCURVE",
"423 36 CURVE SMOOTH",
"423 66 OFFCURVE",
"296 65 OFFCURVE",
"296 160 CURVE SMOOTH",
"296 255 OFFCURVE",
"441 315 OFFCURVE",
"502 336 CURVE SMOOTH",
"556 355 OFFCURVE",
"571 398 OFFCURVE",
"550 428 CURVE SMOOTH",
"531 456 OFFCURVE",
"494 453 OFFCURVE",
"461 444 CURVE SMOOTH",
"428 435 OFFCURVE",
"193 339 OFFCURVE",
"180 164 CURVE SMOOTH",
"171 41 OFFCURVE",
"292 -14 OFFCURVE",
"339 -19 CURVE SMOOTH"
);
},
{
closed = 1;
nodes = (
"417 149 OFFCURVE",
"442 166 OFFCURVE",
"442 187 CURVE SMOOTH",
"442 207 OFFCURVE",
"430 224 OFFCURVE",
"405 224 CURVE SMOOTH",
"384 224 OFFCURVE",
"368 207 OFFCURVE",
"368 187 CURVE SMOOTH",
"368 166 OFFCURVE",
"374 149 OFFCURVE",
"397 149 CURVE SMOOTH"
);
}
);
width = 537;
}
);
note = uniFB30;
unicode = FB30;
},
{
color = 4;
glyphname = "bet-hb";
lastChange = "2019-01-24 08:18:04 +0000";
layers = (
{
hints = (
{
horizontal = 1;
place = "{27, 99}";
type = Stem;
},
{
horizontal = 1;
place = "{368, 112}";
type = Stem;
},
{
place = "{497, 120}";
type = Stem;
}
);
layerId = "79248770-D821-459F-BACB-A514C4DCB9B2";
paths = (
{
closed = 1;
nodes = (
"20 -108 OFFCURVE",
"57 -111 OFFCURVE",
"77 -71 CURVE SMOOTH",
"92 -42 OFFCURVE",
"148 40 OFFCURVE",
"177 82 CURVE",
"201 59 OFFCURVE",
"243 30 OFFCURVE",
"300 27 CURVE SMOOTH",
"424 19 OFFCURVE",
"611 143 OFFCURVE",
"617 266 CURVE SMOOTH",
"623 390 OFFCURVE",
"491 474 OFFCURVE",
"381 480 CURVE SMOOTH",
"261 487 OFFCURVE",
"116 443 OFFCURVE",
"78 420 CURVE SMOOTH",
"41 398 OFFCURVE",
"23 370 OFFCURVE",
"44 340 CURVE SMOOTH",
"62 315 OFFCURVE",
"94 317 OFFCURVE",
"133 321 CURVE SMOOTH",
"200 328 OFFCURVE",
"276 368 OFFCURVE",
"365 368 CURVE SMOOTH",
"425 368 OFFCURVE",
"491 334 OFFCURVE",
"497 274 CURVE SMOOTH",
"504 203 OFFCURVE",
"378 124 OFFCURVE",
"312 126 CURVE SMOOTH",
"239 128 OFFCURVE",
"227 217 OFFCURVE",
"170 211 CURVE SMOOTH",
"111 205 OFFCURVE",
"24 46 OFFCURVE",
"-8 -4 CURVE SMOOTH",
"-39 -53 OFFCURVE",
"-24 -91 OFFCURVE",
"-4 -99 CURVE SMOOTH"
);
}
);
width = 642;
}
);
note = uni05D1;
unicode = 05D1;
},
{
glyphname = "betdagesh-hb";
lastChange = "2018-07-28 17:48:11 +0000";
layers = (
{
hints = (
{
horizontal = 1;
place = "{27, 99}";
type = Stem;
},
{
horizontal = 1;
place = "{207, 75}";
type = Stem;
},
{
horizontal = 1;
place = "{368, 112}";
type = Stem;
},
{
place = "{295, 74}";
type = Stem;
},
{
place = "{497, 120}";
type = Stem;
}
);
layerId = "79248770-D821-459F-BACB-A514C4DCB9B2";
paths = (
{
closed = 1;
nodes = (
"20 -108 OFFCURVE",
"57 -111 OFFCURVE",
"77 -71 CURVE SMOOTH",
"92 -42 OFFCURVE",
"148 40 OFFCURVE",
"177 82 CURVE",
"201 59 OFFCURVE",
"243 30 OFFCURVE",
"300 27 CURVE SMOOTH",
"424 19 OFFCURVE",
"611 143 OFFCURVE",
"617 266 CURVE SMOOTH",
"623 390 OFFCURVE",
"491 474 OFFCURVE",
"381 480 CURVE SMOOTH",
"261 487 OFFCURVE",
"116 443 OFFCURVE",
"78 420 CURVE SMOOTH",
"41 398 OFFCURVE",
"23 370 OFFCURVE",
"44 340 CURVE SMOOTH",
"62 315 OFFCURVE",
"94 317 OFFCURVE",
"133 321 CURVE SMOOTH",
"200 328 OFFCURVE",
"276 368 OFFCURVE",
"365 368 CURVE SMOOTH",
"425 368 OFFCURVE",
"491 334 OFFCURVE",
"497 274 CURVE SMOOTH",
"504 203 OFFCURVE",
"378 124 OFFCURVE",
"312 126 CURVE SMOOTH",
"239 128 OFFCURVE",
"227 217 OFFCURVE",
"170 211 CURVE SMOOTH",
"111 205 OFFCURVE",
"24 46 OFFCURVE",
"-8 -4 CURVE SMOOTH",
"-39 -53 OFFCURVE",
"-24 -91 OFFCURVE",
"-4 -99 CURVE SMOOTH"
);
},
{
closed = 1;
nodes = (
"344 207 OFFCURVE",
"369 224 OFFCURVE",
"369 245 CURVE SMOOTH",
"369 265 OFFCURVE",
"357 282 OFFCURVE",
"332 282 CURVE SMOOTH",
"311 282 OFFCURVE",
"295 265 OFFCURVE",
"295 245 CURVE SMOOTH",
"295 224 OFFCURVE",
"301 207 OFFCURVE",
"324 207 CURVE SMOOTH"
);
}
);
width = 642;
}
);
note = uniFB31;
unicode = FB31;
},
{
color = 4;
glyphname = "gimel-hb";
lastChange = "2019-01-28 13:32:15 +0000";
layers = (
{
hints = (
{
horizontal = 1;
place = "{288, 139}";
type = Stem;
},
{
place = "{-47, 112}";
type = Stem;
}
);
layerId = "79248770-D821-459F-BACB-A514C4DCB9B2";
paths = (
{
closed = 1;
nodes = (
"400 427 OFFCURVE",
"379 424 OFFCURVE",
"354 418 CURVE",
"329 434 OFFCURVE",
"299 462 OFFCURVE",
"279 511 CURVE SMOOTH",
"254 574 OFFCURVE",
"219 606 OFFCURVE",
"179 583 CURVE SMOOTH",
"140 560 OFFCURVE",
"143 521 OFFCURVE",
"154 485 CURVE SMOOTH",
"169 436 OFFCURVE",
"203 390 OFFCURVE",
"246 354 CURVE",
"249 386 LINE",
"122 336 OFFCURVE",
"-32 239 OFFCURVE",
"-47 85 CURVE SMOOTH",
"-56 -5 OFFCURVE",
"-6 -88 OFFCURVE",
"72 -148 CURVE SMOOTH",
"107 -175 OFFCURVE",
"152 -189 OFFCURVE",
"173 -172 CURVE SMOOTH",
"204 -146 OFFCURVE",
"191 -106 OFFCURVE",
"163 -86 CURVE SMOOTH",
"109 -47 OFFCURVE",
"65 -2 OFFCURVE",
"65 67 CURVE SMOOTH",
"65 149 OFFCURVE",
"183 251 OFFCURVE",
"337 302 CURVE",
"361 293 OFFCURVE",
"384 288 OFFCURVE",
"404 288 CURVE SMOOTH",
"490 288 OFFCURVE",
"526 337 OFFCURVE",
"526 369 CURVE SMOOTH",
"526 401 OFFCURVE",
"483 427 OFFCURVE",
"412 427 CURVE SMOOTH"
);
}
);
width = 513;
}
);
note = uni05D2;
unicode = 05D2;
},
{
glyphname = "gimeldagesh-hb";
lastChange = "2018-07-28 17:48:11 +0000";
layers = (
{
hints = (
{
horizontal = 1;
place = "{112, 75}";
type = Stem;
},
{
horizontal = 1;
place = "{288, 139}";
type = Stem;
},
{
place = "{-47, 112}";
type = Stem;
},
{
place = "{275, 74}";
type = Stem;
}
);
layerId = "79248770-D821-459F-BACB-A514C4DCB9B2";
paths = (
{
closed = 1;
nodes = (
"400 427 OFFCURVE",
"379 424 OFFCURVE",
"354 418 CURVE",
"329 434 OFFCURVE",
"299 462 OFFCURVE",
"279 511 CURVE SMOOTH",
"254 574 OFFCURVE",
"209 607 OFFCURVE",
"170 582 CURVE SMOOTH",
"134 559 OFFCURVE",
"140 521 OFFCURVE",
"151 485 CURVE SMOOTH",
"163 445 OFFCURVE",
"190 407 OFFCURVE",
"223 375 CURVE",
"102 323 OFFCURVE",
"-33 229 OFFCURVE",
"-47 85 CURVE SMOOTH",
"-56 -5 OFFCURVE",
"-6 -88 OFFCURVE",
"72 -148 CURVE SMOOTH",
"107 -175 OFFCURVE",
"152 -189 OFFCURVE",
"173 -172 CURVE SMOOTH",
"203 -148 OFFCURVE",
"191 -106 OFFCURVE",
"163 -86 CURVE SMOOTH",
"109 -47 OFFCURVE",
"65 -2 OFFCURVE",
"65 67 CURVE SMOOTH",
"65 149 OFFCURVE",
"183 251 OFFCURVE",
"337 302 CURVE",
"361 293 OFFCURVE",
"384 288 OFFCURVE",
"404 288 CURVE SMOOTH",
"490 288 OFFCURVE",
"526 337 OFFCURVE",
"526 369 CURVE SMOOTH",
"526 401 OFFCURVE",
"483 427 OFFCURVE",
"412 427 CURVE SMOOTH"
);
},
{
closed = 1;
nodes = (
"291 187 OFFCURVE",
"275 170 OFFCURVE",
"275 150 CURVE SMOOTH",
"275 129 OFFCURVE",
"281 112 OFFCURVE",
"304 112 CURVE SMOOTH",
"324 112 OFFCURVE",
"349 129 OFFCURVE",
"349 150 CURVE SMOOTH",
"349 170 OFFCURVE",
"337 187 OFFCURVE",
"312 187 CURVE SMOOTH"
);
}
);
width = 513;
}
);
note = uniFB32;
unicode = FB32;
},
{
color = 4;
glyphname = "dalet-hb";
lastChange = "2019-01-24 08:18:04 +0000";
layers = (
{
hints = (
{
horizontal = 1;
place = "{239, 115}";
type = Stem;
},
{
horizontal = 1;
place = "{557, 109}";
type = Stem;
},
{
place = "{290, 106}";
type = Stem;
},
{
place = "{460.74, 101.26}";
type = Stem;
}
);
layerId = "79248770-D821-459F-BACB-A514C4DCB9B2";
paths = (
{
closed = 1;
nodes = (
"302 675 OFFCURVE",
"151 644 OFFCURVE",
"104 606 CURVE SMOOTH",
"87 592 OFFCURVE",
"64 555 OFFCURVE",
"86 526 CURVE",
"109 499 OFFCURVE",
"188 510 OFFCURVE",
"230 528 CURVE SMOOTH",
"271 545 OFFCURVE",
"346 563 OFFCURVE",
"408 557 CURVE SMOOTH",
"469 550 OFFCURVE",
"472 505 OFFCURVE",
"443 474 CURVE SMOOTH",
"413 441 OFFCURVE",
"312 378 OFFCURVE",
"233 354 CURVE",
"233 354 OFFCURVE",
"33 370 OFFCURVE",
"44 288 CURVE SMOOTH",
"57 205 OFFCURVE",
"153 254 OFFCURVE",
"216 247 CURVE SMOOTH",
"278 240 OFFCURVE",
"294 218 OFFCURVE",
"290 180 CURVE SMOOTH",
"286 140 OFFCURVE",
"269 95 OFFCURVE",
"240 40 CURVE SMOOTH",
"211 -14 OFFCURVE",
"293 -41 OFFCURVE",
"325 3 CURVE SMOOTH",
"354 43 OFFCURVE",
"385 69 OFFCURVE",
"396 173 CURVE SMOOTH",
"405 266 OFFCURVE",
"378 295 OFFCURVE",
"354 305 CURVE",
"415 323 OFFCURVE",
"550 383 OFFCURVE",
"562 500 CURVE SMOOTH",
"573 605 OFFCURVE",
"485 656 OFFCURVE",
"393 666 CURVE SMOOTH"
);
}
);
width = 519;
}
);
note = uni05D3;
unicode = 05D3;
},
{
glyphname = "daletdagesh-hb";
lastChange = "2018-07-28 17:48:11 +0000";
layers = (
{
hints = (
{
horizontal = 1;
place = "{239, 115}";
type = Stem;
},
{
horizontal = 1;
place = "{408, 75}";
type = Stem;
},
{
horizontal = 1;
place = "{557, 109}";
type = Stem;
},
{
place = "{290, 106}";
type = Stem;
},
{
place = "{460.74, 101.26}";
type = Stem;
},
{
place = "{200, 74}";
type = Stem;
}
);
layerId = "79248770-D821-459F-BACB-A514C4DCB9B2";
paths = (
{
closed = 1;
nodes = (
"302 675 OFFCURVE",
"151 644 OFFCURVE",
"104 606 CURVE SMOOTH",
"87 592 OFFCURVE",
"64 555 OFFCURVE",
"86 526 CURVE",
"109 499 OFFCURVE",
"188 510 OFFCURVE",
"230 528 CURVE SMOOTH",
"271 545 OFFCURVE",
"346 563 OFFCURVE",
"408 557 CURVE SMOOTH",
"469 550 OFFCURVE",
"472 505 OFFCURVE",
"443 474 CURVE SMOOTH",
"413 441 OFFCURVE",
"312 378 OFFCURVE",
"233 354 CURVE",
"233 354 OFFCURVE",
"33 370 OFFCURVE",
"44 288 CURVE SMOOTH",
"57 205 OFFCURVE",
"153 254 OFFCURVE",
"216 247 CURVE SMOOTH",
"278 240 OFFCURVE",
"294 218 OFFCURVE",
"290 180 CURVE SMOOTH",
"286 140 OFFCURVE",
"269 95 OFFCURVE",
"240 40 CURVE SMOOTH",
"211 -14 OFFCURVE",
"293 -41 OFFCURVE",
"325 3 CURVE SMOOTH",
"354 43 OFFCURVE",
"385 69 OFFCURVE",
"396 173 CURVE SMOOTH",
"405 266 OFFCURVE",
"378 295 OFFCURVE",
"354 305 CURVE",
"415 323 OFFCURVE",
"550 383 OFFCURVE",
"562 500 CURVE SMOOTH",
"573 605 OFFCURVE",
"485 656 OFFCURVE",
"393 666 CURVE SMOOTH"
);
},
{
closed = 1;
nodes = (
"274 466 OFFCURVE",
"262 483 OFFCURVE",
"237 483 CURVE SMOOTH",
"216 483 OFFCURVE",
"200 466 OFFCURVE",
"200 446 CURVE SMOOTH",
"200 425 OFFCURVE",
"206 408 OFFCURVE",
"229 408 CURVE SMOOTH",
"249 408 OFFCURVE",
"274 425 OFFCURVE",
"274 446 CURVE SMOOTH"
);
}
);
width = 519;
}
);
note = uniFB33;
unicode = FB33;
},
{
color = 4;
glyphname = "he-hb";
lastChange = "2019-01-24 08:18:04 +0000";
layers = (
{
hints = (
{
horizontal = 1;
place = "{-13.87, 21}";
target = up;
type = BottomGhost;
},
{
horizontal = 1;
place = "{472.39, 111.09}";
type = Stem;
},
{
place = "{538, 107.84}";
type = Stem;
}
);
layerId = "79248770-D821-459F-BACB-A514C4DCB9B2";
paths = (
{
closed = 1;
nodes = (
"500 65 OFFCURVE",
"703 248 OFFCURVE",
"631 429 CURVE SMOOTH",
"562 603 OFFCURVE",
"277 630 OFFCURVE",
"87 512 CURVE SMOOTH",
"45 486 OFFCURVE",
"30 454 OFFCURVE",
"46 429 CURVE SMOOTH",
"66 398 OFFCURVE",
"103 404 OFFCURVE",
"139 420 CURVE SMOOTH",
"344 511 OFFCURVE",
"530 477 OFFCURVE",
"538 370 CURVE SMOOTH",
"546 260 OFFCURVE",
"406 150 OFFCURVE",
"350 99 CURVE SMOOTH",
"319 71 OFFCURVE",
"293 39 OFFCURVE",
"306 10 CURVE SMOOTH",
"322 -27 OFFCURVE",
"368 -15 OFFCURVE",
"401 5 CURVE SMOOTH"
);
},
{
closed = 1;
nodes = (
"52 -26 OFFCURVE",
"83 -4 OFFCURVE",
"107 15 CURVE SMOOTH",
"161 57 OFFCURVE",
"212 147 OFFCURVE",
"231 214 CURVE SMOOTH",
"246 267 OFFCURVE",
"233 295 OFFCURVE",
"207 307 CURVE",
"180 321 OFFCURVE",
"132 307 OFFCURVE",
"124 272 CURVE SMOOTH",
"105 190 OFFCURVE",
"78 137 OFFCURVE",
"29 95 CURVE SMOOTH",
"-24 50 OFFCURVE",
"-2 4 OFFCURVE",
"27 -12 CURVE SMOOTH"
);
}
);
width = 651;
}
);
note = uni05D4;
unicode = 05D4;
},
{
glyphname = "hedagesh-hb";
lastChange = "2018-07-28 17:48:11 +0000";
layers = (
{
hints = (
{
horizontal = 1;
place = "{-13.87, 21}";
target = up;
type = BottomGhost;
},
{
horizontal = 1;
place = "{300, 75}";
type = Stem;
},
{
horizontal = 1;
place = "{472.39, 111.09}";
type = Stem;
},
{
place = "{361, 74}";
type = Stem;
},
{
place = "{538, 107.84}";
type = Stem;
}
);
layerId = "79248770-D821-459F-BACB-A514C4DCB9B2";
paths = (
{
closed = 1;
nodes = (
"500 65 OFFCURVE",
"703 248 OFFCURVE",
"631 429 CURVE SMOOTH",
"562 603 OFFCURVE",
"277 630 OFFCURVE",
"87 512 CURVE SMOOTH",
"45 486 OFFCURVE",
"30 454 OFFCURVE",
"46 429 CURVE SMOOTH",
"66 398 OFFCURVE",
"103 404 OFFCURVE",
"139 420 CURVE SMOOTH",
"344 511 OFFCURVE",
"530 477 OFFCURVE",
"538 370 CURVE SMOOTH",
"546 260 OFFCURVE",
"406 150 OFFCURVE",
"350 99 CURVE SMOOTH",
"319 71 OFFCURVE",
"293 39 OFFCURVE",
"306 10 CURVE SMOOTH",
"322 -27 OFFCURVE",
"368 -15 OFFCURVE",
"401 5 CURVE SMOOTH"
);
},
{
closed = 1;
nodes = (
"410 300 OFFCURVE",
"435 317 OFFCURVE",
"435 338 CURVE SMOOTH",
"435 358 OFFCURVE",
"423 375 OFFCURVE",
"398 375 CURVE SMOOTH",
"377 375 OFFCURVE",
"361 358 OFFCURVE",
"361 338 CURVE SMOOTH",
"361 317 OFFCURVE",
"367 300 OFFCURVE",
"390 300 CURVE SMOOTH"
);
},
{
closed = 1;
nodes = (
"52 -26 OFFCURVE",
"83 -4 OFFCURVE",
"107 15 CURVE SMOOTH",
"161 57 OFFCURVE",
"212 147 OFFCURVE",
"231 214 CURVE SMOOTH",
"246 267 OFFCURVE",
"233 295 OFFCURVE",
"207 307 CURVE",
"180 321 OFFCURVE",
"132 307 OFFCURVE",
"124 272 CURVE SMOOTH",
"105 190 OFFCURVE",
"78 137 OFFCURVE",
"29 95 CURVE SMOOTH",
"-24 50 OFFCURVE",
"-2 4 OFFCURVE",
"27 -12 CURVE SMOOTH"
);
}
);
width = 651;
}
);
note = uniFB34;
unicode = FB34;
},
{
color = 4;
glyphname = "vav-hb";
lastChange = "2019-01-24 08:18:04 +0000";
layers = (
{
hints = (
{
horizontal = 1;
place = "{-18.73, 642.55}";
type = Stem;
},
{
place = "{-35.13, 303.98}";
type = Stem;
}
);
layerId = "79248770-D821-459F-BACB-A514C4DCB9B2";
paths = (
{
closed = 1;
nodes = (
"5 -24 OFFCURVE",
"29 -22 OFFCURVE",
"59 25 CURVE SMOOTH",
"89 72 OFFCURVE",
"216 358 OFFCURVE",
"257 493 CURVE SMOOTH",
"278 563 OFFCURVE",
"272 610 OFFCURVE",
"232 621 CURVE SMOOTH",
"176 636 OFFCURVE",
"151 590 OFFCURVE",
"127 507 CURVE SMOOTH",
"70 310 OFFCURVE",
"-14 110 OFFCURVE",
"-23 80 CURVE SMOOTH",
"-37 33 OFFCURVE",
"-42 -6 OFFCURVE",
"-21 -14 CURVE SMOOTH"
);
}
);
width = 233;
}
);
note = uni05D5;
unicode = 05D5;
},
{
glyphname = "vavdagesh-hb";
lastChange = "2018-07-28 17:48:11 +0000";
layers = (
{
hints = (
{
horizontal = 1;
place = "{330, 75}";
type = Stem;
},
{
place = "{-17, 74}";
type = Stem;
}
);
layerId = "79248770-D821-459F-BACB-A514C4DCB9B2";
paths = (
{
closed = 1;
nodes = (
"5 -24 OFFCURVE",
"29 -22 OFFCURVE",
"59 25 CURVE SMOOTH",
"89 72 OFFCURVE",
"216 358 OFFCURVE",
"257 493 CURVE SMOOTH",
"278 563 OFFCURVE",
"272 610 OFFCURVE",
"232 621 CURVE SMOOTH",
"176 636 OFFCURVE",
"151 590 OFFCURVE",
"127 507 CURVE SMOOTH",
"70 310 OFFCURVE",
"-14 110 OFFCURVE",
"-23 80 CURVE SMOOTH",
"-37 33 OFFCURVE",
"-42 -6 OFFCURVE",
"-21 -14 CURVE SMOOTH"
);
},
{
closed = 1;
nodes = (
"32 330 OFFCURVE",
"57 347 OFFCURVE",
"57 368 CURVE SMOOTH",
"57 388 OFFCURVE",
"45 405 OFFCURVE",
"20 405 CURVE SMOOTH",
"-1 405 OFFCURVE",
"-17 388 OFFCURVE",
"-17 368 CURVE SMOOTH",
"-17 347 OFFCURVE",
"-11 330 OFFCURVE",
"12 330 CURVE SMOOTH"
);
}
);
width = 233;
}
);
note = uniFB35;
unicode = FB35;
},
{
glyphname = "vavholam-hb";
lastChange = "2018-07-28 17:48:11 +0000";
layers = (
{
hints = (
{
horizontal = 1;
place = "{695, 86}";
type = Stem;
},
{
place = "{230, 87}";
type = Stem;
}
);
layerId = "79248770-D821-459F-BACB-A514C4DCB9B2";
paths = (
{
closed = 1;
nodes = (
"287 695 OFFCURVE",
"317 714 OFFCURVE",
"317 738 CURVE SMOOTH",
"317 762 OFFCURVE",
"303 781 OFFCURVE",
"274 781 CURVE SMOOTH",
"250 781 OFFCURVE",
"230 762 OFFCURVE",
"230 738 CURVE SMOOTH",
"230 714 OFFCURVE",
"237 695 OFFCURVE",
"264 695 CURVE SMOOTH"
);
},
{
closed = 1;
nodes = (
"5 -24 OFFCURVE",
"29 -22 OFFCURVE",
"59 25 CURVE SMOOTH",
"89 72 OFFCURVE",
"216 358 OFFCURVE",
"257 493 CURVE SMOOTH",
"278 563 OFFCURVE",
"272 610 OFFCURVE",
"232 621 CURVE SMOOTH",
"176 636 OFFCURVE",
"151 590 OFFCURVE",
"127 507 CURVE SMOOTH",
"70 310 OFFCURVE",
"-14 110 OFFCURVE",
"-23 80 CURVE SMOOTH",
"-37 33 OFFCURVE",
"-42 -6 OFFCURVE",
"-21 -14 CURVE SMOOTH"
);
}
);
width = 233;
}
);
note = uniFB4B;
unicode = FB4B;
},
{
color = 4;
glyphname = "zayin-hb";
lastChange = "2019-01-24 08:18:04 +0000";
layers = (
{
hints = (
{
horizontal = 1;
place = "{352.5, 104.68}";
type = Stem;
},
{
place = "{404.21, 108.79}";
type = Stem;
}
);
layerId = "79248770-D821-459F-BACB-A514C4DCB9B2";
paths = (
{
closed = 1;
nodes = (
"306 494 OFFCURVE",
"383 570 OFFCURVE",
"403 589 CURVE SMOOTH",
"443 628 OFFCURVE",
"447 682 OFFCURVE",
"413 704 CURVE SMOOTH",
"380 726 OFFCURVE",
"338 718 OFFCURVE",
"306 677 CURVE SMOOTH",
"274 636 OFFCURVE",
"78 403 OFFCURVE",
"58 383 CURVE SMOOTH",
"21 346 OFFCURVE",
"54 271 OFFCURVE",
"115 282 CURVE SMOOTH",
"153 289 OFFCURVE",
"317 385 OFFCURVE",
"381 341 CURVE SMOOTH",
"445 297 OFFCURVE",
"366 183 OFFCURVE",
"274 122 CURVE SMOOTH",
"199 72 OFFCURVE",
"78 8 OFFCURVE",
"-12 -1 CURVE SMOOTH",
"-31 -3 OFFCURVE",
"-83 7 OFFCURVE",
"-90 -30 CURVE SMOOTH",
"-100 -83 OFFCURVE",
"0 -127 OFFCURVE",
"119 -84 CURVE SMOOTH",
"248 -37 OFFCURVE",
"513 100 OFFCURVE",
"513 297 CURVE SMOOTH",
"513 470 OFFCURVE",
"357 470 OFFCURVE",
"256 446 CURVE"
);
}
);
width = 541;
}
);
note = uni05D6;
unicode = 05D6;
},
{
glyphname = "zayindagesh-hb";
lastChange = "2018-07-28 17:48:11 +0000";
layers = (
{
hints = (
{
horizontal = 1;
place = "{160, 75}";
type = Stem;
},
{
horizontal = 1;
place = "{352.5, 104.68}";
type = Stem;
},
{
place = "{176, 74}";
type = Stem;
},
{
place = "{404.21, 108.79}";
type = Stem;
}
);
layerId = "79248770-D821-459F-BACB-A514C4DCB9B2";
paths = (
{
closed = 1;
nodes = (
"306 494 OFFCURVE",
"383 570 OFFCURVE",
"403 589 CURVE SMOOTH",
"443 628 OFFCURVE",
"447 682 OFFCURVE",
"413 704 CURVE SMOOTH",
"380 726 OFFCURVE",
"338 718 OFFCURVE",
"306 677 CURVE SMOOTH",
"274 636 OFFCURVE",
"78 403 OFFCURVE",
"58 383 CURVE SMOOTH",
"21 346 OFFCURVE",
"54 271 OFFCURVE",
"115 282 CURVE SMOOTH",
"153 289 OFFCURVE",
"317 385 OFFCURVE",
"381 341 CURVE SMOOTH",
"445 297 OFFCURVE",
"366 183 OFFCURVE",
"274 122 CURVE SMOOTH",
"199 72 OFFCURVE",
"78 8 OFFCURVE",
"-12 -1 CURVE SMOOTH",
"-31 -3 OFFCURVE",
"-83 7 OFFCURVE",
"-90 -30 CURVE SMOOTH",
"-100 -83 OFFCURVE",
"0 -127 OFFCURVE",
"119 -84 CURVE SMOOTH",
"248 -37 OFFCURVE",
"513 100 OFFCURVE",
"513 297 CURVE SMOOTH",
"513 470 OFFCURVE",
"357 470 OFFCURVE",
"256 446 CURVE"
);
},
{
closed = 1;
nodes = (
"250 218 OFFCURVE",
"238 235 OFFCURVE",
"213 235 CURVE SMOOTH",
"192 235 OFFCURVE",
"176 218 OFFCURVE",
"176 198 CURVE SMOOTH",
"176 177 OFFCURVE",
"182 160 OFFCURVE",
"205 160 CURVE SMOOTH",
"225 160 OFFCURVE",
"250 177 OFFCURVE",
"250 198 CURVE SMOOTH"
);
}
);
width = 541;
}
);
note = uniFB36;
unicode = FB36;
},
{
color = 4;
glyphname = "het-hb";
lastChange = "2019-01-24 08:18:04 +0000";
layers = (
{
hints = (
{
horizontal = 1;
place = "{432.41, 114.89}";
type = Stem;
},
{
place = "{329, 24.62}";
type = Stem;
},
{
place = "{524.19, 129.1}";
type = Stem;
}
);
layerId = "79248770-D821-459F-BACB-A514C4DCB9B2";
paths = (
{
closed = 1;
nodes = (
"478 554 OFFCURVE",
"402 545 OFFCURVE",
"329 530 CURVE",
"337 547 LINE SMOOTH",
"361 600 OFFCURVE",
"361 636 OFFCURVE",
"326 652 CURVE SMOOTH",
"292 668 OFFCURVE",
"253 635 OFFCURVE",
"224 569 CURVE SMOOTH",
"217 554 OFFCURVE",
"205 527 OFFCURVE",
"188 494 CURVE",
"167 487 OFFCURVE",
"150 481 OFFCURVE",
"141 477 CURVE SMOOTH",
"95 456 OFFCURVE",
"31 409 OFFCURVE",
"47 367 CURVE SMOOTH",
"57 341 OFFCURVE",
"82 331 OFFCURVE",
"109 335 CURVE",
"56 232 OFFCURVE",
"4 130 OFFCURVE",
"-10 106 CURVE SMOOTH",
"-38 56 OFFCURVE",
"-29 22 OFFCURVE",
"-5 12 CURVE SMOOTH",
"28 -2 OFFCURVE",
"54 22 OFFCURVE",
"87 68 CURVE SMOOTH",
"114 106 OFFCURVE",
"199 268 OFFCURVE",
"263 396 CURVE",
"334 420 OFFCURVE",
"417 440 OFFCURVE",
"477 430 CURVE SMOOTH",
"592 410 OFFCURVE",
"466 227 OFFCURVE",
"427 176 CURVE SMOOTH",
"381 115 OFFCURVE",
"271 23 OFFCURVE",
"345 -16 CURVE SMOOTH",
"438 -65 OFFCURVE",
"599 192 OFFCURVE",
"641 305 CURVE SMOOTH",
"683 419 OFFCURVE",
"612 517 OFFCURVE",
"520 542 CURVE SMOOTH"
);
}
);
width = 658;
}
);
note = uni05D7;
unicode = 05D7;
},
{
color = 4;
glyphname = "tet-hb";
lastChange = "2019-01-28 13:31:52 +0000";
layers = (
{
hints = (
{
horizontal = 1;
place = "{-21, 117}";
type = Stem;
},
{
horizontal = 1;
place = "{699, 111}";
type = Stem;
},
{
place = "{31, 123}";
type = Stem;
}
);
layerId = "79248770-D821-459F-BACB-A514C4DCB9B2";
paths = (
{
closed = 1;
nodes = (
"414 -21 OFFCURVE",
"507 167 OFFCURVE",
"519 241 CURVE SMOOTH",
"528 297 OFFCURVE",
"507 344 OFFCURVE",
"462 344 CURVE SMOOTH",
"439 344 OFFCURVE",
"406 327 OFFCURVE",
"396 279 CURVE SMOOTH",
"377 189 OFFCURVE",
"330 96 OFFCURVE",
"246 96 CURVE SMOOTH",
"108 96 OFFCURVE",
"145 310 OFFCURVE",
"221 442 CURVE SMOOTH",
"317 606 OFFCURVE",
"505 699 OFFCURVE",
"705 699 CURVE SMOOTH",
"749 699 OFFCURVE",
"789 711 OFFCURVE",
"789 752 CURVE SMOOTH",
"789 802 OFFCURVE",
"729 810 OFFCURVE",
"650 810 CURVE SMOOTH",
"431 810 OFFCURVE",
"232 683 OFFCURVE",
"122 504 CURVE SMOOTH",
"-20 277 OFFCURVE",
"-5 -21 OFFCURVE",
"244 -21 CURVE SMOOTH"
);
}
);
width = 564;
}
);
note = uni05D8;
unicode = 05D8;
},
{
glyphname = "tetdagesh-hb";
lastChange = "2018-07-28 17:48:11 +0000";
layers = (
{
hints = (
{
horizontal = 1;
place = "{-21, 117}";
type = Stem;
},
{
horizontal = 1;
place = "{237, 75}";
type = Stem;
},
{
horizontal = 1;
place = "{699, 111}";
type = Stem;
},
{
place = "{31, 123}";
type = Stem;
},
{
place = "{246, 74}";
type = Stem;
}
);
layerId = "79248770-D821-459F-BACB-A514C4DCB9B2";
paths = (
{
closed = 1;
nodes = (
"414 -21 OFFCURVE",
"507 167 OFFCURVE",
"519 241 CURVE SMOOTH",
"528 297 OFFCURVE",
"507 344 OFFCURVE",
"462 344 CURVE SMOOTH",
"439 344 OFFCURVE",
"406 327 OFFCURVE",
"396 279 CURVE SMOOTH",
"377 189 OFFCURVE",
"330 96 OFFCURVE",
"246 96 CURVE SMOOTH",
"196 96 OFFCURVE",
"154 138 OFFCURVE",
"154 186 CURVE SMOOTH",
"154 505 OFFCURVE",
"417 699 OFFCURVE",
"705 699 CURVE SMOOTH",
"749 699 OFFCURVE",
"789 711 OFFCURVE",
"789 752 CURVE SMOOTH",
"789 802 OFFCURVE",
"729 810 OFFCURVE",
"650 810 CURVE SMOOTH",
"317 810 OFFCURVE",
"31 517 OFFCURVE",
"31 193 CURVE SMOOTH",
"31 62 OFFCURVE",
"132 -21 OFFCURVE",
"244 -21 CURVE SMOOTH"
);
},
{
closed = 1;
nodes = (
"295 237 OFFCURVE",
"320 254 OFFCURVE",
"320 275 CURVE SMOOTH",
"320 295 OFFCURVE",
"308 312 OFFCURVE",
"283 312 CURVE SMOOTH",
"262 312 OFFCURVE",
"246 295 OFFCURVE",
"246 275 CURVE SMOOTH",
"246 254 OFFCURVE",
"252 237 OFFCURVE",
"275 237 CURVE SMOOTH"
);
}
);
width = 564;
}
);
note = uniFB38;
unicode = FB38;
},
{
color = 4;
glyphname = "yod-hb";
lastChange = "2019-01-24 08:18:04 +0000";
layers = (
{
hints = (
{
horizontal = 1;
place = "{559.34, -20}";
target = down;
type = TopGhost;
},
{
place = "{37.93, 188.82}";
type = Stem;
}
);
layerId = "79248770-D821-459F-BACB-A514C4DCB9B2";
paths = (
{
closed = 1;
nodes = (
"141 199 OFFCURVE",
"196 394 OFFCURVE",
"215 447 CURVE SMOOTH",
"233 498 OFFCURVE",
"235 541 OFFCURVE",
"188 557 CURVE SMOOTH",
"155 568 OFFCURVE",
"120 540 OFFCURVE",
"106 491 CURVE SMOOTH",
"78 392 OFFCURVE",
"-2 253 OFFCURVE",
"62 229 CURVE SMOOTH"
);
}
);
width = 207;
}
);
note = uni05D9;
unicode = 05D9;
},
{
glyphname = "yoddagesh-hb";
lastChange = "2018-07-28 17:48:11 +0000";
layers = (
{
hints = (
{
horizontal = 1;
place = "{101, 75}";
type = Stem;
},
{
horizontal = 1;
place = "{559.34, -20}";
target = down;
type = TopGhost;
},
{
place = "{37.93, 188.82}";
type = Stem;
},
{
place = "{10, 74}";
type = Stem;
}
);
layerId = "79248770-D821-459F-BACB-A514C4DCB9B2";
paths = (
{
closed = 1;
nodes = (
"141 199 OFFCURVE",
"196 394 OFFCURVE",
"215 447 CURVE SMOOTH",
"233 498 OFFCURVE",
"235 541 OFFCURVE",
"188 557 CURVE SMOOTH",
"155 568 OFFCURVE",
"120 540 OFFCURVE",
"106 491 CURVE SMOOTH",
"78 392 OFFCURVE",
"-2 253 OFFCURVE",
"62 229 CURVE SMOOTH"
);
},
{
closed = 1;
nodes = (
"59 101 OFFCURVE",
"84 118 OFFCURVE",
"84 139 CURVE SMOOTH",
"84 159 OFFCURVE",
"72 176 OFFCURVE",
"47 176 CURVE SMOOTH",
"26 176 OFFCURVE",
"10 159 OFFCURVE",
"10 139 CURVE SMOOTH",
"10 118 OFFCURVE",
"16 101 OFFCURVE",
"39 101 CURVE SMOOTH"
);
}
);
width = 207;
}
);
note = uniFB39;
unicode = FB39;
},
{
color = 4;
glyphname = "finalkaf-hb";
lastChange = "2019-01-24 08:18:04 +0000";
layers = (
{
hints = (
{
horizontal = 1;
place = "{485.72, 115.09}";
type = Stem;
},
{
place = "{288, 115.28}";
type = Stem;
}
);
layerId = "79248770-D821-459F-BACB-A514C4DCB9B2";
paths = (
{
closed = 1;
nodes = (
"-46 -378 OFFCURVE",
"-14 -379 OFFCURVE",
"24 -336 CURVE SMOOTH",
"125 -221 OFFCURVE",
"268 17 OFFCURVE",
"331 118 CURVE SMOOTH",
"428 273 OFFCURVE",
"462 565 OFFCURVE",
"208 598 CURVE SMOOTH",
"117 610 OFFCURVE",
"45 586 OFFCURVE",
"56 520 CURVE SMOOTH",
"62 483 OFFCURVE",
"97 474 OFFCURVE",
"143 483 CURVE SMOOTH",
"224 499 OFFCURVE",
"288 443 OFFCURVE",
"288 360 CURVE SMOOTH",
"288 258 OFFCURVE",
"216 145 OFFCURVE",
"170 70 CURVE SMOOTH",
"143 26 OFFCURVE",
"28 -169 OFFCURVE",
"-51 -280 CURVE SMOOTH",
"-91 -336 OFFCURVE",
"-65 -363 OFFCURVE",
"-56 -370 CURVE SMOOTH"
);
}
);
width = 430;
}
);
note = uni05DA;
unicode = 05DA;
},
{
glyphname = "finalkafdagesh-hb";
lastChange = "2018-07-28 17:48:11 +0000";
layers = (
{
hints = (
{
horizontal = 1;
place = "{252, 75}";
type = Stem;
},
{
horizontal = 1;
place = "{485.72, 115.09}";
type = Stem;
},
{
place = "{92, 74}";
type = Stem;
},
{
place = "{288, 115.28}";
type = Stem;
}
);
layerId = "79248770-D821-459F-BACB-A514C4DCB9B2";
paths = (
{
closed = 1;
nodes = (
"-46 -378 OFFCURVE",
"-14 -379 OFFCURVE",
"24 -336 CURVE SMOOTH",
"125 -221 OFFCURVE",
"268 17 OFFCURVE",
"331 118 CURVE SMOOTH",
"428 273 OFFCURVE",
"462 565 OFFCURVE",
"208 598 CURVE SMOOTH",
"117 610 OFFCURVE",
"45 586 OFFCURVE",
"56 520 CURVE SMOOTH",
"62 483 OFFCURVE",
"97 474 OFFCURVE",
"143 483 CURVE SMOOTH",
"224 499 OFFCURVE",
"288 443 OFFCURVE",
"288 360 CURVE SMOOTH",
"288 258 OFFCURVE",
"216 145 OFFCURVE",
"170 70 CURVE SMOOTH",
"143 26 OFFCURVE",
"28 -169 OFFCURVE",
"-51 -280 CURVE SMOOTH",
"-91 -336 OFFCURVE",
"-65 -363 OFFCURVE",
"-56 -370 CURVE SMOOTH"
);
},
{
closed = 1;
nodes = (
"141 252 OFFCURVE",
"166 269 OFFCURVE",
"166 290 CURVE SMOOTH",
"166 310 OFFCURVE",
"154 327 OFFCURVE",
"129 327 CURVE SMOOTH",
"108 327 OFFCURVE",
"92 310 OFFCURVE",
"92 290 CURVE SMOOTH",
"92 269 OFFCURVE",
"98 252 OFFCURVE",
"121 252 CURVE SMOOTH"
);
}
);
width = 430;
}
);
note = uniFB3A;
unicode = FB3A;
},
{
color = 4;
glyphname = "kaf-hb";
lastChange = "2019-01-24 08:18:04 +0000";
layers = (
{
hints = (
{
horizontal = 1;
place = "{-24.7, 112.09}";
type = Stem;
},
{
horizontal = 1;
place = "{460, 122.11}";
type = Stem;
},
{
place = "{449.76, 116.34}";
type = Stem;
}
);
layerId = "79248770-D821-459F-BACB-A514C4DCB9B2";
paths = (
{
closed = 1;
nodes = (
"219 -50 OFFCURVE",
"475 -30 OFFCURVE",
"556 255 CURVE SMOOTH",
"616 467 OFFCURVE",
"401 629 OFFCURVE",
"167 570 CURVE SMOOTH",
"123 559 OFFCURVE",
"92 538 OFFCURVE",
"95 502 CURVE SMOOTH",
"99 454 OFFCURVE",
"148 458 OFFCURVE",
"265 460 CURVE SMOOTH",
"381 462 OFFCURVE",
"479 400 OFFCURVE",
"442 268 CURVE SMOOTH",
"402 127 OFFCURVE",
"242 51 OFFCURVE",
"107 104 CURVE SMOOTH",
"61 122 OFFCURVE",
"-3 149 OFFCURVE",
"-16 109 CURVE SMOOTH",
"-28 73 OFFCURVE",
"9 17 OFFCURVE",
"87 -8 CURVE SMOOTH"
);
}
);
width = 596;
}
);
note = uni05DB;
unicode = 05DB;
},
{
glyphname = "kafdagesh-hb";
lastChange = "2018-07-28 17:48:11 +0000";
layers = (
{
hints = (
{
horizontal = 1;
place = "{-24.7, 112.09}";
type = Stem;
},
{
horizontal = 1;
place = "{237, 75}";
type = Stem;
},
{
horizontal = 1;
place = "{460, 122.11}";
type = Stem;
},
{
place = "{184, 74}";
type = Stem;
},
{
place = "{449.76, 116.34}";
type = Stem;
}
);
layerId = "79248770-D821-459F-BACB-A514C4DCB9B2";
paths = (
{
closed = 1;
nodes = (
"219 -50 OFFCURVE",
"475 -30 OFFCURVE",
"556 255 CURVE SMOOTH",
"616 467 OFFCURVE",
"401 629 OFFCURVE",
"167 570 CURVE SMOOTH",
"123 559 OFFCURVE",
"92 538 OFFCURVE",
"95 502 CURVE SMOOTH",
"99 454 OFFCURVE",
"148 458 OFFCURVE",
"265 460 CURVE SMOOTH",
"381 462 OFFCURVE",
"479 400 OFFCURVE",
"442 268 CURVE SMOOTH",
"402 127 OFFCURVE",
"242 51 OFFCURVE",
"107 104 CURVE SMOOTH",
"61 122 OFFCURVE",
"-3 149 OFFCURVE",
"-16 109 CURVE SMOOTH",
"-28 73 OFFCURVE",
"9 17 OFFCURVE",
"87 -8 CURVE SMOOTH"
);
},
{
closed = 1;
nodes = (
"233 237 OFFCURVE",
"258 254 OFFCURVE",
"258 275 CURVE SMOOTH",
"258 295 OFFCURVE",
"246 312 OFFCURVE",
"221 312 CURVE SMOOTH",
"200 312 OFFCURVE",
"184 295 OFFCURVE",
"184 275 CURVE SMOOTH",
"184 254 OFFCURVE",
"190 237 OFFCURVE",
"213 237 CURVE SMOOTH"
);
}
);
width = 596;
}
);
note = uniFB3B;
unicode = FB3B;
},
{
color = 4;
glyphname = "lamed-hb";
lastChange = "2019-01-24 08:18:04 +0000";
layers = (
{
hints = (
{
horizontal = 1;
place = "{-13, 21}";
target = up;
type = BottomGhost;
},
{
horizontal = 1;
place = "{865, 97}";
type = Stem;
},
{
place = "{-44.23, 758.36}";
type = Stem;
}
);
layerId = "79248770-D821-459F-BACB-A514C4DCB9B2";
paths = (
{
closed = 1;
nodes = (
"633 945 OFFCURVE",
"569 964 OFFCURVE",
"519 962 CURVE SMOOTH",
"383 957 OFFCURVE",
"267 864 OFFCURVE",
"199 655 CURVE SMOOTH",
"149 502 OFFCURVE",
"113 351 OFFCURVE",
"93 234 CURVE",
"43 226 OFFCURVE",
"-32 196 OFFCURVE",
"-43 98 CURVE SMOOTH",
"-50 37 OFFCURVE",
"-27 -8 OFFCURVE",
"27 -13 CURVE SMOOTH",
"75 -17 OFFCURVE",
"159 -3 OFFCURVE",
"200 208 CURVE SMOOTH",
"241 419 OFFCURVE",
"325 871 OFFCURVE",
"536 865 CURVE SMOOTH",
"601 863 OFFCURVE",
"660 780 OFFCURVE",
"706 820 CURVE SMOOTH",
"722 834 OFFCURVE",
"717 876 OFFCURVE",
"672 913 CURVE SMOOTH"
);
}
);
width = 265;
}
);
note = uni05DC;
unicode = 05DC;
},
{
glyphname = "lameddagesh-hb";
lastChange = "2018-07-28 17:48:11 +0000";
layers = (
{
hints = (
{
horizontal = 1;
place = "{-13, 21}";
target = up;
type = BottomGhost;
},
{
horizontal = 1;
place = "{293, 75}";
type = Stem;
},
{
horizontal = 1;
place = "{865, 97}";
type = Stem;
},
{
place = "{-2, 74}";
type = Stem;
}
);
layerId = "79248770-D821-459F-BACB-A514C4DCB9B2";
paths = (
{
closed = 1;
nodes = (
"633 945 OFFCURVE",
"569 964 OFFCURVE",
"519 962 CURVE SMOOTH",
"383 957 OFFCURVE",
"267 864 OFFCURVE",
"199 655 CURVE SMOOTH",
"149 502 OFFCURVE",
"113 351 OFFCURVE",
"93 234 CURVE",
"43 226 OFFCURVE",
"-32 196 OFFCURVE",
"-43 98 CURVE SMOOTH",
"-50 37 OFFCURVE",
"-27 -8 OFFCURVE",
"27 -13 CURVE SMOOTH",
"75 -17 OFFCURVE",
"159 -3 OFFCURVE",
"200 208 CURVE SMOOTH",
"241 419 OFFCURVE",
"325 871 OFFCURVE",
"536 865 CURVE SMOOTH",
"601 863 OFFCURVE",
"660 780 OFFCURVE",
"706 820 CURVE SMOOTH",
"722 834 OFFCURVE",
"717 876 OFFCURVE",
"672 913 CURVE SMOOTH"
);
},
{
closed = 1;
nodes = (
"47 293 OFFCURVE",
"72 310 OFFCURVE",
"72 331 CURVE SMOOTH",
"72 351 OFFCURVE",
"60 368 OFFCURVE",
"35 368 CURVE SMOOTH",
"14 368 OFFCURVE",
"-2 351 OFFCURVE",
"-2 331 CURVE SMOOTH",
"-2 310 OFFCURVE",
"4 293 OFFCURVE",
"27 293 CURVE SMOOTH"
);
}
);
width = 265;
}
);
note = uniFB3C;
unicode = FB3C;
},
{
color = 4;
glyphname = "finalmem-hb";
lastChange = "2019-01-24 08:19:18 +0000";
layers = (
{
hints = (
{
horizontal = 1;
place = "{80, 111}";
type = Stem;
},
{
place = "{433, 107}";
type = Stem;
}
);
layerId = "79248770-D821-459F-BACB-A514C4DCB9B2";
paths = (
{
closed = 1;
nodes = (
"272 542 OFFCURVE",
"176 485 OFFCURVE",
"149 458 CURVE SMOOTH",
"128 437 OFFCURVE",
"118 406 OFFCURVE",
"123 381 CURVE",
"149 409 LINE",
"109 422 OFFCURVE",
"76 403 OFFCURVE",
"62 355 CURVE SMOOTH",
"21 213 OFFCURVE",
"-54 27 OFFCURVE",
"-54 -10 CURVE SMOOTH",
"-54 -52 OFFCURVE",
"-8 -69 OFFCURVE",
"24 -39 CURVE SMOOTH",
"45 -19 OFFCURVE",
"107 126 OFFCURVE",
"143 222 CURVE",
"183 159 OFFCURVE",
"252 80 OFFCURVE",
"344 80 CURVE SMOOTH",
"456 80 OFFCURVE",
"540 175 OFFCURVE",
"540 299 CURVE SMOOTH",
"540 435 OFFCURVE",
"443 521 OFFCURVE",
"371 530 CURVE SMOOTH"
);
},
{
closed = 1;
nodes = (
"432 243 OFFCURVE",
"393 186 OFFCURVE",
"348 191 CURVE SMOOTH",
"259 201 OFFCURVE",
"200 322 OFFCURVE",
"177 361 CURVE",
"159 336 LINE",
"210 364 OFFCURVE",
"286 429 OFFCURVE",
"348 425 CURVE SMOOTH",
"379 423 OFFCURVE",
"434 382 OFFCURVE",
"433 315 CURVE SMOOTH"
);
}
);
width = 568;
}
);
note = uni05DD;
unicode = 05DD;
},
{
color = 4;
glyphname = "mem-hb";
lastChange = "2019-01-24 08:18:04 +0000";
layers = (
{
hints = (
{
horizontal = 1;
place = "{-4.07, 21}";
target = up;
type = BottomGhost;
},
{
place = "{-49.43, 562.3}";
type = Stem;
},
{
place = "{129, 92}";
type = Stem;
},
{
horizontal = 1;
place = "{-7.13, 21}";
target = up;
type = BottomGhost;
}
);
layerId = "79248770-D821-459F-BACB-A514C4DCB9B2";
paths = (
{
closed = 1;
nodes = (
"447 640 OFFCURVE",
"418 617 OFFCURVE",
"394 573 CURVE SMOOTH",
"374 537 OFFCURVE",
"261 288 OFFCURVE",
"221 175 CURVE",
"220 194 OFFCURVE",
"218 216 OFFCURVE",
"215 242 CURVE SMOOTH",
"198 376 OFFCURVE",
"228 442 OFFCURVE",
"167 458 CURVE SMOOTH",
"133 467 OFFCURVE",
"117 438 OFFCURVE",
"86 363 CURVE SMOOTH",
"60 299 OFFCURVE",
"26 210 OFFCURVE",
"-12 136 CURVE SMOOTH",
"-50 62 OFFCURVE",
"-66 21 OFFCURVE",
"-27 1 CURVE SMOOTH",
"2 -14 OFFCURVE",
"27 6 OFFCURVE",
"50 36 CURVE SMOOTH",
"83 79 OFFCURVE",
"113 146 OFFCURVE",
"129 187 CURVE",
"130 173 OFFCURVE",
"132 156 OFFCURVE",
"136 135 CURVE SMOOTH",
"153 53 OFFCURVE",
"182 9 OFFCURVE",
"215 -4 CURVE SMOOTH",
"247 -17 OFFCURVE",
"283 7 OFFCURVE",
"303 64 CURVE SMOOTH",
"358 220 OFFCURVE",
"443 374 OFFCURVE",
"495 500 CURVE SMOOTH",
"519 558 OFFCURVE",
"523 601 OFFCURVE",
"482 622 CURVE SMOOTH"
);
}
);
width = 450;
}
);
note = uni05DE;
unicode = 05DE;
},
{
glyphname = "memdagesh-hb";
lastChange = "2018-07-28 17:48:11 +0000";
layers = (
{
hints = (
{
horizontal = 1;
place = "{-4.07, 21}";
target = up;
type = BottomGhost;
},
{
horizontal = 1;
place = "{410, 75}";
type = Stem;
},
{
place = "{238, 74}";
type = Stem;
},
{
place = "{129, 92}";
type = Stem;
},
{
horizontal = 1;
place = "{-7.13, 21}";
target = up;
type = BottomGhost;
}
);
layerId = "79248770-D821-459F-BACB-A514C4DCB9B2";
paths = (
{
closed = 1;
nodes = (
"447 640 OFFCURVE",
"418 617 OFFCURVE",
"394 573 CURVE SMOOTH",
"374 537 OFFCURVE",
"261 288 OFFCURVE",
"221 175 CURVE",
"220 194 OFFCURVE",
"218 216 OFFCURVE",
"215 242 CURVE SMOOTH",
"198 376 OFFCURVE",
"228 442 OFFCURVE",
"167 458 CURVE SMOOTH",
"133 467 OFFCURVE",
"117 438 OFFCURVE",
"86 363 CURVE SMOOTH",
"60 299 OFFCURVE",
"26 210 OFFCURVE",
"-12 136 CURVE SMOOTH",
"-50 62 OFFCURVE",
"-66 21 OFFCURVE",
"-27 1 CURVE SMOOTH",
"2 -14 OFFCURVE",
"27 6 OFFCURVE",
"50 36 CURVE SMOOTH",
"83 79 OFFCURVE",
"113 146 OFFCURVE",
"129 187 CURVE",
"130 173 OFFCURVE",
"132 156 OFFCURVE",
"136 135 CURVE SMOOTH",
"153 53 OFFCURVE",
"182 9 OFFCURVE",
"215 -4 CURVE SMOOTH",
"247 -17 OFFCURVE",
"283 7 OFFCURVE",
"303 64 CURVE SMOOTH",
"358 220 OFFCURVE",
"443 374 OFFCURVE",
"495 500 CURVE SMOOTH",
"519 558 OFFCURVE",
"523 601 OFFCURVE",
"482 622 CURVE SMOOTH"
);
},
{
closed = 1;
nodes = (
"287 410 OFFCURVE",
"312 427 OFFCURVE",
"312 448 CURVE SMOOTH",
"312 468 OFFCURVE",
"300 485 OFFCURVE",
"275 485 CURVE SMOOTH",
"254 485 OFFCURVE",
"238 468 OFFCURVE",
"238 448 CURVE SMOOTH",
"238 427 OFFCURVE",
"244 410 OFFCURVE",
"267 410 CURVE SMOOTH"
);
}
);
width = 450;
}
);
note = uniFB3E;
unicode = FB3E;
},
{
color = 4;
glyphname = "finalnun-hb";
lastChange = "2019-01-24 08:18:04 +0000";
layers = (
{
hints = (
{
horizontal = 1;
place = "{-356.77, 990.85}";
type = Stem;
},
{
place = "{-173.25, 435.75}";
type = Stem;
}
);
layerId = "79248770-D821-459F-BACB-A514C4DCB9B2";
paths = (
{
closed = 1;
nodes = (
"-122 -366 OFFCURVE",
"-103 -341 OFFCURVE",
"-69 -287 CURVE SMOOTH",
"-35 -232 OFFCURVE",
"134 151 OFFCURVE",
"243 480 CURVE SMOOTH",
"267 551 OFFCURVE",
"275 619 OFFCURVE",
"231 632 CURVE SMOOTH",
"166 652 OFFCURVE",
"125 524 OFFCURVE",
"114 482 CURVE SMOOTH",
"57 269 OFFCURVE",
"-105 -152 OFFCURVE",
"-141 -206 CURVE SMOOTH",
"-181 -266 OFFCURVE",
"-183 -342 OFFCURVE",
"-153 -354 CURVE SMOOTH"
);
}
);
width = 220;
}
);
note = uni05DF;
unicode = 05DF;
},
{
color = 4;
glyphname = "nun-hb";
lastChange = "2019-01-24 08:18:04 +0000";
layers = (
{
hints = (
{
horizontal = 1;
place = "{562.36, -20}";
target = down;
type = TopGhost;
},
{
place = "{-479, 711.77}";
type = Stem;
}
);
layerId = "79248770-D821-459F-BACB-A514C4DCB9B2";
paths = (
{
closed = 1;
nodes = (
"36 -348 OFFCURVE",
"170 207 OFFCURVE",
"204 370 CURVE SMOOTH",
"220 448 OFFCURVE",
"261 538 OFFCURVE",
"202 558 CURVE SMOOTH",
"142 579 OFFCURVE",
"108 522 OFFCURVE",
"97 455 CURVE SMOOTH",
"-13 -197 OFFCURVE",
"-252 -213 OFFCURVE",
"-380 -204 CURVE SMOOTH",
"-418 -201 OFFCURVE",
"-475 -197 OFFCURVE",
"-479 -232 CURVE SMOOTH",
"-484 -278 OFFCURVE",
"-437 -312 OFFCURVE",
"-345 -319 CURVE SMOOTH"
);
}
);
width = 236;
}
);
note = uni05E0;
unicode = 05E0;
},
{
glyphname = "nundagesh-hb";
lastChange = "2018-07-28 17:48:11 +0000";
layers = (
{
hints = (
{
horizontal = 1;
place = "{237, 75}";
type = Stem;
},
{
horizontal = 1;
place = "{562.36, -20}";
target = down;
type = TopGhost;
},
{
place = "{-49, 74}";
type = Stem;
}
);
layerId = "79248770-D821-459F-BACB-A514C4DCB9B2";
paths = (
{
closed = 1;
nodes = (
"36 -348 OFFCURVE",
"170 207 OFFCURVE",
"204 370 CURVE SMOOTH",
"220 448 OFFCURVE",
"261 538 OFFCURVE",
"202 558 CURVE SMOOTH",
"142 579 OFFCURVE",
"108 522 OFFCURVE",
"97 455 CURVE SMOOTH",
"-13 -197 OFFCURVE",
"-252 -213 OFFCURVE",
"-380 -204 CURVE SMOOTH",
"-418 -201 OFFCURVE",
"-475 -197 OFFCURVE",
"-479 -232 CURVE SMOOTH",
"-484 -278 OFFCURVE",
"-437 -312 OFFCURVE",
"-345 -319 CURVE SMOOTH"
);
},
{
closed = 1;
nodes = (
"0 237 OFFCURVE",
"25 254 OFFCURVE",
"25 275 CURVE SMOOTH",
"25 295 OFFCURVE",
"13 312 OFFCURVE",
"-12 312 CURVE SMOOTH",
"-33 312 OFFCURVE",
"-49 295 OFFCURVE",
"-49 275 CURVE SMOOTH",
"-49 254 OFFCURVE",
"-43 237 OFFCURVE",
"-20 237 CURVE SMOOTH"
);
}
);
width = 236;
}
);
note = uniFB40;
unicode = FB40;
},
{
color = 4;
glyphname = "samekh-hb";
lastChange = "2019-01-24 08:18:04 +0000";
layers = (
{
hints = (
{
horizontal = 1;
place = "{562, -20}";
target = down;
type = TopGhost;
},
{
place = "{22, 517.59}";
type = Stem;
},
{
horizontal = 1;
place = "{463, 101.18}";
type = Stem;
}
);
layerId = "79248770-D821-459F-BACB-A514C4DCB9B2";
paths = (
{
closed = 1;
nodes = (
"329 568 OFFCURVE",
"254 562 OFFCURVE",
"208 539 CURVE SMOOTH",
"176 523 OFFCURVE",
"159 503 OFFCURVE",
"167 467 CURVE",
"168 461 OFFCURVE",
"171 455 OFFCURVE",
"175 450 CURVE",
"119 428 OFFCURVE",
"38 371 OFFCURVE",
"24 231 CURVE SMOOTH",
"5 49 OFFCURVE",
"124 -14 OFFCURVE",
"216 -24 CURVE SMOOTH",
"342 -38 OFFCURVE",
"511 100 OFFCURVE",
"538 348 CURVE SMOOTH",
"553 487 OFFCURVE",
"462 553 OFFCURVE",
"381 562 CURVE SMOOTH"
);
},
{
closed = 1;
nodes = (
"420 281 OFFCURVE",
"353 69 OFFCURVE",
"213 85 CURVE SMOOTH",
"161 91 OFFCURVE",
"128 160 OFFCURVE",
"137 253 CURVE SMOOTH",
"146 349 OFFCURVE",
"253 386 OFFCURVE",
"257 421 CURVE SMOOTH",
"258 429 OFFCURVE",
"258 435 OFFCURVE",
"257 440 CURVE",
"293 451 OFFCURVE",
"339 466 OFFCURVE",
"364 463 CURVE SMOOTH",
"396 460 OFFCURVE",
"436 426 OFFCURVE",
"429 362 CURVE SMOOTH"
);
}
);
width = 566;
}
);
note = uni05E1;
unicode = 05E1;
},
{
glyphname = "samekhdagesh-hb";
lastChange = "2018-07-28 17:48:11 +0000";
layers = (
{
hints = (
{
horizontal = 1;
place = "{237, 75}";
type = Stem;
},
{
horizontal = 1;
place = "{562, -20}";
target = down;
type = TopGhost;
},
{
place = "{247, 74}";
type = Stem;
},
{
horizontal = 1;
place = "{463, 101.18}";
type = Stem;
}
);
layerId = "79248770-D821-459F-BACB-A514C4DCB9B2";
paths = (
{
closed = 1;
nodes = (
"329 568 OFFCURVE",
"254 562 OFFCURVE",
"208 539 CURVE SMOOTH",
"176 523 OFFCURVE",
"159 503 OFFCURVE",
"167 467 CURVE",
"168 461 OFFCURVE",
"171 455 OFFCURVE",
"175 450 CURVE",
"119 428 OFFCURVE",
"38 371 OFFCURVE",
"24 231 CURVE SMOOTH",
"5 49 OFFCURVE",
"124 -14 OFFCURVE",
"216 -24 CURVE SMOOTH",
"342 -38 OFFCURVE",
"511 100 OFFCURVE",
"538 348 CURVE SMOOTH",
"553 487 OFFCURVE",
"462 553 OFFCURVE",
"381 562 CURVE SMOOTH"
);
},
{
closed = 1;
nodes = (
"420 281 OFFCURVE",
"353 69 OFFCURVE",
"213 85 CURVE SMOOTH",
"161 91 OFFCURVE",
"128 160 OFFCURVE",
"137 253 CURVE SMOOTH",
"146 349 OFFCURVE",
"253 386 OFFCURVE",
"257 421 CURVE SMOOTH",
"258 429 OFFCURVE",
"258 435 OFFCURVE",
"257 440 CURVE",
"293 451 OFFCURVE",
"339 466 OFFCURVE",
"364 463 CURVE SMOOTH",
"396 460 OFFCURVE",
"436 426 OFFCURVE",
"429 362 CURVE SMOOTH"
);
},
{
closed = 1;
nodes = (
"263 312 OFFCURVE",
"247 295 OFFCURVE",
"247 275 CURVE SMOOTH",
"247 254 OFFCURVE",
"253 237 OFFCURVE",
"276 237 CURVE SMOOTH",
"296 237 OFFCURVE",
"321 254 OFFCURVE",
"321 275 CURVE SMOOTH",
"321 295 OFFCURVE",
"309 312 OFFCURVE",
"284 312 CURVE SMOOTH"
);
}
);
width = 566;
}
);
note = uniFB41;
unicode = FB41;
},
{
color = 4;
glyphname = "ayin-hb";
lastChange = "2019-01-24 08:18:04 +0000";
layers = (
{
hints = (
{
horizontal = 1;
place = "{-100.24, 101.86}";
type = Stem;
},
{
horizontal = 1;
place = "{553, -20}";
target = down;
type = TopGhost;
},
{
place = "{-7.88, 113.24}";
type = Stem;
},
{
place = "{284.63, 115.6}";
type = Stem;
}
);
layerId = "79248770-D821-459F-BACB-A514C4DCB9B2";
paths = (
{
closed = 1;
nodes = (
"568 540 OFFCURVE",
"537 555 OFFCURVE",
"486 553 CURVE SMOOTH",
"440 551 OFFCURVE",
"393 543 OFFCURVE",
"348 529 CURVE",
"327 601 OFFCURVE",
"307 658 OFFCURVE",
"298 682 CURVE SMOOTH",
"264 774 OFFCURVE",
"218 756 OFFCURVE",
"191 747 CURVE SMOOTH",
"117 720 OFFCURVE",
"192 602 OFFCURVE",
"230 497 CURVE SMOOTH",
"236 481 LINE",
"62 385 OFFCURVE",
"-57 205 OFFCURVE",
"12 19 CURVE SMOOTH",
"54 -94 OFFCURVE",
"168 -118 OFFCURVE",
"249 -89 CURVE SMOOTH",
"425 -25 OFFCURVE",
"417 214 OFFCURVE",
"376 411 CURVE",
"416 425 OFFCURVE",
"456 436 OFFCURVE",
"494 441 CURVE SMOOTH",
"544 448 OFFCURVE",
"597 466 OFFCURVE",
"579 512 CURVE SMOOTH"
);
},
{
closed = 1;
nodes = (
"160 -8 OFFCURVE",
"135 11 OFFCURVE",
"118 58 CURVE SMOOTH",
"73 181 OFFCURVE",
"154 290 OFFCURVE",
"270 360 CURVE",
"319 125 OFFCURVE",
"234 19 OFFCURVE",
"200 6 CURVE SMOOTH"
);
}
);
width = 518;
}
);
note = uni05E2;
unicode = 05E2;
},
{
color = 4;
glyphname = "finalpe-hb";
lastChange = "2019-01-24 08:18:04 +0000";
layers = (
{
hints = (
{
horizontal = 1;
place = "{-13, 21}";
target = up;
type = BottomGhost;
},
{
horizontal = 1;
place = "{887, 115}";
type = Stem;
},
{
place = "{618.42, 111.58}";
type = Stem;
}
);
layerId = "79248770-D821-459F-BACB-A514C4DCB9B2";
paths = (
{
closed = 1;
nodes = (
"431 997 OFFCURVE",
"317 908 OFFCURVE",
"249 709 CURVE",
"105 661 OFFCURVE",
"-26 583 OFFCURVE",
"-67 472 CURVE SMOOTH",
"-82 431 OFFCURVE",
"-65 385 OFFCURVE",
"-35 377 CURVE SMOOTH",
"8 366 OFFCURVE",
"33 420 OFFCURVE",
"57 453 CURVE SMOOTH",
"89 497 OFFCURVE",
"135 540 OFFCURVE",
"209 576 CURVE",
"176 455 OFFCURVE",
"152 331 OFFCURVE",
"136 234 CURVE",
"87 225 OFFCURVE",
"13 195 OFFCURVE",
"2 98 CURVE SMOOTH",
"-5 37 OFFCURVE",
"18 -8 OFFCURVE",
"72 -13 CURVE SMOOTH",
"120 -17 OFFCURVE",
"211 -3 OFFCURVE",
"245 208 CURVE SMOOTH",
"265 329 OFFCURVE",
"296 492 OFFCURVE",
"344 628 CURVE",
"369 635 OFFCURVE",
"396 642 OFFCURVE",
"425 648 CURVE SMOOTH",
"605 687 OFFCURVE",
"719 734 OFFCURVE",
"730 851 CURVE SMOOTH",
"739 947 OFFCURVE",
"692 1007 OFFCURVE",
"564 1002 CURVE SMOOTH"
);
},
{
closed = 1;
nodes = (
"396 748 LINE",
"441 831 OFFCURVE",
"496 887 OFFCURVE",
"564 887 CURVE SMOOTH",
"675 887 OFFCURVE",
"613 788 OFFCURVE",
"413 751 CURVE SMOOTH"
);
}
);
width = 309;
}
);
note = uni05E3;
unicode = 05E3;
},
{
glyphname = "finalpedagesh-hb";
lastChange = "2018-07-28 17:48:11 +0000";
layers = (
{
hints = (
{
horizontal = 1;
place = "{-13, 21}";
target = up;
type = BottomGhost;
},
{
horizontal = 1;
place = "{278, 75}";
type = Stem;
},
{
horizontal = 1;
place = "{887, 115}";
type = Stem;
},
{
place = "{24, 74}";
type = Stem;
},
{
place = "{618.42, 111.58}";
type = Stem;
}
);
layerId = "79248770-D821-459F-BACB-A514C4DCB9B2";
paths = (
{
closed = 1;
nodes = (
"431 997 OFFCURVE",
"317 908 OFFCURVE",
"249 709 CURVE",
"105 661 OFFCURVE",
"-26 583 OFFCURVE",
"-67 472 CURVE SMOOTH",
"-82 431 OFFCURVE",
"-65 385 OFFCURVE",
"-35 377 CURVE SMOOTH",
"8 366 OFFCURVE",
"33 420 OFFCURVE",
"57 453 CURVE SMOOTH",
"89 497 OFFCURVE",
"135 540 OFFCURVE",
"209 576 CURVE",
"176 455 OFFCURVE",
"152 331 OFFCURVE",
"136 234 CURVE",
"87 225 OFFCURVE",
"13 195 OFFCURVE",
"2 98 CURVE SMOOTH",
"-5 37 OFFCURVE",
"18 -8 OFFCURVE",
"72 -13 CURVE SMOOTH",
"120 -17 OFFCURVE",
"211 -3 OFFCURVE",
"245 208 CURVE SMOOTH",
"265 329 OFFCURVE",
"296 492 OFFCURVE",
"344 628 CURVE",
"369 635 OFFCURVE",
"396 642 OFFCURVE",
"425 648 CURVE SMOOTH",
"605 687 OFFCURVE",
"719 734 OFFCURVE",
"730 851 CURVE SMOOTH",
"739 947 OFFCURVE",
"692 1007 OFFCURVE",
"564 1002 CURVE SMOOTH"
);
},
{
closed = 1;
nodes = (
"396 748 LINE",
"441 831 OFFCURVE",
"496 887 OFFCURVE",
"564 887 CURVE SMOOTH",
"675 887 OFFCURVE",
"613 788 OFFCURVE",
"413 751 CURVE SMOOTH"
);
},
{
closed = 1;
nodes = (
"98 336 OFFCURVE",
"86 353 OFFCURVE",
"61 353 CURVE SMOOTH",
"40 353 OFFCURVE",
"24 336 OFFCURVE",
"24 316 CURVE SMOOTH",
"24 295 OFFCURVE",
"30 278 OFFCURVE",
"53 278 CURVE SMOOTH",
"73 278 OFFCURVE",
"98 295 OFFCURVE",
"98 316 CURVE SMOOTH"
);
}
);
width = 309;
}
);
note = uniFB43;
unicode = FB43;
},
{
color = 4;
glyphname = "pe-hb";
lastChange = "2019-01-24 08:18:04 +0000";
layers = (
{
hints = (
{
horizontal = 1;
place = "{-56, 113}";
type = Stem;
},
{
horizontal = 1;
place = "{286.83, 104.61}";
type = Stem;
},
{
horizontal = 1;
place = "{553.05, 107.95}";
type = Stem;
},
{
place = "{-4, 107}";
type = Stem;
},
{
place = "{186, 175.15}";
type = Stem;
},
{
place = "{501, 114}";
type = Stem;
}
);
layerId = "79248770-D821-459F-BACB-A514C4DCB9B2";
paths = (
{
closed = 1;
nodes = (
"384 -56 OFFCURVE",
"596 131 OFFCURVE",
"615 359 CURVE SMOOTH",
"627 507 OFFCURVE",
"548 663 OFFCURVE",
"379 661 CURVE SMOOTH",
"281 660 OFFCURVE",
"197 640 OFFCURVE",
"133 594 CURVE SMOOTH",
"76 553 OFFCURVE",
"60 507 OFFCURVE",
"83 483 CURVE SMOOTH",
"103 462 OFFCURVE",
"139 468 OFFCURVE",
"174 492 CURVE SMOOTH",
"240 536 OFFCURVE",
"328 563 OFFCURVE",
"396 550 CURVE SMOOTH",
"455 539 OFFCURVE",
"501 492 OFFCURVE",
"501 395 CURVE SMOOTH",
"501 170 OFFCURVE",
"286 57 OFFCURVE",
"192 57 CURVE SMOOTH",
"135 57 OFFCURVE",
"103 84 OFFCURVE",
"103 127 CURVE SMOOTH",
"103 239 OFFCURVE",
"216 306 OFFCURVE",
"240 282 CURVE SMOOTH",
"268 254 OFFCURVE",
"160 163 OFFCURVE",
"192 136 CURVE SMOOTH",
"244 92 OFFCURVE",
"348 198 OFFCURVE",
"358 244 CURVE SMOOTH",
"380 343 OFFCURVE",
"289 405 OFFCURVE",
"198 389 CURVE SMOOTH",
"108 373 OFFCURVE",
"-4 261 OFFCURVE",
"-4 137 CURVE SMOOTH",
"-4 -10 OFFCURVE",
"92 -56 OFFCURVE",
"192 -56 CURVE SMOOTH"
);
}
);
width = 624;
}
);
note = uni05E4;
unicode = 05E4;
},
{
glyphname = "pedagesh-hb";
lastChange = "2018-07-28 17:48:11 +0000";
layers = (
{
hints = (
{
horizontal = 1;
place = "{-56, 113}";
type = Stem;
},
{
horizontal = 1;
place = "{286.83, 104.61}";
type = Stem;
},
{
horizontal = 1;
place = "{553.05, 107.95}";
type = Stem;
},
{
place = "{-4, 107}";
type = Stem;
},
{
place = "{186, 175.15}";
type = Stem;
},
{
place = "{501, 114}";
type = Stem;
},
{
horizontal = 1;
place = "{407, 75}";
type = Stem;
},
{
place = "{344, 74}";
type = Stem;
}
);
layerId = "79248770-D821-459F-BACB-A514C4DCB9B2";
paths = (
{
closed = 1;
nodes = (
"384 -56 OFFCURVE",
"596 131 OFFCURVE",
"615 359 CURVE SMOOTH",
"627 507 OFFCURVE",
"548 663 OFFCURVE",
"379 661 CURVE SMOOTH",
"281 660 OFFCURVE",
"197 640 OFFCURVE",
"133 594 CURVE SMOOTH",
"76 553 OFFCURVE",
"60 507 OFFCURVE",
"83 483 CURVE SMOOTH",
"103 462 OFFCURVE",
"139 468 OFFCURVE",
"174 492 CURVE SMOOTH",
"240 536 OFFCURVE",
"328 563 OFFCURVE",
"396 550 CURVE SMOOTH",
"455 539 OFFCURVE",
"501 492 OFFCURVE",
"501 395 CURVE SMOOTH",
"501 170 OFFCURVE",
"286 57 OFFCURVE",
"192 57 CURVE SMOOTH",
"135 57 OFFCURVE",
"103 84 OFFCURVE",
"103 127 CURVE SMOOTH",
"103 239 OFFCURVE",
"216 306 OFFCURVE",
"240 282 CURVE SMOOTH",
"268 254 OFFCURVE",
"160 163 OFFCURVE",
"192 136 CURVE SMOOTH",
"244 92 OFFCURVE",
"348 198 OFFCURVE",
"358 244 CURVE SMOOTH",
"380 343 OFFCURVE",
"289 405 OFFCURVE",
"198 389 CURVE SMOOTH",
"108 373 OFFCURVE",
"-4 261 OFFCURVE",
"-4 137 CURVE SMOOTH",
"-4 -10 OFFCURVE",
"92 -56 OFFCURVE",
"192 -56 CURVE SMOOTH"
);
},
{
closed = 1;
nodes = (
"393 407 OFFCURVE",
"418 424 OFFCURVE",
"418 445 CURVE SMOOTH",
"418 465 OFFCURVE",
"406 482 OFFCURVE",
"381 482 CURVE SMOOTH",
"360 482 OFFCURVE",
"344 465 OFFCURVE",
"344 445 CURVE SMOOTH",
"344 424 OFFCURVE",
"350 407 OFFCURVE",
"373 407 CURVE SMOOTH"
);
}
);
width = 624;
}
);
note = uniFB44;
unicode = FB44;
},
{
color = 4;
glyphname = "finaltsadi-hb";
lastChange = "2019-01-24 08:18:04 +0000";
layers = (
{
hints = (
{
horizontal = 1;
place = "{-13, 21}";
target = up;
type = BottomGhost;
},
{
horizontal = 1;
place = "{917, 115}";
type = Stem;
},
{
place = "{-0.06, 104.06}";
type = Stem;
},
{
place = "{578, 107}";
type = Stem;
}
);
layerId = "79248770-D821-459F-BACB-A514C4DCB9B2";
paths = (
{
closed = 1;
nodes = (
"389 1027 OFFCURVE",
"278 942 OFFCURVE",
"209 753 CURVE",
"137 777 OFFCURVE",
"104 846 OFFCURVE",
"104 950 CURVE SMOOTH",
"104 993 OFFCURVE",
"95 1020 OFFCURVE",
"64 1020 CURVE SMOOTH",
"20 1020 OFFCURVE",
"7 962 OFFCURVE",
"2 920 CURVE SMOOTH",
"-7 842 OFFCURVE",
"7 679 OFFCURVE",
"174 641 CURVE",
"136 502 OFFCURVE",
"108 348 OFFCURVE",
"91 234 CURVE",
"41 225 OFFCURVE",
"-32 195 OFFCURVE",
"-43 98 CURVE SMOOTH",
"-50 37 OFFCURVE",
"-27 -8 OFFCURVE",
"27 -13 CURVE SMOOTH",
"75 -17 OFFCURVE",
"159 -3 OFFCURVE",
"200 208 CURVE SMOOTH",
"220 312 OFFCURVE",
"253 487 OFFCURVE",
"303 637 CURVE",
"324 639 OFFCURVE",
"346 643 OFFCURVE",
"370 648 CURVE SMOOTH",
"550 687 OFFCURVE",
"674 774 OFFCURVE",
"685 891 CURVE SMOOTH",
"694 987 OFFCURVE",
"647 1037 OFFCURVE",
"519 1032 CURVE SMOOTH"
);
},
{
closed = 1;
nodes = (
"374 757 OFFCURVE",
"360 754 OFFCURVE",
"347 751 CURVE",
"393 848 OFFCURVE",
"449 917 OFFCURVE",
"519 917 CURVE SMOOTH",
"630 917 OFFCURVE",
"584 817 OFFCURVE",
"388 761 CURVE SMOOTH"
);
}
);
width = 265;
}
);
note = uni05E5;
unicode = 05E5;
},
{
color = 4;
glyphname = "tsadi-hb";
lastChange = "2019-01-24 08:18:04 +0000";
layers = (
{
hints = (
{
horizontal = 1;
place = "{-40.88, 136.15}";
type = Stem;
},
{
horizontal = 1;
place = "{582.17, 120.83}";
type = Stem;
},
{
place = "{436, 100.38}";
type = Stem;
}
);
layerId = "79248770-D821-459F-BACB-A514C4DCB9B2";
paths = (
{
closed = 1;
nodes = (
"554 631 OFFCURVE",
"456 709 OFFCURVE",
"341 703 CURVE SMOOTH",
"226 697 OFFCURVE",
"73 669 OFFCURVE",
"73 591 CURVE SMOOTH",
"73 559 OFFCURVE",
"102 538 OFFCURVE",
"183 564 CURVE SMOOTH",
"265 589 OFFCURVE",
"431 597 OFFCURVE",
"436 535 CURVE SMOOTH",
"440 473 OFFCURVE",
"277 395 OFFCURVE",
"238 393 CURVE SMOOTH",
"198 391 OFFCURVE",
"164 378 OFFCURVE",
"158 343 CURVE SMOOTH",
"151 309 OFFCURVE",
"168 287 OFFCURVE",
"246 291 CURVE SMOOTH",
"322 295 OFFCURVE",
"385 262 OFFCURVE",
"374 203 CURVE SMOOTH",
"363 146 OFFCURVE",
"283 82 OFFCURVE",
"134 76 CURVE SMOOTH",
"55 72 OFFCURVE",
"14 117 OFFCURVE",
"-27 82 CURVE SMOOTH",
"-68 47 OFFCURVE",
"-40 -4 OFFCURVE",
"10 -25 CURVE SMOOTH",
"29 -33 OFFCURVE",
"71 -47 OFFCURVE",
"164 -38 CURVE SMOOTH",
"313 -24 OFFCURVE",
"455 36 OFFCURVE",
"487 198 CURVE SMOOTH",
"495 245 OFFCURVE",
"467 331 OFFCURVE",
"402 358 CURVE",
"448 381 OFFCURVE",
"517 440 OFFCURVE",
"534 525 CURVE SMOOTH"
);
}
);
width = 536;
}
);
note = uni05E6;
unicode = 05E6;
},
{
glyphname = "tsadidagesh-hb";
lastChange = "2018-07-28 17:48:11 +0000";
layers = (
{
hints = (
{
horizontal = 1;
place = "{-40.88, 136.15}";
type = Stem;
},
{
horizontal = 1;
place = "{143, 75}";
type = Stem;
},
{
horizontal = 1;
place = "{582.17, 120.83}";
type = Stem;
},
{
place = "{142, 74}";
type = Stem;
},
{
place = "{436, 100.38}";
type = Stem;
}
);
layerId = "79248770-D821-459F-BACB-A514C4DCB9B2";
paths = (
{
closed = 1;
nodes = (
"554 631 OFFCURVE",
"456 709 OFFCURVE",
"341 703 CURVE SMOOTH",
"226 697 OFFCURVE",
"73 669 OFFCURVE",
"73 591 CURVE SMOOTH",
"73 559 OFFCURVE",
"102 538 OFFCURVE",
"183 564 CURVE SMOOTH",
"265 589 OFFCURVE",
"431 597 OFFCURVE",
"436 535 CURVE SMOOTH",
"440 473 OFFCURVE",
"277 395 OFFCURVE",
"238 393 CURVE SMOOTH",
"198 391 OFFCURVE",
"164 378 OFFCURVE",
"158 343 CURVE SMOOTH",
"151 309 OFFCURVE",
"168 287 OFFCURVE",
"246 291 CURVE SMOOTH",
"322 295 OFFCURVE",
"385 262 OFFCURVE",
"374 203 CURVE SMOOTH",
"363 146 OFFCURVE",
"283 82 OFFCURVE",
"134 76 CURVE SMOOTH",
"55 72 OFFCURVE",
"14 117 OFFCURVE",
"-27 82 CURVE SMOOTH",
"-68 47 OFFCURVE",
"-40 -4 OFFCURVE",
"10 -25 CURVE SMOOTH",
"29 -33 OFFCURVE",
"71 -47 OFFCURVE",
"164 -38 CURVE SMOOTH",
"313 -24 OFFCURVE",
"455 36 OFFCURVE",
"487 198 CURVE SMOOTH",
"495 245 OFFCURVE",
"467 331 OFFCURVE",
"402 358 CURVE",
"448 381 OFFCURVE",
"517 440 OFFCURVE",
"534 525 CURVE SMOOTH"
);
},
{
closed = 1;
nodes = (
"216 201 OFFCURVE",
"204 218 OFFCURVE",
"179 218 CURVE SMOOTH",
"158 218 OFFCURVE",
"142 201 OFFCURVE",
"142 181 CURVE SMOOTH",
"142 160 OFFCURVE",
"148 143 OFFCURVE",
"171 143 CURVE SMOOTH",
"191 143 OFFCURVE",
"216 160 OFFCURVE",
"216 181 CURVE SMOOTH"
);
}
);
width = 536;
}
);
note = uniFB46;
unicode = FB46;
},
{
color = 4;
glyphname = "qof-hb";
lastChange = "2019-01-24 08:18:04 +0000";
layers = (
{
hints = (
{
horizontal = 1;
place = "{488.92, 111.89}";
type = Stem;
},
{
place = "{414.97, 110.54}";
type = Stem;
}
);
layerId = "79248770-D821-459F-BACB-A514C4DCB9B2";
paths = (
{
closed = 1;
nodes = (
"302 50 OFFCURVE",
"356 70 OFFCURVE",
"429 145 CURVE SMOOTH",
"531 249 OFFCURVE",
"558 430 OFFCURVE",
"482 528 CURVE SMOOTH",
"452 567 OFFCURVE",
"387 615 OFFCURVE",
"254 597 CURVE SMOOTH",
"131 580 OFFCURVE",
"54 532 OFFCURVE",
"88 480 CURVE SMOOTH",
"121 429 OFFCURVE",
"152 465 OFFCURVE",
"217 476 CURVE SMOOTH",
"263 484 OFFCURVE",
"349 505 OFFCURVE",
"383 468 CURVE SMOOTH",
"447 400 OFFCURVE",
"413 262 OFFCURVE",
"304 177 CURVE SMOOTH",
"264 146 OFFCURVE",
"244 103 OFFCURVE",
"280 70 CURVE SMOOTH"
);
},
{
closed = 1;
nodes = (
"-52 -259 OFFCURVE",
"-17 -244 OFFCURVE",
"19 -189 CURVE SMOOTH",
"48 -145 OFFCURVE",
"181 198 OFFCURVE",
"203 255 CURVE SMOOTH",
"225 311 OFFCURVE",
"207 342 OFFCURVE",
"181 354 CURVE SMOOTH",
"146 370 OFFCURVE",
"116 349 OFFCURVE",
"99 305 CURVE SMOOTH",
"53 187 OFFCURVE",
"-28 -43 OFFCURVE",
"-80 -147 CURVE SMOOTH",
"-94 -175 OFFCURVE",
"-108 -222 OFFCURVE",
"-82 -239 CURVE SMOOTH"
);
}
);
width = 536;
}
);
note = uni05E7;
unicode = 05E7;
},
{
glyphname = "qofdagesh-hb";
lastChange = "2018-07-28 17:48:11 +0000";
layers = (
{
hints = (
{
horizontal = 1;
place = "{324, 75}";
type = Stem;
},
{
horizontal = 1;
place = "{488.92, 111.89}";
type = Stem;
},
{
place = "{279, 74}";
type = Stem;
},
{
place = "{414.97, 110.54}";
type = Stem;
}
);
layerId = "79248770-D821-459F-BACB-A514C4DCB9B2";
paths = (
{
closed = 1;
nodes = (
"302 50 OFFCURVE",
"356 70 OFFCURVE",
"429 145 CURVE SMOOTH",
"531 249 OFFCURVE",
"558 430 OFFCURVE",
"482 528 CURVE SMOOTH",
"452 567 OFFCURVE",
"387 615 OFFCURVE",
"254 597 CURVE SMOOTH",
"131 580 OFFCURVE",
"54 532 OFFCURVE",
"88 480 CURVE SMOOTH",
"121 429 OFFCURVE",
"152 465 OFFCURVE",
"217 476 CURVE SMOOTH",
"263 484 OFFCURVE",
"349 505 OFFCURVE",
"383 468 CURVE SMOOTH",
"447 400 OFFCURVE",
"413 262 OFFCURVE",
"304 177 CURVE SMOOTH",
"264 146 OFFCURVE",
"244 103 OFFCURVE",
"280 70 CURVE SMOOTH"
);
},
{
closed = 1;
nodes = (
"328 324 OFFCURVE",
"353 341 OFFCURVE",
"353 362 CURVE SMOOTH",
"353 382 OFFCURVE",
"341 399 OFFCURVE",
"316 399 CURVE SMOOTH",
"295 399 OFFCURVE",
"279 382 OFFCURVE",
"279 362 CURVE SMOOTH",
"279 341 OFFCURVE",
"285 324 OFFCURVE",
"308 324 CURVE SMOOTH"
);
},
{
closed = 1;
nodes = (
"-52 -259 OFFCURVE",
"-17 -244 OFFCURVE",
"19 -189 CURVE SMOOTH",
"48 -145 OFFCURVE",
"181 198 OFFCURVE",
"203 255 CURVE SMOOTH",
"225 311 OFFCURVE",
"207 342 OFFCURVE",
"181 354 CURVE SMOOTH",
"146 370 OFFCURVE",
"116 349 OFFCURVE",
"99 305 CURVE SMOOTH",
"53 187 OFFCURVE",
"-28 -43 OFFCURVE",
"-80 -147 CURVE SMOOTH",
"-94 -175 OFFCURVE",
"-108 -222 OFFCURVE",
"-82 -239 CURVE SMOOTH"
);
}
);
width = 536;
}
);
note = uniFB47;
unicode = FB47;
},
{
color = 4;
glyphname = "resh-hb";
lastChange = "2019-01-24 08:18:04 +0000";
layers = (
{
hints = (
{
horizontal = 1;
place = "{477.04, 117.22}";
type = Stem;
},
{
place = "{393, 118.83}";
type = Stem;
}
);
layerId = "79248770-D821-459F-BACB-A514C4DCB9B2";
paths = (
{
closed = 1;
nodes = (
"262 -45 OFFCURVE",
"355 -28 OFFCURVE",
"442 111 CURVE SMOOTH",
"539 266 OFFCURVE",
"567 559 OFFCURVE",
"313 592 CURVE SMOOTH",
"198 607 OFFCURVE",
"60 547 OFFCURVE",
"80 481 CURVE SMOOTH",
"91 445 OFFCURVE",
"133 433 OFFCURVE",
"201 461 CURVE SMOOTH",
"283 495 OFFCURVE",
"393 482 OFFCURVE",
"393 354 CURVE SMOOTH",
"393 252 OFFCURVE",
"333 107 OFFCURVE",
"262 56 CURVE SMOOTH",
"222 27 OFFCURVE",
"216 -11 OFFCURVE",
"243 -31 CURVE SMOOTH"
);
}
);
width = 547;
}
);
note = uni05E8;
unicode = 05E8;
},
{
glyphname = "reshdagesh-hb";
lastChange = "2018-07-28 17:48:11 +0000";
layers = (
{
hints = (
{
horizontal = 1;
place = "{257, 75}";
type = Stem;
},
{
horizontal = 1;
place = "{477.04, 117.22}";
type = Stem;
},
{
place = "{208, 74}";
type = Stem;
},
{
place = "{393, 118.83}";
type = Stem;
}
);
layerId = "79248770-D821-459F-BACB-A514C4DCB9B2";
paths = (
{
closed = 1;
nodes = (
"262 -45 OFFCURVE",
"355 -28 OFFCURVE",
"442 111 CURVE SMOOTH",
"539 266 OFFCURVE",
"567 559 OFFCURVE",
"313 592 CURVE SMOOTH",
"198 607 OFFCURVE",
"60 547 OFFCURVE",
"80 481 CURVE SMOOTH",
"91 445 OFFCURVE",
"133 433 OFFCURVE",
"201 461 CURVE SMOOTH",
"283 495 OFFCURVE",
"393 482 OFFCURVE",
"393 354 CURVE SMOOTH",
"393 252 OFFCURVE",
"333 107 OFFCURVE",
"262 56 CURVE SMOOTH",
"222 27 OFFCURVE",
"216 -11 OFFCURVE",
"243 -31 CURVE SMOOTH"
);
},
{
closed = 1;
nodes = (
"257 257 OFFCURVE",
"282 274 OFFCURVE",
"282 295 CURVE SMOOTH",
"282 315 OFFCURVE",
"270 332 OFFCURVE",
"245 332 CURVE SMOOTH",
"224 332 OFFCURVE",
"208 315 OFFCURVE",
"208 295 CURVE SMOOTH",
"208 274 OFFCURVE",
"214 257 OFFCURVE",
"237 257 CURVE SMOOTH"
);
}
);
width = 547;
}
);
note = uniFB48;
unicode = FB48;
},
{
color = 4;
glyphname = "shin-hb";
lastChange = "2019-01-28 13:32:44 +0000";
layers = (
{
hints = (
{
horizontal = 1;
place = "{-24.36, 105.04}";
type = Stem;
},
{
horizontal = 1;
place = "{594.66, 92.34}";
type = Stem;
},
{
place = "{-11.86, 55.86}";
type = Stem;
},
{
place = "{501.43, 99.85}";
type = Stem;
}
);
layerId = "79248770-D821-459F-BACB-A514C4DCB9B2";
paths = (
{
closed = 1;
nodes = (
"613 632 OFFCURVE",
"578 687 OFFCURVE",
"498 687 CURVE SMOOTH",
"374 687 OFFCURVE",
"117 586 OFFCURVE",
"40 258 CURVE SMOOTH",
"35 239 OFFCURVE",
"33 220 OFFCURVE",
"32 202 CURVE",
"-3 179 OFFCURVE",
"-18 152 OFFCURVE",
"-13 133 CURVE SMOOTH",
"-8 118 OFFCURVE",
"11 108 OFFCURVE",
"44 114 CURVE",
"68 44 OFFCURVE",
"129 -8 OFFCURVE",
"223 -22 CURVE SMOOTH",
"339 -40 OFFCURVE",
"457 37 OFFCURVE",
"513 174 CURVE SMOOTH",
"534 225 OFFCURVE",
"533 262 OFFCURVE",
"499 276 CURVE SMOOTH",
"461 292 OFFCURVE",
"432 260 OFFCURVE",
"411 215 CURVE SMOOTH",
"385 160 OFFCURVE",
"334 101 OFFCURVE",
"274 85 CURVE SMOOTH",
"215 69 OFFCURVE",
"167 88 OFFCURVE",
"149 155 CURVE",
"304 215 OFFCURVE",
"574 379 OFFCURVE",
"598 534 CURVE SMOOTH"
);
},
{
closed = 1;
nodes = (
"240 310 OFFCURVE",
"190 284 OFFCURVE",
"144 261 CURVE",
"152 316 OFFCURVE",
"173 375 OFFCURVE",
"212 423 CURVE SMOOTH",
"309 541 OFFCURVE",
"475 616 OFFCURVE",
"498 585 CURVE SMOOTH",
"517 559 OFFCURVE",
"459 454 OFFCURVE",
"285 340 CURVE SMOOTH"
);
}
);
width = 574;
}
);
note = uni05E9;
unicode = 05E9;
},
{
glyphname = "shinshindot-hb";
lastChange = "2018-07-28 17:48:11 +0000";
layers = (
{
hints = (
{
horizontal = 1;
place = "{-24.36, 105.04}";
type = Stem;
},
{
horizontal = 1;
place = "{645, 85}";
type = Stem;
},
{
place = "{501.43, 99.85}";
type = Stem;
},
{
place = "{617, 87}";
type = Stem;
},
{
horizontal = 1;
place = "{594.66, 92.34}";
type = Stem;
},
{
place = "{-11.86, 55.86}";
type = Stem;
}
);
layerId = "79248770-D821-459F-BACB-A514C4DCB9B2";
paths = (
{
closed = 1;
nodes = (
"637 730 OFFCURVE",
"617 711 OFFCURVE",
"617 687 CURVE SMOOTH",
"617 663 OFFCURVE",
"624 645 OFFCURVE",
"651 645 CURVE SMOOTH",
"674 645 OFFCURVE",
"704 663 OFFCURVE",
"704 687 CURVE SMOOTH",
"704 711 OFFCURVE",
"690 730 OFFCURVE",
"661 730 CURVE SMOOTH"
);
},
{
closed = 1;
nodes = (
"374 687 OFFCURVE",
"117 586 OFFCURVE",
"40 258 CURVE SMOOTH",
"35 239 OFFCURVE",
"33 220 OFFCURVE",
"32 202 CURVE",
"18 193 OFFCURVE",
"7 185 OFFCURVE",
"2 178 CURVE SMOOTH",
"-24 143 OFFCURVE",
"-13 104 OFFCURVE",
"31 111 CURVE",
"34 112 OFFCURVE",
"38 113 OFFCURVE",
"44 114 CURVE",
"68 44 OFFCURVE",
"129 -8 OFFCURVE",
"223 -22 CURVE SMOOTH",
"339 -40 OFFCURVE",
"457 37 OFFCURVE",
"513 174 CURVE SMOOTH",
"534 225 OFFCURVE",
"533 262 OFFCURVE",
"499 276 CURVE SMOOTH",
"461 292 OFFCURVE",
"432 260 OFFCURVE",
"411 215 CURVE SMOOTH",
"375 138 OFFCURVE",
"289 53 OFFCURVE",
"196 89 CURVE SMOOTH",
"174 97 OFFCURVE",
"158 122 OFFCURVE",
"149 155 CURVE",
"311 227 OFFCURVE",
"574 376 OFFCURVE",
"598 531 CURVE SMOOTH",
"613 629 OFFCURVE",
"578 687 OFFCURVE",
"498 687 CURVE SMOOTH"
);
},
{
closed = 1;
nodes = (
"240 310 OFFCURVE",
"190 284 OFFCURVE",
"144 261 CURVE",
"152 316 OFFCURVE",
"173 375 OFFCURVE",
"212 423 CURVE SMOOTH",
"309 541 OFFCURVE",
"475 619 OFFCURVE",
"498 588 CURVE SMOOTH",
"517 562 OFFCURVE",
"459 454 OFFCURVE",
"285 340 CURVE SMOOTH"
);
}
);
width = 574;
}
);
note = uniFB2A;
unicode = FB2A;
},
{
glyphname = "shinsindot-hb";
lastChange = "2018-07-28 17:48:11 +0000";
layers = (
{
hints = (
{
horizontal = 1;
place = "{-24.36, 105.04}";
type = Stem;
},
{
horizontal = 1;
place = "{612, 85}";
type = Stem;
},
{
place = "{163, 87}";
type = Stem;
},
{
place = "{501.43, 99.85}";
type = Stem;
},
{
horizontal = 1;
place = "{594.66, 92.34}";
type = Stem;
},
{
place = "{-11.86, 55.86}";
type = Stem;
}
);
layerId = "79248770-D821-459F-BACB-A514C4DCB9B2";
paths = (
{
closed = 1;
nodes = (
"220 612 OFFCURVE",
"250 630 OFFCURVE",
"250 654 CURVE SMOOTH",
"250 678 OFFCURVE",
"236 697 OFFCURVE",
"207 697 CURVE SMOOTH",
"183 697 OFFCURVE",
"163 678 OFFCURVE",
"163 654 CURVE SMOOTH",
"163 630 OFFCURVE",
"170 612 OFFCURVE",
"197 612 CURVE SMOOTH"
);
},
{
closed = 1;
nodes = (
"613 629 OFFCURVE",
"578 687 OFFCURVE",
"498 687 CURVE SMOOTH",
"374 687 OFFCURVE",
"117 586 OFFCURVE",
"40 258 CURVE SMOOTH",
"35 239 OFFCURVE",
"33 220 OFFCURVE",
"32 202 CURVE",
"18 193 OFFCURVE",
"7 185 OFFCURVE",
"2 178 CURVE SMOOTH",
"-24 143 OFFCURVE",
"-13 104 OFFCURVE",
"31 111 CURVE",
"34 112 OFFCURVE",
"38 113 OFFCURVE",
"44 114 CURVE",
"68 44 OFFCURVE",
"129 -8 OFFCURVE",
"223 -22 CURVE SMOOTH",
"339 -40 OFFCURVE",
"457 37 OFFCURVE",
"513 174 CURVE SMOOTH",
"534 225 OFFCURVE",
"533 262 OFFCURVE",
"499 276 CURVE SMOOTH",
"461 292 OFFCURVE",
"432 260 OFFCURVE",
"411 215 CURVE SMOOTH",
"375 138 OFFCURVE",
"289 53 OFFCURVE",
"196 89 CURVE SMOOTH",
"174 97 OFFCURVE",
"158 122 OFFCURVE",
"149 155 CURVE",
"311 227 OFFCURVE",
"574 376 OFFCURVE",
"598 531 CURVE SMOOTH"
);
},
{
closed = 1;
nodes = (
"240 310 OFFCURVE",
"190 284 OFFCURVE",
"144 261 CURVE",
"152 316 OFFCURVE",
"173 375 OFFCURVE",
"212 423 CURVE SMOOTH",
"309 541 OFFCURVE",
"475 619 OFFCURVE",
"498 588 CURVE SMOOTH",
"517 562 OFFCURVE",
"459 454 OFFCURVE",
"285 340 CURVE SMOOTH"
);
}
);
width = 574;
}
);
note = uniFB2B;
unicode = FB2B;
},
{
glyphname = "shindageshshindot-hb";
lastChange = "2018-07-28 17:48:11 +0000";
layers = (
{
hints = (
{
horizontal = 1;
place = "{-24.36, 105.04}";
type = Stem;
},
{
horizontal = 1;
place = "{645, 85}";
type = Stem;
},
{
place = "{501.43, 99.85}";
type = Stem;
},
{
place = "{617, 87}";
type = Stem;
},
{
horizontal = 1;
place = "{424, 75}";
type = Stem;
},
{
horizontal = 1;
place = "{594.66, 92.34}";
type = Stem;
},
{
place = "{-11.86, 55.86}";
type = Stem;
},
{
place = "{301, 74}";
type = Stem;
}
);
layerId = "79248770-D821-459F-BACB-A514C4DCB9B2";
paths = (
{
closed = 1;
nodes = (
"637 730 OFFCURVE",
"617 711 OFFCURVE",
"617 687 CURVE SMOOTH",
"617 663 OFFCURVE",
"624 645 OFFCURVE",
"651 645 CURVE SMOOTH",
"674 645 OFFCURVE",
"704 663 OFFCURVE",
"704 687 CURVE SMOOTH",
"704 711 OFFCURVE",
"690 730 OFFCURVE",
"661 730 CURVE SMOOTH"
);
},
{
closed = 1;
nodes = (
"374 687 OFFCURVE",
"117 586 OFFCURVE",
"40 258 CURVE SMOOTH",
"35 239 OFFCURVE",
"33 220 OFFCURVE",
"32 202 CURVE",
"18 193 OFFCURVE",
"7 185 OFFCURVE",
"2 178 CURVE SMOOTH",
"-24 143 OFFCURVE",
"-13 104 OFFCURVE",
"31 111 CURVE",
"34 112 OFFCURVE",
"38 113 OFFCURVE",
"44 114 CURVE",
"68 44 OFFCURVE",
"129 -8 OFFCURVE",
"223 -22 CURVE SMOOTH",
"339 -40 OFFCURVE",
"457 37 OFFCURVE",
"513 174 CURVE SMOOTH",
"534 225 OFFCURVE",
"533 262 OFFCURVE",
"499 276 CURVE SMOOTH",
"461 292 OFFCURVE",
"432 260 OFFCURVE",
"411 215 CURVE SMOOTH",
"375 138 OFFCURVE",
"289 53 OFFCURVE",
"196 89 CURVE SMOOTH",
"174 97 OFFCURVE",
"158 122 OFFCURVE",
"149 155 CURVE",
"311 227 OFFCURVE",
"574 376 OFFCURVE",
"598 531 CURVE SMOOTH",
"613 629 OFFCURVE",
"578 687 OFFCURVE",
"498 687 CURVE SMOOTH"
);
},
{
closed = 1;
nodes = (
"240 310 OFFCURVE",
"190 284 OFFCURVE",
"144 261 CURVE",
"152 316 OFFCURVE",
"173 375 OFFCURVE",
"212 423 CURVE SMOOTH",
"309 541 OFFCURVE",
"475 619 OFFCURVE",
"498 588 CURVE SMOOTH",
"517 562 OFFCURVE",
"459 454 OFFCURVE",
"285 340 CURVE SMOOTH"
);
},
{
closed = 1;
nodes = (
"317 499 OFFCURVE",
"301 482 OFFCURVE",
"301 462 CURVE SMOOTH",
"301 441 OFFCURVE",
"307 424 OFFCURVE",
"330 424 CURVE SMOOTH",
"350 424 OFFCURVE",
"375 441 OFFCURVE",
"375 462 CURVE SMOOTH",
"375 482 OFFCURVE",
"363 499 OFFCURVE",
"338 499 CURVE SMOOTH"
);
}
);
width = 574;
}
);
note = uniFB2C;
unicode = FB2C;
},
{
glyphname = "shindageshsindot-hb";
lastChange = "2018-07-28 17:48:11 +0000";
layers = (
{
hints = (
{
horizontal = 1;
place = "{-24.36, 105.04}";
type = Stem;
},
{
horizontal = 1;
place = "{612, 85}";
type = Stem;
},
{
place = "{163, 87}";
type = Stem;
},
{
place = "{501.43, 99.85}";
type = Stem;
},
{
horizontal = 1;
place = "{594.66, 92.34}";
type = Stem;
},
{
place = "{-11.86, 55.86}";
type = Stem;
},
{
horizontal = 1;
place = "{424, 75}";
type = Stem;
},
{
place = "{301, 74}";
type = Stem;
}
);
layerId = "79248770-D821-459F-BACB-A514C4DCB9B2";
paths = (
{
closed = 1;
nodes = (
"220 612 OFFCURVE",
"250 630 OFFCURVE",
"250 654 CURVE SMOOTH",
"250 678 OFFCURVE",
"236 697 OFFCURVE",
"207 697 CURVE SMOOTH",
"183 697 OFFCURVE",
"163 678 OFFCURVE",
"163 654 CURVE SMOOTH",
"163 630 OFFCURVE",
"170 612 OFFCURVE",
"197 612 CURVE SMOOTH"
);
},
{
closed = 1;
nodes = (
"613 629 OFFCURVE",
"578 687 OFFCURVE",
"498 687 CURVE SMOOTH",
"374 687 OFFCURVE",
"117 586 OFFCURVE",
"40 258 CURVE SMOOTH",
"35 239 OFFCURVE",
"33 220 OFFCURVE",
"32 202 CURVE",
"18 193 OFFCURVE",
"7 185 OFFCURVE",
"2 178 CURVE SMOOTH",
"-24 143 OFFCURVE",
"-13 104 OFFCURVE",
"31 111 CURVE",
"34 112 OFFCURVE",
"38 113 OFFCURVE",
"44 114 CURVE",
"68 44 OFFCURVE",
"129 -8 OFFCURVE",
"223 -22 CURVE SMOOTH",
"339 -40 OFFCURVE",
"457 37 OFFCURVE",
"513 174 CURVE SMOOTH",
"534 225 OFFCURVE",
"533 262 OFFCURVE",
"499 276 CURVE SMOOTH",
"461 292 OFFCURVE",
"432 260 OFFCURVE",
"411 215 CURVE SMOOTH",
"375 138 OFFCURVE",
"289 53 OFFCURVE",
"196 89 CURVE SMOOTH",
"174 97 OFFCURVE",
"158 122 OFFCURVE",
"149 155 CURVE",
"311 227 OFFCURVE",
"574 376 OFFCURVE",
"598 531 CURVE SMOOTH"
);
},
{
closed = 1;
nodes = (
"240 310 OFFCURVE",
"190 284 OFFCURVE",
"144 261 CURVE",
"152 316 OFFCURVE",
"173 375 OFFCURVE",
"212 423 CURVE SMOOTH",
"309 541 OFFCURVE",
"475 619 OFFCURVE",
"498 588 CURVE SMOOTH",
"517 562 OFFCURVE",
"459 454 OFFCURVE",
"285 340 CURVE SMOOTH"
);
},
{
closed = 1;
nodes = (
"317 499 OFFCURVE",
"301 482 OFFCURVE",
"301 462 CURVE SMOOTH",
"301 441 OFFCURVE",
"307 424 OFFCURVE",
"330 424 CURVE SMOOTH",
"350 424 OFFCURVE",
"375 441 OFFCURVE",
"375 462 CURVE SMOOTH",
"375 482 OFFCURVE",
"363 499 OFFCURVE",
"338 499 CURVE SMOOTH"
);
}
);
width = 574;
}
);
note = uniFB2D;
unicode = FB2D;
},
{
glyphname = "shindagesh-hb";
lastChange = "2018-07-28 17:48:11 +0000";
layers = (
{
hints = (
{
horizontal = 1;
place = "{-24.36, 105.04}";
type = Stem;
},
{
horizontal = 1;
place = "{424, 75}";
type = Stem;
},
{
horizontal = 1;
place = "{594.66, 92.34}";
type = Stem;
},
{
place = "{-11.86, 55.86}";
type = Stem;
},
{
place = "{301, 74}";
type = Stem;
},
{
place = "{501.43, 99.85}";
type = Stem;
}
);
layerId = "79248770-D821-459F-BACB-A514C4DCB9B2";
paths = (
{
closed = 1;
nodes = (
"613 629 OFFCURVE",
"578 687 OFFCURVE",
"498 687 CURVE SMOOTH",
"374 687 OFFCURVE",
"117 586 OFFCURVE",
"40 258 CURVE SMOOTH",
"35 239 OFFCURVE",
"33 220 OFFCURVE",
"32 202 CURVE",
"18 193 OFFCURVE",
"7 185 OFFCURVE",
"2 178 CURVE SMOOTH",
"-24 143 OFFCURVE",
"-13 104 OFFCURVE",
"31 111 CURVE",
"34 112 OFFCURVE",
"38 113 OFFCURVE",
"44 114 CURVE",
"68 44 OFFCURVE",
"129 -8 OFFCURVE",
"223 -22 CURVE SMOOTH",
"339 -40 OFFCURVE",
"457 37 OFFCURVE",
"513 174 CURVE SMOOTH",
"534 225 OFFCURVE",
"533 262 OFFCURVE",
"499 276 CURVE SMOOTH",
"461 292 OFFCURVE",
"432 260 OFFCURVE",
"411 215 CURVE SMOOTH",
"375 138 OFFCURVE",
"289 53 OFFCURVE",
"196 89 CURVE SMOOTH",
"174 97 OFFCURVE",
"158 122 OFFCURVE",
"149 155 CURVE",
"311 227 OFFCURVE",
"574 376 OFFCURVE",
"598 531 CURVE SMOOTH"
);
},
{
closed = 1;
nodes = (
"240 310 OFFCURVE",
"190 284 OFFCURVE",
"144 261 CURVE",
"152 316 OFFCURVE",
"173 375 OFFCURVE",
"212 423 CURVE SMOOTH",
"309 541 OFFCURVE",
"475 619 OFFCURVE",
"498 588 CURVE SMOOTH",
"517 562 OFFCURVE",
"459 454 OFFCURVE",
"285 340 CURVE SMOOTH"
);
},
{
closed = 1;
nodes = (
"317 499 OFFCURVE",
"301 482 OFFCURVE",
"301 462 CURVE SMOOTH",
"301 441 OFFCURVE",
"307 424 OFFCURVE",
"330 424 CURVE SMOOTH",
"350 424 OFFCURVE",
"375 441 OFFCURVE",
"375 462 CURVE SMOOTH",
"375 482 OFFCURVE",
"363 499 OFFCURVE",
"338 499 CURVE SMOOTH"
);
}
);
width = 574;
}
);
note = uniFB49;
unicode = FB49;
},
{
color = 4;
glyphname = "tav-hb";
lastChange = "2019-01-28 13:32:52 +0000";
layers = (
{
hints = (
{
horizontal = 1;
place = "{-234.13, 779.74}";
type = Stem;
},
{
place = "{197, 14}";
type = Stem;
}
);
layerId = "79248770-D821-459F-BACB-A514C4DCB9B2";
paths = (
{
closed = 1;
nodes = (
"318 518 OFFCURVE",
"252 552 OFFCURVE",
"187 545 CURVE SMOOTH",
"125 538 OFFCURVE",
"109 468 OFFCURVE",
"99 375 CURVE SMOOTH",
"80 190 OFFCURVE",
"9 -52 OFFCURVE",
"-122 -105 CURVE SMOOTH",
"-196 -135 OFFCURVE",
"-273 -130 OFFCURVE",
"-321 -137 CURVE SMOOTH",
"-356 -142 OFFCURVE",
"-378 -154 OFFCURVE",
"-381 -185 CURVE SMOOTH",
"-384 -214 OFFCURVE",
"-365 -229 OFFCURVE",
"-331 -232 CURVE SMOOTH",
"-242 -240 OFFCURVE",
"-113 -232 OFFCURVE",
"3 -148 CURVE SMOOTH",
"132 -54 OFFCURVE",
"212 275 OFFCURVE",
"211 432 CURVE",
"263 420 OFFCURVE",
"289 290 OFFCURVE",
"284 169 CURVE SMOOTH",
"282 116 OFFCURVE",
"298 70 OFFCURVE",
"344 79 CURVE SMOOTH",
"399 90 OFFCURVE",
"416 260 OFFCURVE",
"367 389 CURVE SMOOTH"
);
},
{
closed = 1;
nodes = (
"199 432 LINE",
"197 432 LINE"
);
}
);
width = 445;
}
);
note = uni05EA;
unicode = 05EA;
},
{
glyphname = "tavdagesh-hb";
lastChange = "2018-07-28 17:48:11 +0000";
layers = (
{
hints = (
{
horizontal = 1;
place = "{152, 75}";
type = Stem;
},
{
place = "{187, 74}";
type = Stem;
},
{
place = "{197, 14}";
type = Stem;
}
);
layerId = "79248770-D821-459F-BACB-A514C4DCB9B2";
paths = (
{
closed = 1;
nodes = (
"318 518 OFFCURVE",
"252 552 OFFCURVE",
"187 545 CURVE SMOOTH",
"125 538 OFFCURVE",
"109 468 OFFCURVE",
"99 375 CURVE SMOOTH",
"80 190 OFFCURVE",
"9 -52 OFFCURVE",
"-122 -105 CURVE SMOOTH",
"-196 -135 OFFCURVE",
"-273 -130 OFFCURVE",
"-321 -137 CURVE SMOOTH",
"-356 -142 OFFCURVE",
"-378 -154 OFFCURVE",
"-381 -185 CURVE SMOOTH",
"-384 -214 OFFCURVE",
"-365 -229 OFFCURVE",
"-331 -232 CURVE SMOOTH",
"-242 -240 OFFCURVE",
"-113 -232 OFFCURVE",
"3 -148 CURVE SMOOTH",
"132 -54 OFFCURVE",
"212 275 OFFCURVE",
"211 432 CURVE",
"263 420 OFFCURVE",
"289 290 OFFCURVE",
"284 169 CURVE SMOOTH",
"282 116 OFFCURVE",
"298 79 OFFCURVE",
"344 79 CURVE SMOOTH",
"399 79 OFFCURVE",
"416 260 OFFCURVE",
"367 389 CURVE SMOOTH"
);
},
{
closed = 1;
nodes = (
"199 432 LINE",
"197 432 LINE"
);
},
{
closed = 1;
nodes = (
"203 227 OFFCURVE",
"187 210 OFFCURVE",
"187 190 CURVE SMOOTH",
"187 169 OFFCURVE",
"193 152 OFFCURVE",
"216 152 CURVE SMOOTH",
"236 152 OFFCURVE",
"261 169 OFFCURVE",
"261 190 CURVE SMOOTH",
"261 210 OFFCURVE",
"249 227 OFFCURVE",
"224 227 CURVE SMOOTH"
);
}
);
width = 445;
}
);
note = uniFB4A;
unicode = FB4A;
},
{
glyphname = zero;
lastChange = "2019-01-23 09:52:47 +0000";
layers = (
{
hints = (
{
horizontal = 1;
place = "{-10, 119}";
type = Stem;
},
{
horizontal = 1;
place = "{494, 115}";
type = Stem;
},
{
place = "{25.94, 112.06}";
type = Stem;
},
{
place = "{424, 116.07}";
type = Stem;
}
);
layerId = "79248770-D821-459F-BACB-A514C4DCB9B2";
paths = (
{
closed = 1;
nodes = (
"398 -10 OFFCURVE",
"523 177 OFFCURVE",
"538 341 CURVE SMOOTH",
"553 503 OFFCURVE",
"493 609 OFFCURVE",
"342 609 CURVE SMOOTH",
"289 609 OFFCURVE",
"237 588 OFFCURVE",
"191 534 CURVE",
"182 547 OFFCURVE",
"160 543 OFFCURVE",
"133 513 CURVE SMOOTH",
"81 456 OFFCURVE",
"37 363 OFFCURVE",
"28 261 CURVE SMOOTH",
"14 111 OFFCURVE",
"67 -10 OFFCURVE",
"216 -10 CURVE SMOOTH"
);
},
{
closed = 1;
nodes = (
"166 109 OFFCURVE",
"134 171 OFFCURVE",
"138 227 CURVE SMOOTH",
"143 287 OFFCURVE",
"161 344 OFFCURVE",
"174 350 CURVE",
"193 345 OFFCURVE",
"209 353 OFFCURVE",
"218 375 CURVE SMOOTH",
"255 461 OFFCURVE",
"263 494 OFFCURVE",
"334 494 CURVE SMOOTH",
"418 494 OFFCURVE",
"429 414 OFFCURVE",
"424 352 CURVE SMOOTH",
"414 244 OFFCURVE",
"327 109 OFFCURVE",
"218 109 CURVE SMOOTH"
);
}
);
width = 547;
}
);
leftKerningGroup = zero;
note = zero;
rightKerningGroup = zero;
unicode = 0030;
},
{
glyphname = one;
lastChange = "2018-07-28 17:47:46 +0000";
layers = (
{
hints = (
{
horizontal = 1;
place = "{-14, 21}";
target = up;
type = BottomGhost;
},
{
place = "{-13.38, 328.42}";
type = Stem;
}
);
layerId = "79248770-D821-459F-BACB-A514C4DCB9B2";
paths = (
{
closed = 1;
nodes = (
"101 -5 OFFCURVE",
"104 47 OFFCURVE",
"114 80 CURVE SMOOTH",
"127 128 OFFCURVE",
"145 173 OFFCURVE",
"163 217 CURVE SMOOTH",
"197 303 OFFCURVE",
"237 386 OFFCURVE",
"285 462 CURVE SMOOTH",
"314 507 OFFCURVE",
"336 558 OFFCURVE",
"285 599 CURVE SMOOTH",
"241 634 OFFCURVE",
"200 599 OFFCURVE",
"168 543 CURVE SMOOTH",
"143 498 OFFCURVE",
"119 450 OFFCURVE",
"99 402 CURVE SMOOTH",
"74 342 OFFCURVE",
"51 280 OFFCURVE",
"30 218 CURVE SMOOTH",
"10 163 OFFCURVE",
"-1 105 OFFCURVE",
"-12 46 CURVE SMOOTH",
"-14 37 OFFCURVE",
"-14 28 OFFCURVE",
"-11 19 CURVE SMOOTH",
"-2 -7 OFFCURVE",
"37 -19 OFFCURVE",
"60 -14 CURVE SMOOTH"
);
}
);
width = 271;
}
);
leftKerningGroup = one;
note = one;
rightKerningGroup = one;
unicode = 0031;
},
{
glyphname = two;
lastChange = "2018-07-28 17:47:46 +0000";
layers = (
{
hints = (
{
horizontal = 1;
place = "{-19.91, 109.41}";
type = Stem;
},
{
horizontal = 1;
place = "{515.88, 114.75}";
type = Stem;
},
{
place = "{-18.46, 108.46}";
type = Stem;
},
{
place = "{320.34, 119.66}";
type = Stem;
}
);
layerId = "79248770-D821-459F-BACB-A514C4DCB9B2";
paths = (
{
closed = 1;
nodes = (
"134 -25 OFFCURVE",
"334 -32 OFFCURVE",
"351 46 CURVE SMOOTH",
"354 60 OFFCURVE",
"351 73 OFFCURVE",
"341 83 CURVE SMOOTH",
"333 91 OFFCURVE",
"323 93 OFFCURVE",
"313 94 CURVE SMOOTH",
"273 98 OFFCURVE",
"175 88 OFFCURVE",
"135 85 CURVE SMOOTH",
"119 84 OFFCURVE",
"92 87 OFFCURVE",
"90 109 CURVE SMOOTH",
"88 132 OFFCURVE",
"110 148 OFFCURVE",
"126 161 CURVE SMOOTH",
"173 199 OFFCURVE",
"295 266 OFFCURVE",
"345 313 CURVE SMOOTH",
"380 346 OFFCURVE",
"434 396 OFFCURVE",
"440 478 CURVE SMOOTH",
"444 536 OFFCURVE",
"420 597 OFFCURVE",
"333 626 CURVE SMOOTH",
"254 652 OFFCURVE",
"146 561 OFFCURVE",
"105 533 CURVE SMOOTH",
"83 518 OFFCURVE",
"78 480 OFFCURVE",
"89 456 CURVE SMOOTH",
"98 437 OFFCURVE",
"120 423 OFFCURVE",
"146 428 CURVE SMOOTH",
"170 433 OFFCURVE",
"234 482 OFFCURVE",
"266 502 CURVE",
"266 502 OFFCURVE",
"374 564 OFFCURVE",
"286 427 CURVE SMOOTH",
"219 322 OFFCURVE",
"16 265 OFFCURVE",
"-14 145 CURVE SMOOTH",
"-33 69 OFFCURVE",
"6 6 OFFCURVE",
"80 -12 CURVE SMOOTH"
);
}
);
width = 430;
}
);
leftKerningGroup = two;
note = two;
rightKerningGroup = two;
unicode = 0032;
},
{
glyphname = three;
lastChange = "2019-01-23 09:52:03 +0000";
layers = (
{
hints = (
{
horizontal = 1;
place = "{-16.5, 98.25}";
type = Stem;
},
{
horizontal = 1;
place = "{526.55, 103.1}";
type = Stem;
},
{
place = "{273.91, 105.09}";
type = Stem;
},
{
place = "{337.36, 108.64}";
type = Stem;
},
{
place = "{170.46, 140.66}";
type = Stem;
}
);
layerId = "79248770-D821-459F-BACB-A514C4DCB9B2";
paths = (
{
closed = 1;
nodes = (
"106 -34 OFFCURVE",
"241 -32 OFFCURVE",
"323 39 CURVE SMOOTH",
"410 113 OFFCURVE",
"391 284 OFFCURVE",
"301 344 CURVE",
"382 378 OFFCURVE",
"447 420 OFFCURVE",
"446 493 CURVE SMOOTH",
"445 575 OFFCURVE",
"376 613 OFFCURVE",
"302 627 CURVE SMOOTH",
"233 639 OFFCURVE",
"122 611 OFFCURVE",
"134 551 CURVE SMOOTH",
"139 529 OFFCURVE",
"170 488 OFFCURVE",
"211 507 CURVE SMOOTH",
"331 562 OFFCURVE",
"391 489 OFFCURVE",
"275 435 CURVE SMOOTH",
"245 421 OFFCURVE",
"184 401 OFFCURVE",
"173 365 CURVE SMOOTH",
"161 328 OFFCURVE",
"193 297 OFFCURVE",
"224 287 CURVE SMOOTH",
"279 268 OFFCURVE",
"278 202 OFFCURVE",
"270 169 CURVE SMOOTH",
"240 40 OFFCURVE",
"100 72 OFFCURVE",
"57 149 CURVE SMOOTH",
"45 170 OFFCURVE",
"10 192 OFFCURVE",
"-22 160 CURVE SMOOTH",
"-68 116 OFFCURVE",
"-4 55 OFFCURVE",
"30 27 CURVE SMOOTH"
);
}
);
width = 433;
}
);
leftKerningGroup = three;
note = three;
rightKerningGroup = three;
unicode = 0033;
},
{
glyphname = four;
lastChange = "2018-07-28 17:47:46 +0000";
layers = (
{
hints = (
{
horizontal = 1;
place = "{-12, 21}";
target = up;
type = BottomGhost;
},
{
place = "{59.97, 122.09}";
type = Stem;
},
{
place = "{442, 55.04}";
type = Stem;
}
);
layerId = "79248770-D821-459F-BACB-A514C4DCB9B2";
paths = (
{
closed = 1;
nodes = (
"442 594 OFFCURVE",
"391 596 OFFCURVE",
"368 522 CURVE SMOOTH",
"347 457 OFFCURVE",
"319 369 OFFCURVE",
"300 314 CURVE",
"288 318 OFFCURVE",
"271 325 OFFCURVE",
"249 338 CURVE SMOOTH",
"202 366 OFFCURVE",
"161 390 OFFCURVE",
"194 500 CURVE SMOOTH",
"202 527 OFFCURVE",
"214 569 OFFCURVE",
"189 605 CURVE SMOOTH",
"180 618 OFFCURVE",
"140 643 OFFCURVE",
"112 597 CURVE SMOOTH",
"6 423 OFFCURVE",
"65 286 OFFCURVE",
"257 200 CURVE",
"232 147 OFFCURVE",
"175 8 OFFCURVE",
"248 -12 CURVE",
"248 -12 OFFCURVE",
"293 -45 OFFCURVE",
"354 117 CURVE SMOOTH",
"485 468 LINE SMOOTH",
"499 505 OFFCURVE",
"516 576 OFFCURVE",
"442 594 CURVE"
);
}
);
width = 470;
}
);
leftKerningGroup = four;
note = four;
unicode = 0034;
},
{
glyphname = five;
lastChange = "2018-07-28 17:47:46 +0000";
layers = (
{
hints = (
{
horizontal = 1;
place = "{-26.74, 116.62}";
type = Stem;
},
{
horizontal = 1;
place = "{487.05, 112.2}";
type = Stem;
},
{
place = "{82, 131.75}";
type = Stem;
},
{
place = "{304.54, 116.69}";
type = Stem;
}
);
layerId = "79248770-D821-459F-BACB-A514C4DCB9B2";
paths = (
{
closed = 1;
nodes = (
"393 25 OFFCURVE",
"436 126 OFFCURVE",
"417 214 CURVE SMOOTH",
"396 311 OFFCURVE",
"304 408 OFFCURVE",
"235 440 CURVE SMOOTH",
"200 457 OFFCURVE",
"212 477 OFFCURVE",
"239 485 CURVE SMOOTH",
"271 494 OFFCURVE",
"444 472 OFFCURVE",
"459 481 CURVE SMOOTH",
"472 489 OFFCURVE",
"517 564 OFFCURVE",
"436 585 CURVE SMOOTH",
"373 601 OFFCURVE",
"274 604 OFFCURVE",
"210 594 CURVE SMOOTH",
"138 583 OFFCURVE",
"80 544 OFFCURVE",
"82 465 CURVE SMOOTH",
"82 439 OFFCURVE",
"92 415 OFFCURVE",
"111 398 CURVE SMOOTH",
"167 349 OFFCURVE",
"231 312 OFFCURVE",
"276 258 CURVE SMOOTH",
"299 229 OFFCURVE",
"313 174 OFFCURVE",
"299 141 CURVE SMOOTH",
"270 70 OFFCURVE",
"150 80 OFFCURVE",
"77 128 CURVE SMOOTH",
"39 152 OFFCURVE",
"12 154 OFFCURVE",
"-8 127 CURVE SMOOTH",
"-23 106 OFFCURVE",
"-6 73 OFFCURVE",
"27 43 CURVE SMOOTH",
"90 -18 OFFCURVE",
"211 -48 OFFCURVE",
"302 -11 CURVE SMOOTH"
);
}
);
width = 466;
}
);
leftKerningGroup = five;
note = five;
rightKerningGroup = five;
unicode = 0035;
},
{
glyphname = six;
lastChange = "2018-07-28 17:47:46 +0000";
layers = (
{
hints = (
{
horizontal = 1;
place = "{-23.11, 99.36}";
type = Stem;
},
{
horizontal = 1;
place = "{188.69, 101.9}";
type = Stem;
},
{
horizontal = 1;
place = "{430.88, 129}";
type = Stem;
},
{
place = "{31.22, 113.78}";
type = Stem;
},
{
place = "{378.86, 107.76}";
type = Stem;
},
{
horizontal = 1;
place = "{454, 105.89}";
type = Stem;
}
);
layerId = "79248770-D821-459F-BACB-A514C4DCB9B2";
paths = (
{
closed = 1;
nodes = (
"485 581 OFFCURVE",
"260 575 OFFCURVE",
"133 465 CURVE SMOOTH",
"25 371 OFFCURVE",
"-1 185 OFFCURVE",
"74 79 CURVE SMOOTH",
"164 -48 OFFCURVE",
"364 -42 OFFCURVE",
"435 18 CURVE SMOOTH",
"510 81 OFFCURVE",
"499 185 OFFCURVE",
"431 246 CURVE SMOOTH",
"369 301 OFFCURVE",
"288 300 OFFCURVE",
"225 272 CURVE SMOOTH",
"192 257 OFFCURVE",
"165 237 OFFCURVE",
"145 218 CURVE",
"139 267 OFFCURVE",
"151 319 OFFCURVE",
"185 355 CURVE SMOOTH",
"253 427 OFFCURVE",
"374 462 OFFCURVE",
"469 454 CURVE SMOOTH",
"520 450 OFFCURVE",
"565 423 OFFCURVE",
"583 433 CURVE SMOOTH",
"610 448 OFFCURVE",
"610 495 OFFCURVE",
"565 526 CURVE SMOOTH"
);
},
{
closed = 1;
nodes = (
"378 163 OFFCURVE",
"388 124 OFFCURVE",
"369 106 CURVE SMOOTH",
"328 67 OFFCURVE",
"276 71 OFFCURVE",
"230 90 CURVE SMOOTH",
"208 99 OFFCURVE",
"190 115 OFFCURVE",
"176 134 CURVE",
"254 201 OFFCURVE",
"303 196 OFFCURVE",
"353 174 CURVE SMOOTH"
);
}
);
width = 559;
}
);
leftKerningGroup = six;
note = six;
rightKerningGroup = six;
unicode = 0036;
},
{
glyphname = seven;
lastChange = "2018-07-28 17:47:46 +0000";
layers = (
{
hints = (
{
horizontal = 1;
place = "{-6.37, 21}";
target = up;
type = BottomGhost;
},
{
horizontal = 1;
place = "{455.74, 109.01}";
type = Stem;
},
{
place = "{316.57, 118.43}";
type = Stem;
},
{
horizontal = 1;
place = "{444, 120.75}";
type = Stem;
},
{
horizontal = 1;
place = "{255, 112}";
type = Stem;
}
);
layerId = "79248770-D821-459F-BACB-A514C4DCB9B2";
paths = (
{
closed = 1;
nodes = (
"482 328 OFFCURVE",
"458 345 OFFCURVE",
"421 355 CURVE",
"434 394 OFFCURVE",
"440 434 OFFCURVE",
"435 474 CURVE SMOOTH",
"415 624 OFFCURVE",
"189 543 OFFCURVE",
"189 543 CURVE",
"139 524 OFFCURVE",
"77 481 OFFCURVE",
"89 444 CURVE SMOOTH",
"93 432 OFFCURVE",
"112 426 OFFCURVE",
"128 424 CURVE SMOOTH",
"159 420 OFFCURVE",
"195 431 OFFCURVE",
"227 444 CURVE SMOOTH",
"306 476 OFFCURVE",
"330 440 OFFCURVE",
"310 367 CURVE",
"240 367 OFFCURVE",
"163 357 OFFCURVE",
"100 339 CURVE SMOOTH",
"32 320 OFFCURVE",
"20 291 OFFCURVE",
"23 273 CURVE SMOOTH",
"30 233 OFFCURVE",
"51 224 OFFCURVE",
"106 233 CURVE SMOOTH",
"185 246 OFFCURVE",
"218 253 OFFCURVE",
"251 255 CURVE",
"210 201 OFFCURVE",
"155 151 OFFCURVE",
"102 110 CURVE SMOOTH",
"63 80 OFFCURVE",
"19 46 OFFCURVE",
"39 12 CURVE SMOOTH",
"55 -16 OFFCURVE",
"108 -8 OFFCURVE",
"142 9 CURVE SMOOTH",
"195 35 OFFCURVE",
"243 89 OFFCURVE",
"269 119 CURVE SMOOTH",
"289 142 OFFCURVE",
"333 191 OFFCURVE",
"372 252 CURVE",
"425 250 OFFCURVE",
"491 254 OFFCURVE",
"485 303 CURVE SMOOTH"
);
}
);
width = 485;
}
);
leftKerningGroup = seven;
note = seven;
rightKerningGroup = seven;
unicode = 0037;
},
{
glyphname = eight;
lastChange = "2018-07-28 17:47:46 +0000";
layers = (
{
hints = (
{
horizontal = 1;
place = "{-18, 97}";
type = Stem;
},
{
place = "{-20.24, 102.87}";
type = Stem;
},
{
place = "{122, 106}";
type = Stem;
},
{
place = "{346.3, 110.83}";
type = Stem;
},
{
place = "{245.88, 99.39}";
type = Stem;
}
);
layerId = "79248770-D821-459F-BACB-A514C4DCB9B2";
paths = (
{
closed = 1;
nodes = (
"226 624 OFFCURVE",
"139 583 OFFCURVE",
"122 470 CURVE SMOOTH",
"116 431 OFFCURVE",
"128 376 OFFCURVE",
"153 350 CURVE",
"95 337 OFFCURVE",
"15 293 OFFCURVE",
"-10 198 CURVE SMOOTH",
"-46 63 OFFCURVE",
"18 -13 OFFCURVE",
"102 -18 CURVE SMOOTH",
"172 -22 OFFCURVE",
"305 -21 OFFCURVE",
"338 107 CURVE SMOOTH",
"360 191 OFFCURVE",
"328 260 OFFCURVE",
"300 304 CURVE",
"373 326 OFFCURVE",
"442 363 OFFCURVE",
"454 434 CURVE SMOOTH",
"470 531 OFFCURVE",
"424 604 OFFCURVE",
"337 613 CURVE SMOOTH"
);
},
{
closed = 1;
nodes = (
"235 514 OFFCURVE",
"276 531 OFFCURVE",
"312 524 CURVE SMOOTH",
"343 518 OFFCURVE",
"353 473 OFFCURVE",
"342 440 CURVE SMOOTH",
"330 405 OFFCURVE",
"308 390 OFFCURVE",
"248 376 CURVE",
"236 399 OFFCURVE",
"223 431 OFFCURVE",
"228 466 CURVE SMOOTH"
);
},
{
closed = 1;
nodes = (
"111 236 OFFCURVE",
"153 258 OFFCURVE",
"208 268 CURVE",
"217 245 OFFCURVE",
"257 195 OFFCURVE",
"243 140 CURVE SMOOTH",
"230 90 OFFCURVE",
"188 76 OFFCURVE",
"141 79 CURVE SMOOTH",
"104 81 OFFCURVE",
"67 118 OFFCURVE",
"89 177 CURVE SMOOTH"
);
}
);
width = 426;
}
);
leftKerningGroup = eight;
note = eight;
rightKerningGroup = eight;
unicode = 0038;
},
{
glyphname = nine;
lastChange = "2018-07-28 17:47:46 +0000";
layers = (
{
hints = (
{
horizontal = 1;
place = "{-47.86, 129}";
type = Stem;
},
{
horizontal = 1;
place = "{221.43, 101.9}";
type = Stem;
},
{
horizontal = 1;
place = "{435.75, 99.39}";
type = Stem;
},
{
place = "{45.37, 107.74}";
type = Stem;
},
{
place = "{387, 113.75}";
type = Stem;
}
);
layerId = "79248770-D821-459F-BACB-A514C4DCB9B2";
paths = (
{
closed = 1;
nodes = (
"368 560 OFFCURVE",
"168 554 OFFCURVE",
"97 494 CURVE SMOOTH",
"22 431 OFFCURVE",
"33 327 OFFCURVE",
"101 266 CURVE SMOOTH",
"163 211 OFFCURVE",
"244 212 OFFCURVE",
"307 240 CURVE SMOOTH",
"340 255 OFFCURVE",
"367 275 OFFCURVE",
"387 294 CURVE",
"393 245 OFFCURVE",
"381 193 OFFCURVE",
"347 157 CURVE SMOOTH",
"279 85 OFFCURVE",
"158 50 OFFCURVE",
"63 58 CURVE SMOOTH",
"12 62 OFFCURVE",
"-33 89 OFFCURVE",
"-51 79 CURVE SMOOTH",
"-78 64 OFFCURVE",
"-78 17 OFFCURVE",
"-33 -14 CURVE SMOOTH",
"47 -69 OFFCURVE",
"272 -63 OFFCURVE",
"399 47 CURVE SMOOTH",
"507 141 OFFCURVE",
"533 327 OFFCURVE",
"458 433 CURVE SMOOTH"
);
},
{
closed = 1;
nodes = (
"154 349 OFFCURVE",
"144 388 OFFCURVE",
"163 406 CURVE SMOOTH",
"204 445 OFFCURVE",
"256 441 OFFCURVE",
"302 422 CURVE SMOOTH",
"324 413 OFFCURVE",
"342 397 OFFCURVE",
"356 378 CURVE",
"278 311 OFFCURVE",
"229 316 OFFCURVE",
"179 338 CURVE SMOOTH"
);
}
);
width = 534;
}
);
leftKerningGroup = nine;
note = nine;
rightKerningGroup = nine;
unicode = 0039;
},
{
glyphname = period;
lastChange = "2018-07-28 17:47:46 +0000";
layers = (
{
hints = (
{
horizontal = 1;
place = "{-7, 21}";
target = up;
type = BottomGhost;
},
{
place = "{-42, 147}";
type = Stem;
},
{
horizontal = 1;
place = "{-7, 147}";
type = Stem;
}
);
layerId = "79248770-D821-459F-BACB-A514C4DCB9B2";
paths = (
{
closed = 1;
nodes = (
"55 -7 OFFCURVE",
"105 26 OFFCURVE",
"105 67 CURVE SMOOTH",
"105 107 OFFCURVE",
"82 140 OFFCURVE",
"32 140 CURVE SMOOTH",
"-9 140 OFFCURVE",
"-42 107 OFFCURVE",
"-42 67 CURVE SMOOTH",
"-42 26 OFFCURVE",
"-30 -7 OFFCURVE",
"15 -7 CURVE SMOOTH"
);
}
);
width = 180;
}
);
leftKerningGroup = comma;
note = period;
rightKerningGroup = comma;
unicode = 002E;
},
{
glyphname = comma;
lastChange = "2018-07-28 17:47:46 +0000";
layers = (
{
hints = (
{
horizontal = 1;
place = "{-135.25, 302.05}";
type = Stem;
},
{
place = "{-83.08, 173.76}";
type = Stem;
}
);
layerId = "79248770-D821-459F-BACB-A514C4DCB9B2";
paths = (
{
closed = 1;
nodes = (
"-28 -145 OFFCURVE",
"59 -14 OFFCURVE",
"88 93 CURVE SMOOTH",
"97 126 OFFCURVE",
"85 156 OFFCURVE",
"44 166 CURVE SMOOTH",
"19 172 OFFCURVE",
"-13 146 OFFCURVE",
"-20 110 CURVE SMOOTH",
"-24 88 OFFCURVE",
"-68 -44 OFFCURVE",
"-79 -80 CURVE SMOOTH",
"-90 -117 OFFCURVE",
"-77 -130 OFFCURVE",
"-61 -135 CURVE SMOOTH"
);
}
);
width = 170;
}
);
leftKerningGroup = comma;
note = comma;
rightKerningGroup = comma;
unicode = 002C;
},
{
glyphname = colon;
lastChange = "2018-07-28 17:47:46 +0000";
layers = (
{
hints = (
{
horizontal = 1;
place = "{-7, 21}";
target = up;
type = BottomGhost;
},
{
horizontal = 1;
place = "{325, 147}";
type = Stem;
},
{
place = "{68, 147}";
type = Stem;
},
{
place = "{-32, 147}";
type = Stem;
},
{
horizontal = 1;
place = "{-7, 147}";
type = Stem;
}
);
layerId = "79248770-D821-459F-BACB-A514C4DCB9B2";
paths = (
{
closed = 1;
nodes = (
"165 325 OFFCURVE",
"215 358 OFFCURVE",
"215 399 CURVE SMOOTH",
"215 439 OFFCURVE",
"192 472 OFFCURVE",
"142 472 CURVE SMOOTH",
"101 472 OFFCURVE",
"68 439 OFFCURVE",
"68 399 CURVE SMOOTH",
"68 358 OFFCURVE",
"80 325 OFFCURVE",
"125 325 CURVE SMOOTH"
);
},
{
closed = 1;
nodes = (
"65 -7 OFFCURVE",
"115 26 OFFCURVE",
"115 67 CURVE SMOOTH",
"115 107 OFFCURVE",
"92 140 OFFCURVE",
"42 140 CURVE SMOOTH",
"1 140 OFFCURVE",
"-32 107 OFFCURVE",
"-32 67 CURVE SMOOTH",
"-32 26 OFFCURVE",
"-20 -7 OFFCURVE",
"25 -7 CURVE SMOOTH"
);
}
);
width = 210;
}
);
note = colon;
rightKerningGroup = colon;
unicode = 003A;
},
{
glyphname = semicolon;
lastChange = "2018-07-28 17:47:46 +0000";
layers = (
{
hints = (
{
horizontal = 1;
place = "{325, 147}";
type = Stem;
},
{
place = "{58, 147}";
type = Stem;
}
);
layerId = "79248770-D821-459F-BACB-A514C4DCB9B2";
paths = (
{
closed = 1;
nodes = (
"155 325 OFFCURVE",
"205 358 OFFCURVE",
"205 399 CURVE SMOOTH",
"205 439 OFFCURVE",
"182 472 OFFCURVE",
"132 472 CURVE SMOOTH",
"91 472 OFFCURVE",
"58 439 OFFCURVE",
"58 399 CURVE SMOOTH",
"58 358 OFFCURVE",
"70 325 OFFCURVE",
"115 325 CURVE SMOOTH"
);
},
{
closed = 1;
nodes = (
"2 -145 OFFCURVE",
"89 -14 OFFCURVE",
"118 93 CURVE SMOOTH",
"127 126 OFFCURVE",
"115 156 OFFCURVE",
"74 166 CURVE SMOOTH",
"49 172 OFFCURVE",
"17 146 OFFCURVE",
"10 110 CURVE SMOOTH",
"6 88 OFFCURVE",
"-38 -44 OFFCURVE",
"-49 -80 CURVE SMOOTH",
"-60 -117 OFFCURVE",
"-47 -130 OFFCURVE",
"-31 -135 CURVE SMOOTH"
);
}
);
width = 190;
}
);
note = semicolon;
rightKerningGroup = colon;
unicode = 003B;
},
{
glyphname = exclam;
lastChange = "2018-07-28 17:47:46 +0000";
layers = (
{
hints = (
{
horizontal = 1;
place = "{-7, 21}";
target = up;
type = BottomGhost;
},
{
place = "{-43, 147}";
type = Stem;
},
{
horizontal = 1;
place = "{-7, 147}";
type = Stem;
}
);
layerId = "79248770-D821-459F-BACB-A514C4DCB9B2";
paths = (
{
closed = 1;
nodes = (
"81 205 OFFCURVE",
"115 211 OFFCURVE",
"130 247 CURVE SMOOTH",
"176 358 OFFCURVE",
"214 431 OFFCURVE",
"288 542 CURVE SMOOTH",
"316 584 OFFCURVE",
"304 622 OFFCURVE",
"277 638 CURVE SMOOTH",
"244 657 OFFCURVE",
"211 643 OFFCURVE",
"188 600 CURVE SMOOTH",
"141 512 OFFCURVE",
"58 349 OFFCURVE",
"42 289 CURVE SMOOTH",
"33 256 OFFCURVE",
"36 226 OFFCURVE",
"59 215 CURVE SMOOTH"
);
},
{
closed = 1;
nodes = (
"54 -7 OFFCURVE",
"104 26 OFFCURVE",
"104 67 CURVE SMOOTH",
"104 107 OFFCURVE",
"81 140 OFFCURVE",
"31 140 CURVE SMOOTH",
"-10 140 OFFCURVE",
"-43 107 OFFCURVE",
"-43 67 CURVE SMOOTH",
"-43 26 OFFCURVE",
"-31 -7 OFFCURVE",
"14 -7 CURVE SMOOTH"
);
}
);
width = 230;
}
);
note = exclam;
unicode = 0021;
},
{
glyphname = question;
lastChange = "2018-07-28 17:47:46 +0000";
layers = (
{
hints = (
{
horizontal = 1;
place = "{-7, 21}";
target = up;
type = BottomGhost;
},
{
horizontal = 1;
place = "{560, 102}";
type = Stem;
},
{
place = "{119, 147}";
type = Stem;
},
{
place = "{395, 101}";
type = Stem;
},
{
horizontal = 1;
place = "{-7, 147}";
type = Stem;
}
);
layerId = "79248770-D821-459F-BACB-A514C4DCB9B2";
paths = (
{
closed = 1;
nodes = (
"222 190 OFFCURVE",
"265 198 OFFCURVE",
"271 235 CURVE SMOOTH",
"291 359 OFFCURVE",
"496 337 OFFCURVE",
"496 500 CURVE SMOOTH",
"496 572 OFFCURVE",
"406 659 OFFCURVE",
"283 662 CURVE SMOOTH",
"175 665 OFFCURVE",
"92 573 OFFCURVE",
"74 507 CURVE SMOOTH",
"61 459 OFFCURVE",
"84 441 OFFCURVE",
"104 430 CURVE SMOOTH",
"124 419 OFFCURVE",
"158 436 OFFCURVE",
"167 460 CURVE SMOOTH",
"182 501 OFFCURVE",
"210 559 OFFCURVE",
"279 560 CURVE SMOOTH",
"338 561 OFFCURVE",
"401 531 OFFCURVE",
"395 491 CURVE SMOOTH",
"386 430 OFFCURVE",
"185 389 OFFCURVE",
"166 264 CURVE SMOOTH",
"159 218 OFFCURVE",
"182 199 OFFCURVE",
"208 193 CURVE SMOOTH"
);
},
{
closed = 1;
nodes = (
"216 -7 OFFCURVE",
"266 26 OFFCURVE",
"266 67 CURVE SMOOTH",
"266 107 OFFCURVE",
"243 140 OFFCURVE",
"193 140 CURVE SMOOTH",
"152 140 OFFCURVE",
"119 107 OFFCURVE",
"119 67 CURVE SMOOTH",
"119 26 OFFCURVE",
"131 -7 OFFCURVE",
"176 -7 CURVE SMOOTH"
);
}
);
width = 460;
}
);
note = question;
unicode = 003F;
},
{
glyphname = periodcentered;
lastChange = "2018-07-28 17:47:46 +0000";
layers = (
{
hints = (
{
horizontal = 1;
place = "{228, 147}";
type = Stem;
},
{
place = "{20, 147}";
type = Stem;
}
);
layerId = "79248770-D821-459F-BACB-A514C4DCB9B2";
paths = (
{
closed = 1;
nodes = (
"117 228 OFFCURVE",
"167 261 OFFCURVE",
"167 302 CURVE SMOOTH",
"167 342 OFFCURVE",
"144 375 OFFCURVE",
"94 375 CURVE SMOOTH",
"53 375 OFFCURVE",
"20 342 OFFCURVE",
"20 302 CURVE SMOOTH",
"20 261 OFFCURVE",
"32 228 OFFCURVE",
"77 228 CURVE SMOOTH"
);
}
);
width = 180;
}
);
leftKerningGroup = periodcentered;
note = periodcentered;
rightKerningGroup = periodcentered;
unicode = 00B7;
},
{
glyphname = bullet;
lastChange = "2018-07-28 17:47:46 +0000";
layers = (
{
hints = (
{
horizontal = 1;
place = "{127, 299}";
type = Stem;
},
{
place = "{34, 308}";
type = Stem;
}
);
layerId = "79248770-D821-459F-BACB-A514C4DCB9B2";
paths = (
{
closed = 1;
nodes = (
"257 127 OFFCURVE",
"342 187 OFFCURVE",
"342 273 CURVE SMOOTH",
"342 357 OFFCURVE",
"294 426 OFFCURVE",
"189 426 CURVE SMOOTH",
"103 426 OFFCURVE",
"34 357 OFFCURVE",
"34 273 CURVE SMOOTH",
"34 187 OFFCURVE",
"79 127 OFFCURVE",
"174 127 CURVE SMOOTH"
);
}
);
width = 371;
}
);
leftKerningGroup = periodcentered;
note = bullet;
rightKerningGroup = periodcentered;
unicode = 2022;
},
{
glyphname = asterisk;
lastChange = "2018-07-28 17:47:46 +0000";
layers = (
{
hints = (
{
horizontal = 1;
place = "{474, 74}";
type = Stem;
},
{
place = "{129, 182.26}";
type = Stem;
},
{
horizontal = 1;
place = "{471, 77}";
type = Stem;
}
);
layerId = "79248770-D821-459F-BACB-A514C4DCB9B2";
paths = (
{
closed = 1;
nodes = (
"368 533 OFFCURVE",
"353 549 OFFCURVE",
"326 548 CURVE",
"318 548 OFFCURVE",
"305 547 OFFCURVE",
"288 546 CURVE",
"296 564 OFFCURVE",
"302 581 OFFCURVE",
"307 596 CURVE SMOOTH",
"317 628 OFFCURVE",
"310 651 OFFCURVE",
"284 659 CURVE SMOOTH",
"264 665 OFFCURVE",
"238 654 OFFCURVE",
"230 620 CURVE SMOOTH",
"227 606 OFFCURVE",
"223 593 OFFCURVE",
"218 579 CURVE",
"206 601 OFFCURVE",
"194 621 OFFCURVE",
"183 640 CURVE SMOOTH",
"175 655 OFFCURVE",
"160 667 OFFCURVE",
"148 660 CURVE",
"127 649 OFFCURVE",
"125 624 OFFCURVE",
"133 605 CURVE SMOOTH",
"142 584 OFFCURVE",
"151 565 OFFCURVE",
"160 548 CURVE",
"149 548 OFFCURVE",
"138 549 OFFCURVE",
"127 550 CURVE SMOOTH",
"92 553 OFFCURVE",
"72 532 OFFCURVE",
"72 511 CURVE SMOOTH",
"72 485 OFFCURVE",
"93 469 OFFCURVE",
"126 470 CURVE SMOOTH",
"141 470 OFFCURVE",
"157 471 OFFCURVE",
"173 471 CURVE",
"161 447 OFFCURVE",
"151 429 OFFCURVE",
"147 419 CURVE SMOOTH",
"137 395 OFFCURVE",
"148 375 OFFCURVE",
"164 368 CURVE SMOOTH",
"180 361 OFFCURVE",
"197 374 OFFCURVE",
"209 393 CURVE SMOOTH",
"215 402 OFFCURVE",
"223 416 OFFCURVE",
"231 431 CURVE",
"246 411 OFFCURVE",
"257 397 OFFCURVE",
"263 386 CURVE",
"271 369 OFFCURVE",
"290 360 OFFCURVE",
"301 366 CURVE",
"312 371 OFFCURVE",
"323 394 OFFCURVE",
"318 406 CURVE SMOOTH",
"314 416 OFFCURVE",
"300 442 OFFCURVE",
"281 474 CURVE",
"301 476 OFFCURVE",
"318 478 OFFCURVE",
"331 481 CURVE SMOOTH",
"354 487 OFFCURVE",
"372 498 OFFCURVE",
"370 515 CURVE SMOOTH"
);
}
);
width = 319;
}
);
note = asterisk;
unicode = 002A;
},
{
glyphname = numbersign;
lastChange = "2018-07-28 17:47:46 +0000";
layers = (
{
hints = (
{
horizontal = 1;
place = "{-11, 21}";
target = up;
type = BottomGhost;
},
{
horizontal = 1;
place = "{165, 90}";
type = Stem;
},
{
horizontal = 1;
place = "{322, 84}";
type = Stem;
},
{
horizontal = 1;
place = "{563, -20}";
target = down;
type = TopGhost;
},
{
place = "{1, 553.14}";
type = Stem;
},
{
horizontal = 1;
place = "{314.5, 88.5}";
type = Stem;
},
{
horizontal = 1;
place = "{158.5, 88.5}";
type = Stem;
},
{
horizontal = 1;
place = "{311, 90}";
type = Stem;
},
{
horizontal = 1;
place = "{162, 91}";
type = Stem;
}
);
layerId = "79248770-D821-459F-BACB-A514C4DCB9B2";
paths = (
{
closed = 1;
nodes = (
"498 406 OFFCURVE",
"476 406 OFFCURVE",
"445 405 CURVE",
"471 469 OFFCURVE",
"491 515 OFFCURVE",
"493 520 CURVE SMOOTH",
"506 550 OFFCURVE",
"484 569 OFFCURVE",
"466 569 CURVE SMOOTH",
"450 569 OFFCURVE",
"421 570 OFFCURVE",
"399 524 CURVE SMOOTH",
"395 516 OFFCURVE",
"377 468 OFFCURVE",
"352 404 CURVE",
"323 404 OFFCURVE",
"291 403 OFFCURVE",
"261 403 CURVE",
"276 445 OFFCURVE",
"288 479 OFFCURVE",
"293 496 CURVE SMOOTH",
"306 540 OFFCURVE",
"301 560 OFFCURVE",
"282 563 CURVE SMOOTH",
"260 566 OFFCURVE",
"225 543 OFFCURVE",
"215 517 CURVE SMOOTH",
"212 509 OFFCURVE",
"194 462 OFFCURVE",
"169 402 CURVE",
"138 401 OFFCURVE",
"114 401 OFFCURVE",
"104 401 CURVE SMOOTH",
"72 401 OFFCURVE",
"52 377 OFFCURVE",
"48 360 CURVE SMOOTH",
"44 342 OFFCURVE",
"45 315 OFFCURVE",
"68 312 CURVE",
"79 311 OFFCURVE",
"102 310 OFFCURVE",
"133 311 CURVE",
"125 289 OFFCURVE",
"116 268 OFFCURVE",
"108 247 CURVE",
"86 246 OFFCURVE",
"67 245 OFFCURVE",
"55 244 CURVE SMOOTH",
"28 242 OFFCURVE",
"1 222 OFFCURVE",
"1 195 CURVE SMOOTH",
"1 176 OFFCURVE",
"12 157 OFFCURVE",
"40 158 CURVE",
"51 158 OFFCURVE",
"62 159 OFFCURVE",
"73 159 CURVE",
"30 51 LINE",
"17 11 OFFCURVE",
"32 -12 OFFCURVE",
"63 -11 CURVE SMOOTH",
"85 -10 OFFCURVE",
"112 9 OFFCURVE",
"127 41 CURVE",
"173 162 LINE",
"203 162 OFFCURVE",
"234 163 OFFCURVE",
"262 163 CURVE",
"216 34 LINE SMOOTH",
"210 16 OFFCURVE",
"214 1 OFFCURVE",
"231 -6 CURVE SMOOTH",
"246 -12 OFFCURVE",
"292 0 OFFCURVE",
"304 37 CURVE SMOOTH",
"316 73 OFFCURVE",
"332 117 OFFCURVE",
"349 164 CURVE",
"405 165 OFFCURVE",
"445 165 OFFCURVE",
"451 165 CURVE SMOOTH",
"466 165 OFFCURVE",
"503 186 OFFCURVE",
"507 209 CURVE SMOOTH",
"510 226 OFFCURVE",
"494 250 OFFCURVE",
"471 254 CURVE",
"463 255 OFFCURVE",
"430 255 OFFCURVE",
"384 255 CURVE",
"393 277 OFFCURVE",
"402 298 OFFCURVE",
"410 319 CURVE",
"444 321 OFFCURVE",
"473 322 OFFCURVE",
"491 322 CURVE SMOOTH",
"528 323 OFFCURVE",
"551 347 OFFCURVE",
"554 366 CURVE SMOOTH",
"558 389 OFFCURVE",
"532 406 OFFCURVE",
"504 406 CURVE SMOOTH"
);
},
{
closed = 1;
nodes = (
"266 252 OFFCURVE",
"235 252 OFFCURVE",
"206 251 CURVE",
"213 271 OFFCURVE",
"221 292 OFFCURVE",
"229 313 CURVE",
"319 316 LINE",
"311 295 OFFCURVE",
"304 274 OFFCURVE",
"296 253 CURVE"
);
}
);
width = 550;
}
);
note = numbersign;
unicode = 0023;
},
{
glyphname = slash;
lastChange = "2018-07-28 17:47:46 +0000";
layers = (
{
hints = (
{
horizontal = 1;
place = "{-122.25, 779.5}";
type = Stem;
},
{
place = "{-142.78, 595.53}";
type = Stem;
}
);
layerId = "79248770-D821-459F-BACB-A514C4DCB9B2";
paths = (
{
closed = 1;
nodes = (
"-111 -126 OFFCURVE",
"-80 -127 OFFCURVE",
"-64 -108 CURVE SMOOTH",
"16 -13 OFFCURVE",
"311 403 OFFCURVE",
"441 589 CURVE SMOOTH",
"455 609 OFFCURVE",
"458 636 OFFCURVE",
"442 646 CURVE SMOOTH",
"408 667 OFFCURVE",
"377 656 OFFCURVE",
"359 634 CURVE SMOOTH",
"229 475 OFFCURVE",
"-7 132 OFFCURVE",
"-133 -41 CURVE SMOOTH",
"-149 -63 OFFCURVE",
"-144 -100 OFFCURVE",
"-130 -111 CURVE SMOOTH"
);
}
);
width = 310;
}
);
note = slash;
unicode = 002F;
},
{
glyphname = backslash;
lastChange = "2018-07-28 17:47:46 +0000";
layers = (
{
hints = (
{
horizontal = 1;
place = "{-146.14, 829.46}";
type = Stem;
},
{
place = "{41.07, 290.26}";
type = Stem;
}
);
layerId = "79248770-D821-459F-BACB-A514C4DCB9B2";
paths = (
{
closed = 1;
nodes = (
"313 -139 OFFCURVE",
"335 -104 OFFCURVE",
"331 -85 CURVE SMOOTH",
"301 58 OFFCURVE",
"185 494 OFFCURVE",
"134 641 CURVE SMOOTH",
"125 667 OFFCURVE",
"103 689 OFFCURVE",
"82 682 CURVE SMOOTH",
"46 670 OFFCURVE",
"35 630 OFFCURVE",
"44 597 CURVE SMOOTH",
"106 368 OFFCURVE",
"174 138 OFFCURVE",
"236 -102 CURVE SMOOTH",
"244 -133 OFFCURVE",
"274 -151 OFFCURVE",
"294 -145 CURVE SMOOTH"
);
}
);
width = 370;
}
);
note = backslash;
unicode = 005C;
},
{
glyphname = parenleft;
lastChange = "2018-07-28 17:47:46 +0000";
layers = (
{
hints = (
{
horizontal = 1;
place = "{-137.93, 858.81}";
type = Stem;
},
{
place = "{44.35, 117.06}";
type = Stem;
}
);
layerId = "79248770-D821-459F-BACB-A514C4DCB9B2";
paths = (
{
closed = 1;
nodes = (
"169 592 OFFCURVE",
"84 441 OFFCURVE",
"54 272 CURVE SMOOTH",
"24 95 OFFCURVE",
"68 8 OFFCURVE",
"121 -96 CURVE SMOOTH",
"129 -113 OFFCURVE",
"152 -144 OFFCURVE",
"183 -137 CURVE SMOOTH",
"204 -132 OFFCURVE",
"221 -97 OFFCURVE",
"206 -55 CURVE SMOOTH",
"180 16 OFFCURVE",
"140 146 OFFCURVE",
"175 295 CURVE SMOOTH",
"223 489 OFFCURVE",
"344 630 OFFCURVE",
"369 643 CURVE SMOOTH",
"396 657 OFFCURVE",
"412 679 OFFCURVE",
"405 697 CURVE",
"393 724 OFFCURVE",
"363 733 OFFCURVE",
"316 699 CURVE SMOOTH"
);
}
);
width = 309;
}
);
note = parenleft;
unicode = 0028;
},
{
glyphname = parenright;
lastChange = "2018-07-28 17:47:46 +0000";
layers = (
{
hints = (
{
horizontal = 1;
place = "{-137.87, 858.82}";
type = Stem;
},
{
place = "{157.57, 117.06}";
type = Stem;
}
);
layerId = "79248770-D821-459F-BACB-A514C4DCB9B2";
paths = (
{
closed = 1;
nodes = (
"150 -9 OFFCURVE",
"235 142 OFFCURVE",
"265 311 CURVE SMOOTH",
"295 488 OFFCURVE",
"251 575 OFFCURVE",
"198 679 CURVE SMOOTH",
"190 696 OFFCURVE",
"167 727 OFFCURVE",
"136 720 CURVE SMOOTH",
"115 715 OFFCURVE",
"98 680 OFFCURVE",
"113 638 CURVE SMOOTH",
"139 567 OFFCURVE",
"179 437 OFFCURVE",
"144 288 CURVE SMOOTH",
"96 94 OFFCURVE",
"-25 -47 OFFCURVE",
"-50 -60 CURVE SMOOTH",
"-77 -74 OFFCURVE",
"-93 -96 OFFCURVE",
"-86 -114 CURVE",
"-74 -141 OFFCURVE",
"-44 -150 OFFCURVE",
"3 -116 CURVE SMOOTH"
);
}
);
width = 310;
}
);
note = parenright;
unicode = 0029;
},
{
glyphname = braceleft;
lastChange = "2018-07-28 17:47:46 +0000";
layers = (
{
hints = (
{
horizontal = 1;
place = "{-128, 95}";
type = Stem;
},
{
horizontal = 1;
place = "{623, 86}";
type = Stem;
},
{
place = "{28.62, 93.94}";
type = Stem;
}
);
layerId = "79248770-D821-459F-BACB-A514C4DCB9B2";
paths = (
{
closed = 1;
nodes = (
"302 701 OFFCURVE",
"227 644 OFFCURVE",
"197 563 CURVE SMOOTH",
"187 537 OFFCURVE",
"142 395 OFFCURVE",
"130 363 CURVE SMOOTH",
"117 331 OFFCURVE",
"57 318 OFFCURVE",
"46 318 CURVE SMOOTH",
"27 318 OFFCURVE",
"5 302 OFFCURVE",
"-2 279 CURVE",
"-10 256 OFFCURVE",
"11 239 OFFCURVE",
"21 239 CURVE SMOOTH",
"31 239 OFFCURVE",
"87 219 OFFCURVE",
"79 195 CURVE SMOOTH",
"67 159 OFFCURVE",
"60 131 OFFCURVE",
"42 74 CURVE SMOOTH",
"-10 -91 OFFCURVE",
"104 -128 OFFCURVE",
"138 -128 CURVE SMOOTH",
"187 -128 OFFCURVE",
"235 -140 OFFCURVE",
"241 -88 CURVE SMOOTH",
"246 -45 OFFCURVE",
"208 -33 OFFCURVE",
"176 -33 CURVE SMOOTH",
"126 -33 OFFCURVE",
"112 10 OFFCURVE",
"130 70 CURVE SMOOTH",
"148 130 OFFCURVE",
"171 186 OFFCURVE",
"177 226 CURVE SMOOTH",
"181 251 OFFCURVE",
"163 270 OFFCURVE",
"140 279 CURVE",
"170 289 OFFCURVE",
"203 307 OFFCURVE",
"211 331 CURVE SMOOTH",
"224 371 OFFCURVE",
"259 486 OFFCURVE",
"271 528 CURVE SMOOTH",
"284 574 OFFCURVE",
"330 623 OFFCURVE",
"376 623 CURVE SMOOTH",
"422 623 OFFCURVE",
"462 615 OFFCURVE",
"469 671 CURVE SMOOTH",
"474 714 OFFCURVE",
"431 713 OFFCURVE",
"388 709 CURVE SMOOTH"
);
}
);
width = 340;
}
);
note = braceleft;
unicode = 007B;
},
{
glyphname = braceright;
lastChange = "2018-07-28 17:47:46 +0000";
layers = (
{
hints = (
{
horizontal = 1;
place = "{-128, 86}";
type = Stem;
},
{
horizontal = 1;
place = "{614, 95}";
type = Stem;
},
{
place = "{226.43, 93.92}";
type = Stem;
}
);
layerId = "79248770-D821-459F-BACB-A514C4DCB9B2";
paths = (
{
closed = 1;
nodes = (
"318 342 OFFCURVE",
"262 362 OFFCURVE",
"270 386 CURVE SMOOTH",
"282 422 OFFCURVE",
"289 450 OFFCURVE",
"307 507 CURVE SMOOTH",
"359 672 OFFCURVE",
"245 709 OFFCURVE",
"211 709 CURVE SMOOTH",
"162 709 OFFCURVE",
"114 721 OFFCURVE",
"108 669 CURVE SMOOTH",
"103 626 OFFCURVE",
"141 614 OFFCURVE",
"173 614 CURVE SMOOTH",
"223 614 OFFCURVE",
"237 571 OFFCURVE",
"219 511 CURVE SMOOTH",
"201 451 OFFCURVE",
"178 395 OFFCURVE",
"172 355 CURVE SMOOTH",
"168 330 OFFCURVE",
"186 311 OFFCURVE",
"209 302 CURVE",
"179 292 OFFCURVE",
"146 274 OFFCURVE",
"138 250 CURVE SMOOTH",
"125 210 OFFCURVE",
"90 95 OFFCURVE",
"78 53 CURVE SMOOTH",
"65 7 OFFCURVE",
"19 -42 OFFCURVE",
"-27 -42 CURVE SMOOTH",
"-73 -42 OFFCURVE",
"-113 -34 OFFCURVE",
"-120 -90 CURVE SMOOTH",
"-125 -133 OFFCURVE",
"-82 -132 OFFCURVE",
"-39 -128 CURVE SMOOTH",
"47 -120 OFFCURVE",
"122 -63 OFFCURVE",
"152 18 CURVE SMOOTH",
"162 44 OFFCURVE",
"207 186 OFFCURVE",
"219 218 CURVE SMOOTH",
"232 250 OFFCURVE",
"292 263 OFFCURVE",
"303 263 CURVE SMOOTH",
"322 263 OFFCURVE",
"344 279 OFFCURVE",
"351 302 CURVE",
"359 325 OFFCURVE",
"338 342 OFFCURVE",
"328 342 CURVE SMOOTH"
);
}
);
width = 340;
}
);
note = braceright;
unicode = 007D;
},
{
glyphname = bracketleft;
lastChange = "2018-07-28 17:47:46 +0000";
layers = (
{
hints = (
{
horizontal = 1;
place = "{-128, 105}";
type = Stem;
},
{
horizontal = 1;
place = "{614, 95}";
type = Stem;
},
{
place = "{-18.89, 102.69}";
type = Stem;
}
);
layerId = "79248770-D821-459F-BACB-A514C4DCB9B2";
paths = (
{
closed = 1;
nodes = (
"141 -128 OFFCURVE",
"191 -133 OFFCURVE",
"196 -88 CURVE SMOOTH",
"201 -41 OFFCURVE",
"169 -23 OFFCURVE",
"130 -23 CURVE SMOOTH",
"80 -23 OFFCURVE",
"76 10 OFFCURVE",
"92 70 CURVE SMOOTH",
"108 130 OFFCURVE",
"206 486 OFFCURVE",
"217 528 CURVE SMOOTH",
"228 574 OFFCURVE",
"260 614 OFFCURVE",
"306 614 CURVE SMOOTH",
"353 614 OFFCURVE",
"397 602 OFFCURVE",
"407 666 CURVE SMOOTH",
"413 706 OFFCURVE",
"366 713 OFFCURVE",
"315 709 CURVE SMOOTH",
"230 702 OFFCURVE",
"160 640 OFFCURVE",
"129 563 CURVE SMOOTH",
"99 485 OFFCURVE",
"12 147 OFFCURVE",
"-8 74 CURVE SMOOTH",
"-55 -91 OFFCURVE",
"61 -128 OFFCURVE",
"95 -128 CURVE SMOOTH"
);
}
);
width = 299;
}
);
note = bracketleft;
unicode = 005B;
},
{
glyphname = bracketright;
lastChange = "2018-07-28 17:47:46 +0000";
layers = (
{
hints = (
{
horizontal = 1;
place = "{-128, 95}";
type = Stem;
},
{
horizontal = 1;
place = "{604, 105}";
type = Stem;
},
{
place = "{224.18, 102.67}";
type = Stem;
}
);
layerId = "79248770-D821-459F-BACB-A514C4DCB9B2";
paths = (
{
closed = 1;
nodes = (
"167 709 OFFCURVE",
"117 714 OFFCURVE",
"112 669 CURVE SMOOTH",
"107 622 OFFCURVE",
"139 604 OFFCURVE",
"178 604 CURVE SMOOTH",
"228 604 OFFCURVE",
"232 571 OFFCURVE",
"216 511 CURVE SMOOTH",
"200 451 OFFCURVE",
"102 95 OFFCURVE",
"91 53 CURVE SMOOTH",
"80 7 OFFCURVE",
"48 -33 OFFCURVE",
"2 -33 CURVE SMOOTH",
"-45 -33 OFFCURVE",
"-89 -21 OFFCURVE",
"-99 -85 CURVE SMOOTH",
"-105 -125 OFFCURVE",
"-58 -132 OFFCURVE",
"-7 -128 CURVE SMOOTH",
"78 -121 OFFCURVE",
"148 -59 OFFCURVE",
"179 18 CURVE SMOOTH",
"209 96 OFFCURVE",
"296 434 OFFCURVE",
"316 507 CURVE SMOOTH",
"363 672 OFFCURVE",
"247 709 OFFCURVE",
"213 709 CURVE SMOOTH"
);
}
);
width = 300;
}
);
note = bracketright;
unicode = 005D;
},
{
glyphname = hyphen;
lastChange = "2018-07-28 17:47:46 +0000";
layers = (
{
hints = (
{
horizontal = 1;
place = "{237, 90}";
type = Stem;
},
{
place = "{18, 328}";
type = Stem;
}
);
layerId = "79248770-D821-459F-BACB-A514C4DCB9B2";
paths = (
{
closed = 1;
nodes = (
"326 237 OFFCURVE",
"346 268 OFFCURVE",
"346 285 CURVE SMOOTH",
"346 309 OFFCURVE",
"323 327 OFFCURVE",
"307 327 CURVE SMOOTH",
"273 327 OFFCURVE",
"81 335 OFFCURVE",
"60 331 CURVE SMOOTH",
"39 327 OFFCURVE",
"18 309 OFFCURVE",
"18 289 CURVE SMOOTH",
"18 258 OFFCURVE",
"31 242 OFFCURVE",
"60 238 CURVE SMOOTH",
"89 234 OFFCURVE",
"268 237 OFFCURVE",
"298 237 CURVE SMOOTH"
);
}
);
width = 357;
}
);
leftKerningGroup = periodcentered;
note = hyphen;
rightKerningGroup = periodcentered;
unicode = 002D;
},
{
glyphname = endash;
lastChange = "2018-07-28 17:47:46 +0000";
layers = (
{
hints = (
{
horizontal = 1;
place = "{237, 90}";
type = Stem;
},
{
place = "{9, 528}";
type = Stem;
}
);
layerId = "79248770-D821-459F-BACB-A514C4DCB9B2";
paths = (
{
closed = 1;
nodes = (
"519 237 OFFCURVE",
"537 261 OFFCURVE",
"537 288 CURVE SMOOTH",
"537 312 OFFCURVE",
"520 327 OFFCURVE",
"498 327 CURVE SMOOTH",
"236 327 OFFCURVE",
"63 330 OFFCURVE",
"51 329 CURVE SMOOTH",
"19 326 OFFCURVE",
"9 306 OFFCURVE",
"9 287 CURVE SMOOTH",
"9 257 OFFCURVE",
"27 244 OFFCURVE",
"51 243 CURVE SMOOTH",
"166 238 OFFCURVE",
"248 237 OFFCURVE",
"489 237 CURVE SMOOTH"
);
}
);
width = 540;
}
);
leftKerningGroup = periodcentered;
note = endash;
rightKerningGroup = periodcentered;
unicode = 2013;
},
{
glyphname = emdash;
lastChange = "2018-07-28 17:47:46 +0000";
layers = (
{
hints = (
{
horizontal = 1;
place = "{247, 84}";
type = Stem;
},
{
place = "{5, 668}";
type = Stem;
}
);
layerId = "79248770-D821-459F-BACB-A514C4DCB9B2";
paths = (
{
closed = 1;
nodes = (
"76 238 OFFCURVE",
"595 247 OFFCURVE",
"625 247 CURVE SMOOTH",
"653 247 OFFCURVE",
"675 278 OFFCURVE",
"673 295 CURVE SMOOTH",
"671 313 OFFCURVE",
"648 331 OFFCURVE",
"632 331 CURVE SMOOTH",
"598 331 OFFCURVE",
"68 335 OFFCURVE",
"47 331 CURVE SMOOTH",
"26 327 OFFCURVE",
"5 309 OFFCURVE",
"5 289 CURVE SMOOTH",
"5 262 OFFCURVE",
"18 246 OFFCURVE",
"47 242 CURVE SMOOTH"
);
}
);
width = 669;
}
);
leftKerningGroup = periodcentered;
note = emdash;
rightKerningGroup = periodcentered;
unicode = 2014;
},
{
glyphname = underscore;
lastChange = "2018-07-28 17:47:46 +0000";
layers = (
{
hints = (
{
horizontal = 1;
place = "{-3, 90}";
type = Stem;
},
{
place = "{-79, 448}";
type = Stem;
}
);
layerId = "79248770-D821-459F-BACB-A514C4DCB9B2";
paths = (
{
closed = 1;
nodes = (
"349 -3 OFFCURVE",
"369 28 OFFCURVE",
"369 45 CURVE SMOOTH",
"369 69 OFFCURVE",
"346 87 OFFCURVE",
"330 87 CURVE SMOOTH",
"296 87 OFFCURVE",
"-16 95 OFFCURVE",
"-37 91 CURVE SMOOTH",
"-58 87 OFFCURVE",
"-79 69 OFFCURVE",
"-79 49 CURVE SMOOTH",
"-79 18 OFFCURVE",
"-66 2 OFFCURVE",
"-37 -2 CURVE SMOOTH",
"-8 -6 OFFCURVE",
"291 -3 OFFCURVE",
"321 -3 CURVE SMOOTH"
);
}
);
width = 430;
}
);
leftKerningGroup = comma;
note = underscore;
rightKerningGroup = comma;
unicode = 005F;
},
{
glyphname = quotesinglbase;
lastChange = "2018-07-28 17:47:46 +0000";
layers = (
{
hints = (
{
horizontal = 1;
place = "{-166.14, 311.94}";
type = Stem;
},
{
place = "{-92.83, 174.45}";
type = Stem;
}
);
layerId = "79248770-D821-459F-BACB-A514C4DCB9B2";
paths = (
{
closed = 1;
nodes = (
"-42 -176 OFFCURVE",
"46 -35 OFFCURVE",
"78 72 CURVE SMOOTH",
"88 105 OFFCURVE",
"78 135 OFFCURVE",
"40 145 CURVE SMOOTH",
"16 151 OFFCURVE",
"-17 125 OFFCURVE",
"-24 89 CURVE SMOOTH",
"-28 67 OFFCURVE",
"-76 -75 OFFCURVE",
"-88 -111 CURVE SMOOTH",
"-100 -148 OFFCURVE",
"-88 -161 OFFCURVE",
"-73 -166 CURVE SMOOTH"
);
}
);
width = 166;
}
);
leftKerningGroup = comma;
note = quotesinglbase;
rightKerningGroup = comma;
unicode = 201A;
},
{
glyphname = quotedblbase;
lastChange = "2018-07-28 17:47:46 +0000";
layers = (
{
hints = (
{
horizontal = 1;
place = "{-149.14, 311.94}";
type = Stem;
},
{
place = "{-87.83, 308.45}";
type = Stem;
}
);
layerId = "79248770-D821-459F-BACB-A514C4DCB9B2";
paths = (
{
closed = 1;
nodes = (
"-37 -159 OFFCURVE",
"51 -18 OFFCURVE",
"83 89 CURVE SMOOTH",
"93 122 OFFCURVE",
"83 152 OFFCURVE",
"44 162 CURVE SMOOTH",
"20 168 OFFCURVE",
"-13 142 OFFCURVE",
"-20 106 CURVE SMOOTH",
"-24 84 OFFCURVE",
"-71 -58 OFFCURVE",
"-83 -94 CURVE SMOOTH",
"-95 -131 OFFCURVE",
"-83 -144 OFFCURVE",
"-68 -149 CURVE SMOOTH"
);
},
{
closed = 1;
nodes = (
"97 -159 OFFCURVE",
"185 -18 OFFCURVE",
"217 89 CURVE SMOOTH",
"227 122 OFFCURVE",
"217 152 OFFCURVE",
"179 162 CURVE SMOOTH",
"155 168 OFFCURVE",
"122 142 OFFCURVE",
"115 106 CURVE SMOOTH",
"111 84 OFFCURVE",
"63 -58 OFFCURVE",
"51 -94 CURVE SMOOTH",
"39 -131 OFFCURVE",
"51 -144 OFFCURVE",
"66 -149 CURVE SMOOTH"
);
}
);
width = 300;
}
);
leftKerningGroup = comma;
note = quotedblbase;
rightKerningGroup = comma;
unicode = 201E;
},
{
glyphname = quotedblleft;
lastChange = "2018-07-28 17:47:46 +0000";
layers = (
{
hints = (
{
horizontal = 1;
place = "{446.86, 311.94}";
type = Stem;
},
{
place = "{105.17, 308.45}";
type = Stem;
}
);
layerId = "79248770-D821-459F-BACB-A514C4DCB9B2";
paths = (
{
closed = 1;
nodes = (
"156 437 OFFCURVE",
"244 578 OFFCURVE",
"276 685 CURVE SMOOTH",
"286 718 OFFCURVE",
"276 748 OFFCURVE",
"237 758 CURVE SMOOTH",
"213 764 OFFCURVE",
"180 738 OFFCURVE",
"173 702 CURVE SMOOTH",
"169 680 OFFCURVE",
"122 538 OFFCURVE",
"110 502 CURVE SMOOTH",
"98 465 OFFCURVE",
"110 452 OFFCURVE",
"125 447 CURVE SMOOTH"
);
},
{
closed = 1;
nodes = (
"290 437 OFFCURVE",
"378 578 OFFCURVE",
"410 685 CURVE SMOOTH",
"420 718 OFFCURVE",
"410 748 OFFCURVE",
"372 758 CURVE SMOOTH",
"348 764 OFFCURVE",
"315 738 OFFCURVE",
"308 702 CURVE SMOOTH",
"304 680 OFFCURVE",
"256 538 OFFCURVE",
"244 502 CURVE SMOOTH",
"232 465 OFFCURVE",
"244 452 OFFCURVE",
"259 447 CURVE SMOOTH"
);
}
);
width = 333;
}
);
note = quotedblleft;
unicode = 201C;
},
{
glyphname = quotedblright;
lastChange = "2018-07-28 17:47:46 +0000";
layers = (
{
hints = (
{
horizontal = 1;
place = "{446.86, 311.94}";
type = Stem;
},
{
place = "{105.17, 308.45}";
type = Stem;
}
);
layerId = "79248770-D821-459F-BACB-A514C4DCB9B2";
paths = (
{
closed = 1;
nodes = (
"156 437 OFFCURVE",
"244 578 OFFCURVE",
"276 685 CURVE SMOOTH",
"286 718 OFFCURVE",
"276 748 OFFCURVE",
"237 758 CURVE SMOOTH",
"213 764 OFFCURVE",
"180 738 OFFCURVE",
"173 702 CURVE SMOOTH",
"169 680 OFFCURVE",
"122 538 OFFCURVE",
"110 502 CURVE SMOOTH",
"98 465 OFFCURVE",
"110 452 OFFCURVE",
"125 447 CURVE SMOOTH"
);
},
{
closed = 1;
nodes = (
"290 437 OFFCURVE",
"378 578 OFFCURVE",
"410 685 CURVE SMOOTH",
"420 718 OFFCURVE",
"410 748 OFFCURVE",
"372 758 CURVE SMOOTH",
"348 764 OFFCURVE",
"315 738 OFFCURVE",
"308 702 CURVE SMOOTH",
"304 680 OFFCURVE",
"256 538 OFFCURVE",
"244 502 CURVE SMOOTH",
"232 465 OFFCURVE",
"244 452 OFFCURVE",
"259 447 CURVE SMOOTH"
);
}
);
width = 333;
}
);
note = quotedblright;
unicode = 201D;
},
{
glyphname = quoteleft;
lastChange = "2018-07-28 17:47:46 +0000";
layers = (
{
hints = (
{
horizontal = 1;
place = "{446.86, 311.94}";
type = Stem;
},
{
place = "{105.17, 174.45}";
type = Stem;
}
);
layerId = "79248770-D821-459F-BACB-A514C4DCB9B2";
paths = (
{
closed = 1;
nodes = (
"156 437 OFFCURVE",
"244 578 OFFCURVE",
"276 685 CURVE SMOOTH",
"286 718 OFFCURVE",
"276 748 OFFCURVE",
"238 758 CURVE SMOOTH",
"214 764 OFFCURVE",
"181 738 OFFCURVE",
"174 702 CURVE SMOOTH",
"170 680 OFFCURVE",
"122 538 OFFCURVE",
"110 502 CURVE SMOOTH",
"98 465 OFFCURVE",
"110 452 OFFCURVE",
"125 447 CURVE SMOOTH"
);
}
);
width = 199;
}
);
note = quoteleft;
unicode = 2018;
},
{
glyphname = quoteright;
lastChange = "2018-07-28 17:47:46 +0000";
layers = (
{
hints = (
{
horizontal = 1;
place = "{446.86, 311.94}";
type = Stem;
},
{
place = "{105.17, 174.45}";
type = Stem;
}
);
layerId = "79248770-D821-459F-BACB-A514C4DCB9B2";
paths = (
{
closed = 1;
nodes = (
"156 437 OFFCURVE",
"244 578 OFFCURVE",
"276 685 CURVE SMOOTH",
"286 718 OFFCURVE",
"276 748 OFFCURVE",
"238 758 CURVE SMOOTH",
"214 764 OFFCURVE",
"181 738 OFFCURVE",
"174 702 CURVE SMOOTH",
"170 680 OFFCURVE",
"122 538 OFFCURVE",
"110 502 CURVE SMOOTH",
"98 465 OFFCURVE",
"110 452 OFFCURVE",
"125 447 CURVE SMOOTH"
);
}
);
width = 199;
}
);
note = quoteright;
unicode = 2019;
},
{
glyphname = quotedbl;
lastChange = "2018-07-28 17:47:46 +0000";
layers = (
{
hints = (
{
horizontal = 1;
place = "{446.86, 311.94}";
type = Stem;
},
{
place = "{105.17, 308.45}";
type = Stem;
}
);
layerId = "79248770-D821-459F-BACB-A514C4DCB9B2";
paths = (
{
closed = 1;
nodes = (
"156 437 OFFCURVE",
"244 578 OFFCURVE",
"276 685 CURVE SMOOTH",
"286 718 OFFCURVE",
"276 748 OFFCURVE",
"237 758 CURVE SMOOTH",
"213 764 OFFCURVE",
"180 738 OFFCURVE",
"173 702 CURVE SMOOTH",
"169 680 OFFCURVE",
"122 538 OFFCURVE",
"110 502 CURVE SMOOTH",
"98 465 OFFCURVE",
"110 452 OFFCURVE",
"125 447 CURVE SMOOTH"
);
},
{
closed = 1;
nodes = (
"290 437 OFFCURVE",
"378 578 OFFCURVE",
"410 685 CURVE SMOOTH",
"420 718 OFFCURVE",
"410 748 OFFCURVE",
"372 758 CURVE SMOOTH",
"348 764 OFFCURVE",
"315 738 OFFCURVE",
"308 702 CURVE SMOOTH",
"304 680 OFFCURVE",
"256 538 OFFCURVE",
"244 502 CURVE SMOOTH",
"232 465 OFFCURVE",
"244 452 OFFCURVE",
"259 447 CURVE SMOOTH"
);
}
);
width = 333;
}
);
note = quotedbl;
unicode = 0022;
},
{
glyphname = quotesingle;
lastChange = "2018-07-28 17:47:46 +0000";
layers = (
{
hints = (
{
horizontal = 1;
place = "{446.86, 311.94}";
type = Stem;
},
{
place = "{105.17, 174.45}";
type = Stem;
}
);
layerId = "79248770-D821-459F-BACB-A514C4DCB9B2";
paths = (
{
closed = 1;
nodes = (
"156 437 OFFCURVE",
"244 578 OFFCURVE",
"276 685 CURVE SMOOTH",
"286 718 OFFCURVE",
"276 748 OFFCURVE",
"238 758 CURVE SMOOTH",
"214 764 OFFCURVE",
"181 738 OFFCURVE",
"174 702 CURVE SMOOTH",
"170 680 OFFCURVE",
"122 538 OFFCURVE",
"110 502 CURVE SMOOTH",
"98 465 OFFCURVE",
"110 452 OFFCURVE",
"125 447 CURVE SMOOTH"
);
}
);
width = 199;
}
);
note = quotesingle;
unicode = 0027;
},
{
glyphname = uni05F3;
lastChange = "2018-07-28 17:47:46 +0000";
layers = (
{
hints = (
{
horizontal = 1;
place = "{446.86, 311.94}";
type = Stem;
},
{
place = "{105.17, 174.45}";
type = Stem;
}
);
layerId = "79248770-D821-459F-BACB-A514C4DCB9B2";
paths = (
{
closed = 1;
nodes = (
"156 437 OFFCURVE",
"244 578 OFFCURVE",
"276 685 CURVE SMOOTH",
"286 718 OFFCURVE",
"276 748 OFFCURVE",
"238 758 CURVE SMOOTH",
"214 764 OFFCURVE",
"181 738 OFFCURVE",
"174 702 CURVE SMOOTH",
"170 680 OFFCURVE",
"122 538 OFFCURVE",
"110 502 CURVE SMOOTH",
"98 465 OFFCURVE",
"110 452 OFFCURVE",
"125 447 CURVE SMOOTH"
);
}
);
width = 199;
}
);
note = uni05F3;
unicode = 05F3;
},
{
glyphname = uni05F4;
lastChange = "2018-07-28 17:47:46 +0000";
layers = (
{
hints = (
{
horizontal = 1;
place = "{446.86, 311.94}";
type = Stem;
},
{
place = "{119.17, 308.45}";
type = Stem;
}
);
layerId = "79248770-D821-459F-BACB-A514C4DCB9B2";
paths = (
{
closed = 1;
nodes = (
"170 437 OFFCURVE",
"258 578 OFFCURVE",
"290 685 CURVE SMOOTH",
"300 718 OFFCURVE",
"290 748 OFFCURVE",
"251 758 CURVE SMOOTH",
"227 764 OFFCURVE",
"194 738 OFFCURVE",
"187 702 CURVE SMOOTH",
"183 680 OFFCURVE",
"136 538 OFFCURVE",
"124 502 CURVE SMOOTH",
"112 465 OFFCURVE",
"124 452 OFFCURVE",
"139 447 CURVE SMOOTH"
);
},
{
closed = 1;
nodes = (
"304 437 OFFCURVE",
"392 578 OFFCURVE",
"424 685 CURVE SMOOTH",
"434 718 OFFCURVE",
"424 748 OFFCURVE",
"386 758 CURVE SMOOTH",
"362 764 OFFCURVE",
"329 738 OFFCURVE",
"322 702 CURVE SMOOTH",
"318 680 OFFCURVE",
"270 538 OFFCURVE",
"258 502 CURVE SMOOTH",
"246 465 OFFCURVE",
"258 452 OFFCURVE",
"273 447 CURVE SMOOTH"
);
}
);
width = 333;
}
);
note = uni05F4;
unicode = 05F4;
},
{
glyphname = "maquaf-hb";
lastChange = "2019-01-24 08:16:28 +0000";
layers = (
{
hints = (
{
horizontal = 1;
place = "{427.6, 99.4}";
type = Stem;
},
{
place = "{85, 301}";
type = Stem;
}
);
layerId = "79248770-D821-459F-BACB-A514C4DCB9B2";
paths = (
{
closed = 1;
nodes = (
"366 440 OFFCURVE",
"386 458 OFFCURVE",
"386 485 CURVE SMOOTH",
"386 509 OFFCURVE",
"363 527 OFFCURVE",
"347 527 CURVE SMOOTH",
"313 527 OFFCURVE",
"201 537 OFFCURVE",
"130 531 CURVE SMOOTH",
"74 526 OFFCURVE",
"66 442 OFFCURVE",
"130 432 CURVE SMOOTH",
"209 420 OFFCURVE",
"307 436 OFFCURVE",
"337 438 CURVE SMOOTH"
);
}
);
width = 357;
}
);
note = uni05BE;
unicode = 05BE;
},
{
glyphname = Euro;
lastChange = "2018-07-28 17:47:46 +0000";
layers = (
{
hints = (
{
horizontal = 1;
place = "{-3.75, 122.75}";
type = Stem;
},
{
horizontal = 1;
place = "{205, 85}";
type = Stem;
},
{
horizontal = 1;
place = "{329, 84}";
type = Stem;
},
{
horizontal = 1;
place = "{501.62, 110.84}";
type = Stem;
},
{
place = "{-11, 647.6}";
type = Stem;
},
{
horizontal = 1;
place = "{199, 95}";
type = Stem;
}
);
layerId = "79248770-D821-459F-BACB-A514C4DCB9B2";
paths = (
{
closed = 1;
nodes = (
"424 634 OFFCURVE",
"232 616 OFFCURVE",
"135 416 CURVE",
"101 416 OFFCURVE",
"76 416 OFFCURVE",
"71 415 CURVE",
"52 412 OFFCURVE",
"35 395 OFFCURVE",
"34 377 CURVE SMOOTH",
"32 348 OFFCURVE",
"50 334 OFFCURVE",
"77 330 CURVE",
"81 329 OFFCURVE",
"90 329 OFFCURVE",
"102 329 CURVE",
"102 327 OFFCURVE",
"101 326 OFFCURVE",
"101 324 CURVE",
"98 314 OFFCURVE",
"96 304 OFFCURVE",
"94 294 CURVE",
"63 294 OFFCURVE",
"39 294 OFFCURVE",
"34 293 CURVE SMOOTH",
"12 289 OFFCURVE",
"-10 271 OFFCURVE",
"-11 251 CURVE SMOOTH",
"-13 220 OFFCURVE",
"-2 204 OFFCURVE",
"27 200 CURVE SMOOTH",
"35 199 OFFCURVE",
"59 199 OFFCURVE",
"91 199 CURVE",
"111 49 OFFCURVE",
"253 -38 OFFCURVE",
"440 9 CURVE SMOOTH",
"484 20 OFFCURVE",
"515 41 OFFCURVE",
"512 77 CURVE SMOOTH",
"508 125 OFFCURVE",
"459 121 OFFCURVE",
"372 119 CURVE SMOOTH",
"293 117 OFFCURVE",
"231 141 OFFCURVE",
"212 201 CURVE",
"280 203 OFFCURVE",
"343 205 OFFCURVE",
"357 205 CURVE SMOOTH",
"385 205 OFFCURVE",
"405 231 OFFCURVE",
"407 248 CURVE",
"408 272 OFFCURVE",
"386 290 OFFCURVE",
"370 290 CURVE SMOOTH",
"354 290 OFFCURVE",
"283 292 OFFCURVE",
"211 293 CURVE",
"212 299 OFFCURVE",
"213 305 OFFCURVE",
"215 311 CURVE SMOOTH",
"217 317 OFFCURVE",
"218 323 OFFCURVE",
"220 329 CURVE",
"305 330 OFFCURVE",
"398 331 OFFCURVE",
"412 332 CURVE SMOOTH",
"439 333 OFFCURVE",
"454 356 OFFCURVE",
"452 375 CURVE SMOOTH",
"450 397 OFFCURVE",
"427 413 OFFCURVE",
"412 413 CURVE SMOOTH",
"266 415 LINE",
"327 490 OFFCURVE",
"424 525 OFFCURVE",
"521 485 CURVE SMOOTH",
"567 466 OFFCURVE",
"621 470 OFFCURVE",
"634 510 CURVE SMOOTH",
"646 546 OFFCURVE",
"618 572 OFFCURVE",
"540 597 CURVE SMOOTH"
);
}
);
width = 578;
}
);
note = Euro;
unicode = 20AC;
},
{
glyphname = dollar;
lastChange = "2018-07-28 17:47:46 +0000";
layers = (
{
hints = (
{
horizontal = 1;
place = "{-24.2, 93.41}";
type = Stem;
},
{
horizontal = 1;
place = "{495, 87.51}";
type = Stem;
},
{
place = "{-2.27, 108.01}";
type = Stem;
},
{
place = "{335.76, 107.4}";
type = Stem;
},
{
place = "{78.27, 107.85}";
type = Stem;
}
);
layerId = "79248770-D821-459F-BACB-A514C4DCB9B2";
paths = (
{
closed = 1;
nodes = (
"363 379 OFFCURVE",
"400 359 OFFCURVE",
"432 376 CURVE SMOOTH",
"467 394 OFFCURVE",
"459 434 OFFCURVE",
"445 463 CURVE SMOOTH",
"430 493 OFFCURVE",
"404 537 OFFCURVE",
"360 561 CURVE",
"374 602 LINE SMOOTH",
"380 618 OFFCURVE",
"375 647 OFFCURVE",
"357 655 CURVE SMOOTH",
"339 663 OFFCURVE",
"313 641 OFFCURVE",
"307 618 CURVE SMOOTH",
"296 579 LINE",
"194 594 OFFCURVE",
"117 563 OFFCURVE",
"90 500 CURVE SMOOTH",
"49 406 OFFCURVE",
"123 331 OFFCURVE",
"194 288 CURVE",
"172 229 OFFCURVE",
"149 169 OFFCURVE",
"127 111 CURVE",
"107 134 OFFCURVE",
"99 165 OFFCURVE",
"112 203 CURVE SMOOTH",
"118 222 OFFCURVE",
"121 254 OFFCURVE",
"90 268 CURVE SMOOTH",
"58 282 OFFCURVE",
"34 266 OFFCURVE",
"9 217 CURVE SMOOTH",
"-21 156 OFFCURVE",
"10 56 OFFCURVE",
"89 9 CURVE",
"77 -24 LINE SMOOTH",
"67 -51 OFFCURVE",
"74 -65 OFFCURVE",
"100 -73 CURVE SMOOTH",
"121 -79 OFFCURVE",
"138 -73 OFFCURVE",
"145 -51 CURVE SMOOTH",
"157 -16 LINE",
"263 -40 OFFCURVE",
"396 -16 OFFCURVE",
"436 107 CURVE SMOOTH",
"475 224 OFFCURVE",
"345 304 OFFCURVE",
"284 346 CURVE",
"326 466 LINE",
"339 453 OFFCURVE",
"349 438 OFFCURVE",
"352 424 CURVE SMOOTH"
);
},
{
closed = 1;
nodes = (
"200 495 OFFCURVE",
"235 499 OFFCURVE",
"268 495 CURVE",
"256 460 OFFCURVE",
"243 423 OFFCURVE",
"228 383 CURVE",
"201 402 OFFCURVE",
"177 428 OFFCURVE",
"189 463 CURVE SMOOTH"
);
},
{
closed = 1;
nodes = (
"314 82 OFFCURVE",
"248 58 OFFCURVE",
"189 74 CURVE",
"252 255 LINE",
"311 220 OFFCURVE",
"351 179 OFFCURVE",
"331 127 CURVE SMOOTH"
);
}
);
width = 500;
}
);
note = dollar;
unicode = 0024;
},
{
glyphname = newsheqelsign;
lastChange = "2018-10-05 04:09:33 +0000";
layers = (
{
hints = (
{
horizontal = 1;
place = "{-7.6, 88.06}";
type = Stem;
},
{
horizontal = 1;
place = "{344.23, 94.26}";
type = Stem;
},
{
place = "{262, 20.87}";
type = Stem;
},
{
place = "{420.62, 110.02}";
type = Stem;
},
{
horizontal = 1;
place = "{-0.94, 21}";
target = up;
type = BottomGhost;
},
{
place = "{227, 89.01}";
type = Stem;
}
);
layerId = "79248770-D821-459F-BACB-A514C4DCB9B2";
paths = (
{
closed = 1;
nodes = (
"441 332 OFFCURVE",
"418 253 OFFCURVE",
"403 224 CURVE SMOOTH",
"384 188 OFFCURVE",
"390 159 OFFCURVE",
"417 144 CURVE SMOOTH",
"446 128 OFFCURVE",
"478 144 OFFCURVE",
"491 171 CURVE SMOOTH",
"499 188 OFFCURVE",
"515 226 OFFCURVE",
"520 239 CURVE SMOOTH",
"556 332 OFFCURVE",
"496 413 OFFCURVE",
"420 434 CURVE SMOOTH",
"385 444 OFFCURVE",
"323 437 OFFCURVE",
"262 424 CURVE",
"269 438 LINE SMOOTH",
"289 481 OFFCURVE",
"289 512 OFFCURVE",
"260 525 CURVE SMOOTH",
"232 538 OFFCURVE",
"201 511 OFFCURVE",
"177 457 CURVE SMOOTH",
"172 445 OFFCURVE",
"161 423 OFFCURVE",
"147 395 CURVE",
"129 389 OFFCURVE",
"115 384 OFFCURVE",
"108 381 CURVE SMOOTH",
"70 364 OFFCURVE",
"18 325 OFFCURVE",
"31 290 CURVE SMOOTH",
"39 270 OFFCURVE",
"59 261 OFFCURVE",
"81 264 CURVE",
"38 180 OFFCURVE",
"-5 99 OFFCURVE",
"-16 79 CURVE SMOOTH",
"-39 38 OFFCURVE",
"-32 10 OFFCURVE",
"-12 2 CURVE SMOOTH",
"15 -9 OFFCURVE",
"37 9 OFFCURVE",
"64 47 CURVE SMOOTH",
"86 78 OFFCURVE",
"154 210 OFFCURVE",
"207 313 CURVE",
"265 334 OFFCURVE",
"335 351 OFFCURVE",
"385 342 CURVE SMOOTH"
);
},
{
closed = 1;
nodes = (
"673 427 OFFCURVE",
"636 404 OFFCURVE",
"625 363 CURVE SMOOTH",
"620 344 OFFCURVE",
"574 190 OFFCURVE",
"556 148 CURVE SMOOTH",
"542 116 OFFCURVE",
"517 96 OFFCURVE",
"498 91 CURVE SMOOTH",
"462 81 OFFCURVE",
"419 73 OFFCURVE",
"369 91 CURVE SMOOTH",
"335 103 OFFCURVE",
"306 145 OFFCURVE",
"319 185 CURVE SMOOTH",
"339 241 LINE SMOOTH",
"351 273 OFFCURVE",
"338 296 OFFCURVE",
"319 302 CURVE SMOOTH",
"298 309 OFFCURVE",
"265 291 OFFCURVE",
"256 267 CURVE SMOOTH",
"238 220 OFFCURVE",
"232 197 OFFCURVE",
"227 173 CURVE SMOOTH",
"215 116 OFFCURVE",
"261 31 OFFCURVE",
"331 8 CURVE SMOOTH",
"384 -9 OFFCURVE",
"431 -14 OFFCURVE",
"506 2 CURVE SMOOTH",
"571 16 OFFCURVE",
"634 58 OFFCURVE",
"654 132 CURVE SMOOTH",
"669 188 OFFCURVE",
"706 299 OFFCURVE",
"715 329 CURVE SMOOTH",
"733 388 OFFCURVE",
"710 417 OFFCURVE",
"695 421 CURVE SMOOTH"
);
}
);
width = 741;
}
);
note = uni20AA;
unicode = 20AA;
},
{
glyphname = newsheqelsign.ss01;
lastChange = "2018-07-28 17:47:46 +0000";
layers = (
{
hints = (
{
horizontal = 1;
place = "{-36.23, 107.72}";
type = Stem;
},
{
horizontal = 1;
place = "{392.41, 114.89}";
type = Stem;
},
{
place = "{278.94, 110.4}";
type = Stem;
},
{
place = "{516.62, 132.67}";
type = Stem;
},
{
place = "{326, 23.62}";
type = Stem;
}
);
layerId = "79248770-D821-459F-BACB-A514C4DCB9B2";
paths = (
{
closed = 1;
nodes = (
"541 378 OFFCURVE",
"514 282 OFFCURVE",
"495 246 CURVE SMOOTH",
"472 203 OFFCURVE",
"479 167 OFFCURVE",
"512 149 CURVE SMOOTH",
"547 130 OFFCURVE",
"587 149 OFFCURVE",
"602 182 CURVE SMOOTH",
"612 203 OFFCURVE",
"631 249 OFFCURVE",
"637 265 CURVE SMOOTH",
"679 379 OFFCURVE",
"608 477 OFFCURVE",
"516 502 CURVE SMOOTH",
"474 514 OFFCURVE",
"398 505 OFFCURVE",
"326 490 CURVE",
"329 496 OFFCURVE",
"331 502 OFFCURVE",
"333 506 CURVE",
"357 559 OFFCURVE",
"357 596 OFFCURVE",
"322 612 CURVE SMOOTH",
"288 628 OFFCURVE",
"249 595 OFFCURVE",
"220 529 CURVE SMOOTH",
"184 454 LINE",
"162 447 OFFCURVE",
"146 441 OFFCURVE",
"137 437 CURVE SMOOTH",
"91 416 OFFCURVE",
"28 369 OFFCURVE",
"43 327 CURVE SMOOTH",
"52 302 OFFCURVE",
"77 291 OFFCURVE",
"103 295 CURVE",
"51 194 OFFCURVE",
"-1 95 OFFCURVE",
"-14 70 CURVE SMOOTH",
"-42 20 OFFCURVE",
"-33 -14 OFFCURVE",
"-9 -24 CURVE SMOOTH",
"24 -37 OFFCURVE",
"49 -14 OFFCURVE",
"83 31 CURVE SMOOTH",
"110 69 OFFCURVE",
"195 229 OFFCURVE",
"259 356 CURVE",
"330 380 OFFCURVE",
"413 400 OFFCURVE",
"473 390 CURVE SMOOTH"
);
},
{
closed = 1;
nodes = (
"823 493 OFFCURVE",
"778 465 OFFCURVE",
"765 415 CURVE SMOOTH",
"759 392 OFFCURVE",
"703 205 OFFCURVE",
"681 154 CURVE SMOOTH",
"664 115 OFFCURVE",
"634 91 OFFCURVE",
"611 85 CURVE SMOOTH",
"567 73 OFFCURVE",
"515 62 OFFCURVE",
"454 84 CURVE SMOOTH",
"413 99 OFFCURVE",
"377 150 OFFCURVE",
"393 199 CURVE SMOOTH",
"398 214 OFFCURVE",
"407 237 OFFCURVE",
"418 267 CURVE SMOOTH",
"432 306 OFFCURVE",
"416 334 OFFCURVE",
"393 341 CURVE SMOOTH",
"368 349 OFFCURVE",
"329 328 OFFCURVE",
"317 298 CURVE SMOOTH",
"295 242 OFFCURVE",
"287 213 OFFCURVE",
"281 184 CURVE SMOOTH",
"267 115 OFFCURVE",
"323 12 OFFCURVE",
"408 -16 CURVE SMOOTH",
"472 -37 OFFCURVE",
"529 -45 OFFCURVE",
"621 -24 CURVE SMOOTH",
"700 -6 OFFCURVE",
"775 45 OFFCURVE",
"800 134 CURVE SMOOTH",
"819 202 OFFCURVE",
"864 338 OFFCURVE",
"875 374 CURVE SMOOTH",
"897 446 OFFCURVE",
"869 481 OFFCURVE",
"850 486 CURVE SMOOTH"
);
}
);
width = 888;
}
);
note = newsheqelsign.ss01;
},
{
glyphname = alephsymbol;
lastChange = "2018-07-28 17:47:46 +0000";
layers = (
{
hints = (
{
horizontal = 1;
place = "{454, 59.41}";
type = Stem;
},
{
place = "{79.5, 63.5}";
type = Stem;
},
{
place = "{325, 67}";
type = Stem;
},
{
place = "{591, 17.5}";
type = Stem;
},
{
place = "{658, 66.5}";
type = Stem;
},
{
horizontal = 1;
place = "{370, 62}";
type = Stem;
},
{
place = "{178, 68}";
type = Stem;
},
{
place = "{412, 66}";
type = Stem;
}
);
layerId = "79248770-D821-459F-BACB-A514C4DCB9B2";
paths = (
{
closed = 1;
nodes = (
"402 297 LINE",
"715 477 LINE",
"402 658 LINE",
"89 477 LINE"
);
},
{
closed = 1;
nodes = (
"421 366 LINE",
"356 367 LINE SMOOTH",
"356 367 OFFCURVE",
"374 470 OFFCURVE",
"384 509 CURVE",
"364 519 OFFCURVE",
"351 511 OFFCURVE",
"340 503 CURVE SMOOTH",
"320 488 OFFCURVE",
"312 456 OFFCURVE",
"303 440 CURVE",
"297 436 OFFCURVE",
"274 429 OFFCURVE",
"274 429 CURVE",
"230 455 LINE SMOOTH",
"220 461 OFFCURVE",
"211 459 OFFCURVE",
"205 458 CURVE",
"190 473 LINE",
"220 483 LINE",
"220 483 OFFCURVE",
"223 484 OFFCURVE",
"237 477 CURVE SMOOTH",
"250 470 LINE",
"256 471 LINE",
"264 483 OFFCURVE",
"279 505 OFFCURVE",
"292 513 CURVE SMOOTH",
"322 532 OFFCURVE",
"357 537 OFFCURVE",
"386 526 CURVE",
"387 547 OFFCURVE",
"383 585 OFFCURVE",
"383 585 CURVE SMOOTH",
"383 585 OFFCURVE",
"432 592 OFFCURVE",
"453 581 CURVE",
"447 567 OFFCURVE",
"420 503 OFFCURVE",
"417 454 CURVE",
"460 455 OFFCURVE",
"492 480 OFFCURVE",
"517 499 CURVE",
"496 517 LINE",
"524 533 LINE",
"557 520 LINE",
"551 511 OFFCURVE",
"548 502 OFFCURVE",
"560 495 CURVE SMOOTH",
"603 471 LINE",
"601 466 LINE",
"581 459 LINE",
"567 468 LINE",
"559 464 OFFCURVE",
"499 431 OFFCURVE",
"413 432 CURVE",
"412 409 OFFCURVE",
"426 370 OFFCURVE",
"426 370 CURVE"
);
},
{
closed = 1;
nodes = (
"392 -82 LINE",
"392 279 LINE",
"79 460 LINE",
"80 100 LINE"
);
},
{
closed = 1;
nodes = (
"412 -82 LINE",
"724 100 LINE",
"725 460 LINE",
"412 280 LINE"
);
},
{
closed = 1;
nodes = (
"461 7 LINE",
"467 40 LINE",
"467 40 OFFCURVE",
"468 44 OFFCURVE",
"481 51 CURVE SMOOTH",
"496 59 LINE",
"497 65 LINE",
"489 77 OFFCURVE",
"479 102 OFFCURVE",
"478 118 CURVE SMOOTH",
"476 153 OFFCURVE",
"490 185 OFFCURVE",
"516 206 CURVE",
"498 217 OFFCURVE",
"463 232 OFFCURVE",
"463 232 CURVE SMOOTH",
"463 232 OFFCURVE",
"482 278 OFFCURVE",
"503 290 CURVE",
"511 277 OFFCURVE",
"553 222 OFFCURVE",
"591 193 CURVE",
"615 234 OFFCURVE",
"609 272 OFFCURVE",
"605 304 CURVE",
"579 295 LINE",
"579 327 LINE",
"608 348 LINE",
"611 339 OFFCURVE",
"619 332 OFFCURVE",
"631 339 CURVE SMOOTH",
"673 362 LINE",
"677 359 LINE",
"672 339 LINE",
"658 331 LINE",
"658 322 OFFCURVE",
"654 253 OFFCURVE",
"610 180 CURVE",
"630 166 OFFCURVE",
"671 159 OFFCURVE",
"671 159 CURVE",
"671 154 LINE",
"637 97 LINE",
"637 97 OFFCURVE",
"558 165 OFFCURVE",
"530 196 CURVE",
"510 182 OFFCURVE",
"509 167 OFFCURVE",
"512 153 CURVE SMOOTH",
"517 130 OFFCURVE",
"536 105 OFFCURVE",
"547 89 CURVE",
"547 82 OFFCURVE",
"540 59 OFFCURVE",
"540 59 CURVE",
"497 33 LINE SMOOTH",
"487 27 OFFCURVE",
"484 18 OFFCURVE",
"482 13 CURVE"
);
},
{
closed = 1;
nodes = (
"305 7 LINE",
"305 7 OFFCURVE",
"224 166 OFFCURVE",
"195 229 CURVE",
"175 238 OFFCURVE",
"174 225 OFFCURVE",
"178 207 CURVE SMOOTH",
"184 180 OFFCURVE",
"203 133 OFFCURVE",
"214 103 CURVE",
"214 97 OFFCURVE",
"207 82 OFFCURVE",
"207 82 CURVE",
"162 108 LINE SMOOTH",
"153 113 OFFCURVE",
"147 109 OFFCURVE",
"146 106 CURVE",
"125 124 LINE",
"131 149 LINE",
"131 149 OFFCURVE",
"132 150 OFFCURVE",
"145 143 CURVE SMOOTH",
"161 134 LINE",
"162 137 LINE",
"155 159 OFFCURVE",
"144 196 OFFCURVE",
"143 211 CURVE SMOOTH",
"140 249 OFFCURVE",
"156 263 OFFCURVE",
"181 254 CURVE",
"163 286 OFFCURVE",
"127 339 OFFCURVE",
"127 339 CURVE SMOOTH",
"127 339 OFFCURVE",
"146 363 OFFCURVE",
"168 350 CURVE",
"178 330 OFFCURVE",
"218 227 OFFCURVE",
"259 156 CURVE",
"281 167 OFFCURVE",
"275 213 OFFCURVE",
"273 245 CURVE",
"246 269 LINE",
"246 300 LINE",
"274 289 LINE",
"278 274 OFFCURVE",
"287 258 OFFCURVE",
"299 251 CURVE SMOOTH",
"342 227 LINE",
"346 219 LINE",
"340 205 LINE",
"325 213 LINE",
"325 206 OFFCURVE",
"322 142 OFFCURVE",
"276 123 CURVE",
"297 84 OFFCURVE",
"339 31 OFFCURVE",
"339 31 CURVE",
"340 24 LINE"
);
}
);
width = 800;
}
);
note = alephsymbol;
unicode = 2135;
},
{
glyphname = plus;
lastChange = "2019-01-31 16:48:35 +0000";
layers = (
{
hints = (
{
horizontal = 1;
place = "{237, 90}";
type = Stem;
},
{
place = "{16.28, 438.09}";
type = Stem;
},
{
horizontal = 1;
place = "{236, 95}";
type = Stem;
}
);
layerId = "79248770-D821-459F-BACB-A514C4DCB9B2";
paths = (
{
closed = 1;
nodes = (
"293 329 LINE",
"311 386 OFFCURVE",
"325 434 OFFCURVE",
"329 445 CURVE SMOOTH",
"337 473 OFFCURVE",
"314 498 OFFCURVE",
"298 501 CURVE SMOOTH",
"275 505 OFFCURVE",
"250 486 OFFCURVE",
"245 470 CURVE SMOOTH",
"240 456 OFFCURVE",
"221 397 OFFCURVE",
"199 331 CURVE",
"132 332 OFFCURVE",
"74 333 OFFCURVE",
"65 331 CURVE SMOOTH",
"43 327 OFFCURVE",
"20 309 OFFCURVE",
"17 289 CURVE SMOOTH",
"12 258 OFFCURVE",
"23 242 OFFCURVE",
"52 238 CURVE SMOOTH",
"63 236 OFFCURVE",
"111 236 OFFCURVE",
"168 236 CURVE",
"148 175 OFFCURVE",
"131 134 OFFCURVE",
"130 115 CURVE SMOOTH",
"128 84 OFFCURVE",
"138 70 OFFCURVE",
"158 67 CURVE SMOOTH",
"187 62 OFFCURVE",
"206 71 OFFCURVE",
"219 99 CURVE SMOOTH",
"225 111 OFFCURVE",
"243 170 OFFCURVE",
"264 236 CURVE",
"329 236 OFFCURVE",
"386 237 OFFCURVE",
"399 237 CURVE SMOOTH",
"427 237 OFFCURVE",
"452 257 OFFCURVE",
"454 285 CURVE SMOOTH",
"456 311 OFFCURVE",
"437 327 OFFCURVE",
"421 327 CURVE SMOOTH"
);
}
);
width = 464;
}
);
leftKerningGroup = periodcentered;
note = plus;
rightKerningGroup = periodcentered;
unicode = 002B;
},
{
glyphname = minus;
lastChange = "2018-07-28 17:47:46 +0000";
layers = (
{
hints = (
{
horizontal = 1;
place = "{237, 90}";
type = Stem;
},
{
place = "{18, 438}";
type = Stem;
}
);
layerId = "79248770-D821-459F-BACB-A514C4DCB9B2";
paths = (
{
closed = 1;
nodes = (
"436 237 OFFCURVE",
"456 268 OFFCURVE",
"456 285 CURVE SMOOTH",
"456 309 OFFCURVE",
"433 327 OFFCURVE",
"417 327 CURVE SMOOTH",
"383 327 OFFCURVE",
"81 335 OFFCURVE",
"60 331 CURVE SMOOTH",
"39 327 OFFCURVE",
"18 309 OFFCURVE",
"18 289 CURVE SMOOTH",
"18 258 OFFCURVE",
"31 242 OFFCURVE",
"60 238 CURVE SMOOTH",
"89 234 OFFCURVE",
"378 237 OFFCURVE",
"408 237 CURVE SMOOTH"
);
}
);
width = 467;
}
);
leftKerningGroup = periodcentered;
note = minus;
rightKerningGroup = periodcentered;
unicode = 2212;
},
{
glyphname = multiply;
lastChange = "2019-01-31 16:48:49 +0000";
layers = (
{
hints = (
{
horizontal = 1;
place = "{104.13, 364}";
type = Stem;
},
{
place = "{10.5, 381.09}";
type = Stem;
}
);
layerId = "79248770-D821-459F-BACB-A514C4DCB9B2";
paths = (
{
closed = 1;
nodes = (
"368 454 OFFCURVE",
"347 456 OFFCURVE",
"321 438 CURVE SMOOTH",
"311 431 OFFCURVE",
"269 397 OFFCURVE",
"220 356 CURVE",
"191 406 OFFCURVE",
"166 448 OFFCURVE",
"161 454 CURVE SMOOTH",
"148 469 OFFCURVE",
"122 474 OFFCURVE",
"104 462 CURVE SMOOTH",
"76 444 OFFCURVE",
"67 425 OFFCURVE",
"77 400 CURVE SMOOTH",
"81 389 OFFCURVE",
"109 342 OFFCURVE",
"140 289 CURVE",
"86 244 OFFCURVE",
"37 205 OFFCURVE",
"28 195 CURVE SMOOTH",
"-4 162 OFFCURVE",
"7 139 OFFCURVE",
"17 127 CURVE SMOOTH",
"31 111 OFFCURVE",
"60 114 OFFCURVE",
"74 125 CURVE SMOOTH",
"185 215 LINE",
"212 169 OFFCURVE",
"236 130 OFFCURVE",
"241 122 CURVE SMOOTH",
"255 99 OFFCURVE",
"292 101 OFFCURVE",
"307 111 CURVE SMOOTH",
"329 125 OFFCURVE",
"337 145 OFFCURVE",
"327 167 CURVE SMOOTH",
"322 179 OFFCURVE",
"294 226 OFFCURVE",
"264 279 CURVE",
"320 325 OFFCURVE",
"369 365 OFFCURVE",
"375 373 CURVE",
"391 390 OFFCURVE",
"398 417 OFFCURVE",
"386 432 CURVE SMOOTH"
);
}
);
width = 403;
}
);
note = multiply;
unicode = 00D7;
},
{
glyphname = divide;
lastChange = "2018-07-28 17:47:46 +0000";
layers = (
{
hints = (
{
horizontal = 1;
place = "{245, 90}";
type = Stem;
},
{
horizontal = 1;
place = "{374, 132}";
type = Stem;
},
{
place = "{194, 132}";
type = Stem;
},
{
horizontal = 1;
place = "{73, 132}";
type = Stem;
},
{
place = "{135, 132}";
type = Stem;
}
);
layerId = "79248770-D821-459F-BACB-A514C4DCB9B2";
paths = (
{
closed = 1;
nodes = (
"281 374 OFFCURVE",
"326 403 OFFCURVE",
"326 440 CURVE SMOOTH",
"326 476 OFFCURVE",
"306 506 OFFCURVE",
"261 506 CURVE SMOOTH",
"224 506 OFFCURVE",
"194 476 OFFCURVE",
"194 440 CURVE SMOOTH",
"194 403 OFFCURVE",
"205 374 OFFCURVE",
"245 374 CURVE SMOOTH"
);
},
{
closed = 1;
nodes = (
"438 245 OFFCURVE",
"458 276 OFFCURVE",
"458 293 CURVE SMOOTH",
"458 317 OFFCURVE",
"435 335 OFFCURVE",
"419 335 CURVE SMOOTH",
"385 335 OFFCURVE",
"83 343 OFFCURVE",
"62 339 CURVE SMOOTH",
"41 335 OFFCURVE",
"20 317 OFFCURVE",
"20 297 CURVE SMOOTH",
"20 266 OFFCURVE",
"33 250 OFFCURVE",
"62 246 CURVE SMOOTH",
"91 242 OFFCURVE",
"380 245 OFFCURVE",
"410 245 CURVE SMOOTH"
);
},
{
closed = 1;
nodes = (
"222 73 OFFCURVE",
"267 102 OFFCURVE",
"267 139 CURVE SMOOTH",
"267 175 OFFCURVE",
"247 205 OFFCURVE",
"202 205 CURVE SMOOTH",
"165 205 OFFCURVE",
"135 175 OFFCURVE",
"135 139 CURVE SMOOTH",
"135 102 OFFCURVE",
"146 73 OFFCURVE",
"186 73 CURVE SMOOTH"
);
}
);
width = 467;
}
);
leftKerningGroup = periodcentered;
note = divide;
rightKerningGroup = periodcentered;
unicode = 00F7;
},
{
glyphname = equal;
lastChange = "2018-07-28 17:47:46 +0000";
layers = (
{
hints = (
{
horizontal = 1;
place = "{161, 90}";
type = Stem;
},
{
horizontal = 1;
place = "{322, 90}";
type = Stem;
},
{
place = "{7, 463}";
type = Stem;
}
);
layerId = "79248770-D821-459F-BACB-A514C4DCB9B2";
paths = (
{
closed = 1;
nodes = (
"450 322 OFFCURVE",
"470 353 OFFCURVE",
"470 370 CURVE SMOOTH",
"470 394 OFFCURVE",
"447 412 OFFCURVE",
"431 412 CURVE SMOOTH",
"397 412 OFFCURVE",
"115 420 OFFCURVE",
"94 416 CURVE SMOOTH",
"73 412 OFFCURVE",
"52 394 OFFCURVE",
"52 374 CURVE SMOOTH",
"52 343 OFFCURVE",
"65 327 OFFCURVE",
"94 323 CURVE SMOOTH",
"123 319 OFFCURVE",
"392 322 OFFCURVE",
"422 322 CURVE SMOOTH"
);
},
{
closed = 1;
nodes = (
"405 161 OFFCURVE",
"425 192 OFFCURVE",
"425 209 CURVE SMOOTH",
"425 233 OFFCURVE",
"402 251 OFFCURVE",
"386 251 CURVE SMOOTH",
"352 251 OFFCURVE",
"70 259 OFFCURVE",
"49 255 CURVE SMOOTH",
"28 251 OFFCURVE",
"7 233 OFFCURVE",
"7 213 CURVE SMOOTH",
"7 182 OFFCURVE",
"20 166 OFFCURVE",
"49 162 CURVE SMOOTH",
"78 158 OFFCURVE",
"347 161 OFFCURVE",
"377 161 CURVE SMOOTH"
);
}
);
width = 467;
}
);
leftKerningGroup = periodcentered;
note = equal;
rightKerningGroup = periodcentered;
unicode = 003D;
},
{
glyphname = greater;
lastChange = "2018-07-28 17:47:46 +0000";
layers = (
{
hints = (
{
horizontal = 1;
place = "{107.75, 358.72}";
type = Stem;
},
{
place = "{12.01, 391.86}";
type = Stem;
}
);
layerId = "79248770-D821-459F-BACB-A514C4DCB9B2";
paths = (
{
closed = 1;
nodes = (
"297 370 OFFCURVE",
"218 415 OFFCURVE",
"137 458 CURVE SMOOTH",
"107 474 OFFCURVE",
"74 467 OFFCURVE",
"61 440 CURVE SMOOTH",
"48 413 OFFCURVE",
"72 395 OFFCURVE",
"100 377 CURVE SMOOTH",
"161 337 OFFCURVE",
"222 315 OFFCURVE",
"283 291 CURVE",
"215 262 OFFCURVE",
"87 232 OFFCURVE",
"40 196 CURVE SMOOTH",
"15 177 OFFCURVE",
"4 153 OFFCURVE",
"18 125 CURVE SMOOTH",
"32 98 OFFCURVE",
"65 108 OFFCURVE",
"98 119 CURVE SMOOTH",
"157 139 OFFCURVE",
"326 198 OFFCURVE",
"385 247 CURVE SMOOTH",
"413 270 OFFCURVE",
"410 309 OFFCURVE",
"377 327 CURVE SMOOTH"
);
}
);
width = 440;
}
);
note = greater;
rightKerningGroup = periodcentered;
unicode = 003E;
},
{
glyphname = less;
lastChange = "2018-07-28 17:47:46 +0000";
layers = (
{
hints = (
{
horizontal = 1;
place = "{95.56, 358.69}";
type = Stem;
},
{
place = "{39.12, 391.85}";
type = Stem;
}
);
layerId = "79248770-D821-459F-BACB-A514C4DCB9B2";
paths = (
{
closed = 1;
nodes = (
"411 464 OFFCURVE",
"378 454 OFFCURVE",
"345 443 CURVE SMOOTH",
"286 423 OFFCURVE",
"117 364 OFFCURVE",
"58 315 CURVE SMOOTH",
"30 292 OFFCURVE",
"33 253 OFFCURVE",
"66 235 CURVE SMOOTH",
"146 192 OFFCURVE",
"225 147 OFFCURVE",
"306 104 CURVE SMOOTH",
"336 88 OFFCURVE",
"369 95 OFFCURVE",
"382 122 CURVE SMOOTH",
"395 149 OFFCURVE",
"371 167 OFFCURVE",
"343 185 CURVE SMOOTH",
"282 225 OFFCURVE",
"221 247 OFFCURVE",
"160 271 CURVE",
"228 300 OFFCURVE",
"356 330 OFFCURVE",
"403 366 CURVE SMOOTH",
"428 385 OFFCURVE",
"439 409 OFFCURVE",
"425 437 CURVE SMOOTH"
);
}
);
width = 439;
}
);
leftKerningGroup = periodcentered;
note = less;
unicode = 003C;
},
{
glyphname = asciitilde;
lastChange = "2019-01-31 16:49:04 +0000";
layers = (
{
hints = (
{
horizontal = 1;
place = "{198, 79}";
type = Stem;
},
{
place = "{23, 93}";
type = Stem;
},
{
place = "{365, 82}";
type = Stem;
}
);
layerId = "79248770-D821-459F-BACB-A514C4DCB9B2";
paths = (
{
closed = 1;
nodes = (
"96 190 OFFCURVE",
"115 208 OFFCURVE",
"116 246 CURVE SMOOTH",
"117 274 OFFCURVE",
"139 295 OFFCURVE",
"158 290 CURVE SMOOTH",
"205 278 OFFCURVE",
"215 203 OFFCURVE",
"310 198 CURVE SMOOTH",
"380 194 OFFCURVE",
"441 232 OFFCURVE",
"447 310 CURVE SMOOTH",
"449 335 OFFCURVE",
"433 367 OFFCURVE",
"408 368 CURVE SMOOTH",
"377 369 OFFCURVE",
"366 348 OFFCURVE",
"365 316 CURVE SMOOTH",
"364 291 OFFCURVE",
"338 275 OFFCURVE",
"322 277 CURVE SMOOTH",
"297 280 OFFCURVE",
"281 303 OFFCURVE",
"251 333 CURVE SMOOTH",
"231 353 OFFCURVE",
"204 382 OFFCURVE",
"164 385 CURVE SMOOTH",
"127 388 OFFCURVE",
"96 377 OFFCURVE",
"70 359 CURVE SMOOTH",
"39 337 OFFCURVE",
"25 297 OFFCURVE",
"23 254 CURVE SMOOTH",
"21 217 OFFCURVE",
"35 192 OFFCURVE",
"71 191 CURVE SMOOTH"
);
}
);
width = 470;
}
);
leftKerningGroup = periodcentered;
note = asciitilde;
rightKerningGroup = periodcentered;
unicode = 007E;
},
{
glyphname = asciicircum;
lastChange = "2019-01-31 16:49:08 +0000";
layers = (
{
hints = (
{
horizontal = 1;
place = "{395, 282}";
type = Stem;
},
{
place = "{46.12, 318.88}";
type = Stem;
}
);
layerId = "79248770-D821-459F-BACB-A514C4DCB9B2";
paths = (
{
closed = 1;
nodes = (
"356 473 OFFCURVE",
"318 616 OFFCURVE",
"310 638 CURVE SMOOTH",
"306 650 OFFCURVE",
"285 675 OFFCURVE",
"265 677 CURVE SMOOTH",
"230 681 OFFCURVE",
"205 650 OFFCURVE",
"180 627 CURVE SMOOTH",
"159 608 OFFCURVE",
"77 503 OFFCURVE",
"52 465 CURVE SMOOTH",
"38 445 OFFCURVE",
"50 415 OFFCURVE",
"72 411 CURVE SMOOTH",
"94 407 OFFCURVE",
"131 430 OFFCURVE",
"152 457 CURVE SMOOTH",
"246 577 LINE",
"260 517 OFFCURVE",
"276 448 OFFCURVE",
"281 431 CURVE SMOOTH",
"287 410 OFFCURVE",
"307 393 OFFCURVE",
"322 395 CURVE SMOOTH",
"351 398 OFFCURVE",
"372 433 OFFCURVE",
"363 455 CURVE SMOOTH"
);
}
);
width = 330;
}
);
note = asciicircum;
unicode = 005E;
},
{
glyphname = percent;
lastChange = "2019-01-31 16:49:15 +0000";
layers = (
{
hints = (
{
horizontal = 1;
place = "{-13, 77}";
type = Stem;
},
{
horizontal = 1;
place = "{296, 81}";
type = Stem;
},
{
horizontal = 1;
place = "{503, 79}";
type = Stem;
},
{
place = "{64, 82}";
type = Stem;
},
{
place = "{238, 76}";
type = Stem;
},
{
place = "{484, 73}";
type = Stem;
},
{
horizontal = 1;
place = "{-4.75, 21}";
target = up;
type = BottomGhost;
},
{
horizontal = 1;
place = "{198, 75}";
type = Stem;
},
{
place = "{306, 75}";
type = Stem;
}
);
layerId = "79248770-D821-459F-BACB-A514C4DCB9B2";
paths = (
{
closed = 1;
nodes = (
"253 296 OFFCURVE",
"310 382 OFFCURVE",
"314 459 CURVE SMOOTH",
"318 533 OFFCURVE",
"289 582 OFFCURVE",
"215 582 CURVE SMOOTH",
"140 582 OFFCURVE",
"67 501 OFFCURVE",
"64 421 CURVE SMOOTH",
"61 352 OFFCURVE",
"91 296 OFFCURVE",
"164 296 CURVE SMOOTH"
);
},
{
closed = 1;
nodes = (
"64 -7 OFFCURVE",
"100 -8 OFFCURVE",
"110 4 CURVE SMOOTH",
"187 96 OFFCURVE",
"493 405 OFFCURVE",
"565 505 CURVE SMOOTH",
"578 523 OFFCURVE",
"581 553 OFFCURVE",
"566 562 CURVE SMOOTH",
"542 577 OFFCURVE",
"513 566 OFFCURVE",
"495 546 CURVE SMOOTH",
"366 403 OFFCURVE",
"187 211 OFFCURVE",
"54 60 CURVE",
"39 40 OFFCURVE",
"39 13 OFFCURVE",
"51 3 CURVE"
);
},
{
closed = 1;
nodes = (
"148 377 OFFCURVE",
"142 410 OFFCURVE",
"146 439 CURVE SMOOTH",
"150 470 OFFCURVE",
"183 503 OFFCURVE",
"206 503 CURVE SMOOTH",
"235 503 OFFCURVE",
"239 476 OFFCURVE",
"238 457 CURVE SMOOTH",
"236 421 OFFCURVE",
"208 377 OFFCURVE",
"171 377 CURVE SMOOTH"
);
},
{
closed = 1;
nodes = (
"495 -13 OFFCURVE",
"552 73 OFFCURVE",
"557 149 CURVE SMOOTH",
"562 224 OFFCURVE",
"531 273 OFFCURVE",
"457 273 CURVE SMOOTH",
"382 273 OFFCURVE",
"311 192 OFFCURVE",
"306 112 CURVE SMOOTH",
"302 42 OFFCURVE",
"333 -13 OFFCURVE",
"406 -13 CURVE SMOOTH"
);
},
{
closed = 1;
nodes = (
"394 64 OFFCURVE",
"380 85 OFFCURVE",
"381 105 CURVE SMOOTH",
"383 144 OFFCURVE",
"422 198 OFFCURVE",
"450 198 CURVE SMOOTH",
"480 198 OFFCURVE",
"485 169 OFFCURVE",
"484 147 CURVE SMOOTH",
"482 111 OFFCURVE",
"451 64 OFFCURVE",
"412 64 CURVE SMOOTH"
);
}
);
width = 620;
}
);
note = percent;
unicode = 0025;
},
{
glyphname = at;
lastChange = "2018-07-28 17:47:46 +0000";
layers = (
{
layerId = "79248770-D821-459F-BACB-A514C4DCB9B2";
paths = (
{
closed = 1;
nodes = (
"298 635 OFFCURVE",
"104 470 OFFCURVE",
"41 271 CURVE SMOOTH",
"-20 80 OFFCURVE",
"107 -90 OFFCURVE",
"302 -78 CURVE SMOOTH",
"431 -70 OFFCURVE",
"467 -37 OFFCURVE",
"464 -3 CURVE SMOOTH",
"461 23 OFFCURVE",
"418 32 OFFCURVE",
"325 24 CURVE SMOOTH",
"170 11 OFFCURVE",
"107 117 OFFCURVE",
"150 271 CURVE SMOOTH",
"194 426 OFFCURVE",
"322 532 OFFCURVE",
"475 532 CURVE SMOOTH",
"630 532 OFFCURVE",
"701 412 OFFCURVE",
"667 271 CURVE SMOOTH",
"640 155 OFFCURVE",
"564 111 OFFCURVE",
"555 207 CURVE SMOOTH",
"544 314 OFFCURVE",
"657 480 OFFCURVE",
"563 449 CURVE",
"558 447 OFFCURVE",
"553 443 OFFCURVE",
"548 438 CURVE",
"541 464 OFFCURVE",
"527 485 OFFCURVE",
"494 489 CURVE SMOOTH",
"432 497 OFFCURVE",
"326 471 OFFCURVE",
"262 342 CURVE SMOOTH",
"202 223 OFFCURVE",
"225 128 OFFCURVE",
"296 93 CURVE SMOOTH",
"350 66 OFFCURVE",
"430 79 OFFCURVE",
"476 121 CURVE",
"490 97 OFFCURVE",
"509 76 OFFCURVE",
"532 67 CURVE SMOOTH",
"606 39 OFFCURVE",
"714 110 OFFCURVE",
"753 271 CURVE SMOOTH",
"802 465 OFFCURVE",
"685 635 OFFCURVE",
"491 635 CURVE SMOOTH"
);
},
{
closed = 1;
nodes = (
"327 197 OFFCURVE",
"331 242 OFFCURVE",
"354 296 CURVE SMOOTH",
"389 377 OFFCURVE",
"438 397 OFFCURVE",
"468 392 CURVE",
"486 388 OFFCURVE",
"495 371 OFFCURVE",
"488 330 CURVE",
"486 312 OFFCURVE",
"466 264 OFFCURVE",
"459 223 CURVE",
"443 164 OFFCURVE",
"379 167 OFFCURVE",
"360 178 CURVE SMOOTH"
);
}
);
width = 809;
}
);
note = at;
unicode = 0040;
},
{
glyphname = ampersand;
lastChange = "2018-07-28 17:47:46 +0000";
layers = (
{
hints = (
{
horizontal = 1;
place = "{-30.41, 101.91}";
type = Stem;
},
{
horizontal = 1;
place = "{548, 91.78}";
type = Stem;
},
{
place = "{-31.72, 108.72}";
type = Stem;
},
{
place = "{118.37, 114.75}";
type = Stem;
},
{
place = "{350.2, 89.43}";
type = Stem;
}
);
layerId = "79248770-D821-459F-BACB-A514C4DCB9B2";
paths = (
{
closed = 1;
nodes = (
"397 149 LINE",
"412 169 OFFCURVE",
"427 191 OFFCURVE",
"442 215 CURVE SMOOTH",
"470 260 OFFCURVE",
"517 308 OFFCURVE",
"484 348 CURVE SMOOTH",
"460 377 OFFCURVE",
"419 346 OFFCURVE",
"407 321 CURVE",
"389 289 OFFCURVE",
"371 259 OFFCURVE",
"352 234 CURVE",
"297 337 LINE",
"388 392 OFFCURVE",
"429 414 OFFCURVE",
"437 464 CURVE SMOOTH",
"453 558 OFFCURVE",
"395 619 OFFCURVE",
"320 636 CURVE SMOOTH",
"233 654 OFFCURVE",
"146 606 OFFCURVE",
"131 550 CURVE SMOOTH",
"122 517 OFFCURVE",
"103 494 OFFCURVE",
"141 432 CURVE",
"174 367 LINE",
"150 351 OFFCURVE",
"123 332 OFFCURVE",
"92 308 CURVE SMOOTH",
"-66 187 OFFCURVE",
"-47 52 OFFCURVE",
"8 6 CURVE SMOOTH",
"83 -56 OFFCURVE",
"205 -41 OFFCURVE",
"323 67 CURVE",
"362 -12 LINE SMOOTH",
"376 -41 OFFCURVE",
"405 -47 OFFCURVE",
"434 -37 CURVE SMOOTH",
"463 -27 OFFCURVE",
"471 7 OFFCURVE",
"457 35 CURVE SMOOTH"
);
},
{
closed = 1;
nodes = (
"324 556 OFFCURVE",
"362 510 OFFCURVE",
"347 479 CURVE",
"334 449 OFFCURVE",
"311 444 OFFCURVE",
"257 416 CURVE",
"222 494 OFFCURVE",
"224 540 OFFCURVE",
"270 548 CURVE SMOOTH"
);
},
{
closed = 1;
nodes = (
"79 166 OFFCURVE",
"119 223 OFFCURVE",
"177 261 CURVE SMOOTH",
"190 270 OFFCURVE",
"202 278 OFFCURVE",
"214 285 CURVE",
"281 151 LINE",
"172 48 OFFCURVE",
"71 48 OFFCURVE",
"77 133 CURVE SMOOTH"
);
}
);
width = 500;
}
);
note = ampersand;
unicode = 0026;
},
{
glyphname = copyright;
lastChange = "2018-07-28 17:47:46 +0000";
layers = (
{
hints = (
{
horizontal = 1;
place = "{-45, 84}";
type = Stem;
},
{
horizontal = 1;
place = "{98.87, 74.92}";
type = Stem;
},
{
horizontal = 1;
place = "{313.85, 155.15}";
type = Stem;
},
{
horizontal = 1;
place = "{529, 73}";
type = Stem;
},
{
place = "{21.7, 76.91}";
type = Stem;
},
{
place = "{203, 87.08}";
type = Stem;
},
{
place = "{421.01, 78.99}";
type = Stem;
},
{
place = "{588.66, 90.57}";
type = Stem;
}
);
layerId = "79248770-D821-459F-BACB-A514C4DCB9B2";
paths = (
{
closed = 1;
nodes = (
"238 602 OFFCURVE",
"76 534 OFFCURVE",
"27 285 CURVE SMOOTH",
"-7 111 OFFCURVE",
"123 -45 OFFCURVE",
"299 -45 CURVE SMOOTH",
"474 -45 OFFCURVE",
"635 105 OFFCURVE",
"673 285 CURVE SMOOTH",
"710 459 OFFCURVE",
"579 602 OFFCURVE",
"403 602 CURVE SMOOTH"
);
},
{
closed = 1;
nodes = (
"559 145 OFFCURVE",
"443 39 OFFCURVE",
"304 39 CURVE SMOOTH",
"164 39 OFFCURVE",
"73 158 OFFCURVE",
"105 285 CURVE SMOOTH",
"151 470 OFFCURVE",
"263 529 OFFCURVE",
"392 529 CURVE SMOOTH",
"532 529 OFFCURVE",
"609 425 OFFCURVE",
"584 285 CURVE SMOOTH"
);
},
{
closed = 1;
nodes = (
"352 74 OFFCURVE",
"425 136 OFFCURVE",
"445 190 CURVE SMOOTH",
"451 206 OFFCURVE",
"443 230 OFFCURVE",
"425 237 CURVE SMOOTH",
"409 243 OFFCURVE",
"381 231 OFFCURVE",
"375 213 CURVE SMOOTH",
"367 190 OFFCURVE",
"335 166 OFFCURVE",
"317 176 CURVE SMOOTH",
"284 194 OFFCURVE",
"285 244 OFFCURVE",
"300 293 CURVE SMOOTH",
"326 377 OFFCURVE",
"377 402 OFFCURVE",
"405 396 CURVE SMOOTH",
"420 393 OFFCURVE",
"430 377 OFFCURVE",
"425 366 CURVE SMOOTH",
"416 346 OFFCURVE",
"422 323 OFFCURVE",
"440 316 CURVE SMOOTH",
"452 311 OFFCURVE",
"476 313 OFFCURVE",
"491 340 CURVE SMOOTH",
"499 354 OFFCURVE",
"504 368 OFFCURVE",
"500 393 CURVE SMOOTH",
"494 429 OFFCURVE",
"461 464 OFFCURVE",
"419 469 CURVE SMOOTH",
"361 476 OFFCURVE",
"268 452 OFFCURVE",
"222 335 CURVE SMOOTH",
"180 227 OFFCURVE",
"209 141 OFFCURVE",
"277 109 CURVE SMOOTH"
);
}
);
width = 692;
}
);
note = copyright;
unicode = 00A9;
},
{
glyphname = degree;
lastChange = "2018-07-28 17:47:46 +0000";
layers = (
{
hints = (
{
horizontal = 1;
place = "{406, 80}";
type = Stem;
},
{
horizontal = 1;
place = "{618, 87}";
type = Stem;
},
{
place = "{331, 85.86}";
type = Stem;
}
);
layerId = "79248770-D821-459F-BACB-A514C4DCB9B2";
paths = (
{
closed = 1;
nodes = (
"336 406 OFFCURVE",
"398 461 OFFCURVE",
"414 550 CURVE SMOOTH",
"430 639 OFFCURVE",
"378 705 OFFCURVE",
"289 705 CURVE SMOOTH",
"200 705 OFFCURVE",
"126 659 OFFCURVE",
"110 570 CURVE SMOOTH",
"94 481 OFFCURVE",
"158 406 OFFCURVE",
"247 406 CURVE SMOOTH"
);
},
{
closed = 1;
nodes = (
"214 486 OFFCURVE",
"191 513 OFFCURVE",
"199 552 CURVE SMOOTH",
"207 591 OFFCURVE",
"239 618 OFFCURVE",
"277 618 CURVE SMOOTH",
"315 618 OFFCURVE",
"338 591 OFFCURVE",
"331 552 CURVE SMOOTH",
"324 513 OFFCURVE",
"292 486 OFFCURVE",
"254 486 CURVE SMOOTH"
);
}
);
width = 360;
}
);
note = degree;
unicode = 00B0;
},
{
glyphname = bar;
lastChange = "2018-07-28 17:47:46 +0000";
layers = (
{
hints = (
{
horizontal = 1;
place = "{-120.46, 843.19}";
type = Stem;
},
{
place = "{-72.09, 341.3}";
type = Stem;
}
);
layerId = "79248770-D821-459F-BACB-A514C4DCB9B2";
paths = (
{
closed = 1;
nodes = (
"-31 -125 OFFCURVE",
"-12 -117 OFFCURVE",
"-4 -96 CURVE SMOOTH",
"267 655 LINE SMOOTH",
"276 681 OFFCURVE",
"260 710 OFFCURVE",
"229 720 CURVE SMOOTH",
"205 728 OFFCURVE",
"183 718 OFFCURVE",
"176 696 CURVE SMOOTH",
"-70 -71 LINE SMOOTH",
"-76 -91 OFFCURVE",
"-69 -111 OFFCURVE",
"-50 -118 CURVE SMOOTH"
);
}
);
width = 187;
}
);
note = bar;
unicode = 007C;
},
{
glyphname = "shindot-hb";
lastChange = "2018-07-28 17:48:11 +0000";
layers = (
{
hints = (
{
horizontal = 1;
place = "{525, 85}";
type = Stem;
},
{
place = "{337, 87}";
type = Stem;
}
);
layerId = "79248770-D821-459F-BACB-A514C4DCB9B2";
paths = (
{
closed = 1;
nodes = (
"394 525 OFFCURVE",
"424 543 OFFCURVE",
"424 567 CURVE SMOOTH",
"424 591 OFFCURVE",
"410 610 OFFCURVE",
"381 610 CURVE SMOOTH",
"357 610 OFFCURVE",
"337 591 OFFCURVE",
"337 567 CURVE SMOOTH",
"337 543 OFFCURVE",
"344 525 OFFCURVE",
"371 525 CURVE SMOOTH"
);
}
);
width = 0;
}
);
note = uni05C1;
unicode = 05C1;
},
{
glyphname = "sheva-hb";
lastChange = "2018-07-28 17:48:11 +0000";
layers = (
{
hints = (
{
horizontal = 1;
place = "{-197, 75}";
type = Stem;
},
{
horizontal = 1;
place = "{-84, 75}";
type = Stem;
},
{
place = "{222, 74}";
type = Stem;
},
{
place = "{198, 74}";
type = Stem;
}
);
layerId = "79248770-D821-459F-BACB-A514C4DCB9B2";
paths = (
{
closed = 1;
nodes = (
"271 -84 OFFCURVE",
"296 -67 OFFCURVE",
"296 -46 CURVE SMOOTH",
"296 -26 OFFCURVE",
"284 -9 OFFCURVE",
"259 -9 CURVE SMOOTH",
"238 -9 OFFCURVE",
"222 -26 OFFCURVE",
"222 -46 CURVE SMOOTH",
"222 -67 OFFCURVE",
"228 -84 OFFCURVE",
"251 -84 CURVE SMOOTH"
);
},
{
closed = 1;
nodes = (
"247 -197 OFFCURVE",
"272 -180 OFFCURVE",
"272 -159 CURVE SMOOTH",
"272 -139 OFFCURVE",
"260 -122 OFFCURVE",
"235 -122 CURVE SMOOTH",
"214 -122 OFFCURVE",
"198 -139 OFFCURVE",
"198 -159 CURVE SMOOTH",
"198 -180 OFFCURVE",
"204 -197 OFFCURVE",
"227 -197 CURVE SMOOTH"
);
}
);
width = 0;
}
);
note = uni05B0;
unicode = 05B0;
},
{
glyphname = "hatafsegol-hb";
lastChange = "2018-07-28 17:48:11 +0000";
layers = (
{
hints = (
{
horizontal = 1;
place = "{-195, 75}";
type = Stem;
},
{
horizontal = 1;
place = "{-80, 75}";
type = Stem;
},
{
place = "{107, 74}";
type = Stem;
},
{
place = "{218, 74}";
type = Stem;
},
{
place = "{323, 74}";
type = Stem;
},
{
horizontal = 1;
place = "{-87, 75}";
type = Stem;
},
{
horizontal = 1;
place = "{-91, 75}";
type = Stem;
},
{
horizontal = 1;
place = "{-180, 75}";
type = Stem;
},
{
place = "{140, 74}";
type = Stem;
},
{
place = "{301, 74}";
type = Stem;
}
);
layerId = "79248770-D821-459F-BACB-A514C4DCB9B2";
paths = (
{
closed = 1;
nodes = (
"156 -80 OFFCURVE",
"181 -63 OFFCURVE",
"181 -42 CURVE SMOOTH",
"181 -22 OFFCURVE",
"169 -5 OFFCURVE",
"144 -5 CURVE SMOOTH",
"123 -5 OFFCURVE",
"107 -22 OFFCURVE",
"107 -42 CURVE SMOOTH",
"107 -63 OFFCURVE",
"113 -80 OFFCURVE",
"136 -80 CURVE SMOOTH"
);
},
{
closed = 1;
nodes = (
"267 -87 OFFCURVE",
"292 -70 OFFCURVE",
"292 -49 CURVE SMOOTH",
"292 -29 OFFCURVE",
"280 -12 OFFCURVE",
"255 -12 CURVE SMOOTH",
"234 -12 OFFCURVE",
"218 -29 OFFCURVE",
"218 -49 CURVE SMOOTH",
"218 -70 OFFCURVE",
"224 -87 OFFCURVE",
"247 -87 CURVE SMOOTH"
);
},
{
closed = 1;
nodes = (
"372 -91 OFFCURVE",
"397 -74 OFFCURVE",
"397 -53 CURVE SMOOTH",
"397 -33 OFFCURVE",
"385 -16 OFFCURVE",
"360 -16 CURVE SMOOTH",
"339 -16 OFFCURVE",
"323 -33 OFFCURVE",
"323 -53 CURVE SMOOTH",
"323 -74 OFFCURVE",
"329 -91 OFFCURVE",
"352 -91 CURVE SMOOTH"
);
},
{
closed = 1;
nodes = (
"189 -180 OFFCURVE",
"214 -163 OFFCURVE",
"214 -142 CURVE SMOOTH",
"214 -122 OFFCURVE",
"202 -105 OFFCURVE",
"177 -105 CURVE SMOOTH",
"156 -105 OFFCURVE",
"140 -122 OFFCURVE",
"140 -142 CURVE SMOOTH",
"140 -163 OFFCURVE",
"146 -180 OFFCURVE",
"169 -180 CURVE SMOOTH"
);
},
{
closed = 1;
nodes = (
"350 -195 OFFCURVE",
"375 -178 OFFCURVE",
"375 -157 CURVE SMOOTH",
"375 -137 OFFCURVE",
"363 -120 OFFCURVE",
"338 -120 CURVE SMOOTH",
"317 -120 OFFCURVE",
"301 -137 OFFCURVE",
"301 -157 CURVE SMOOTH",
"301 -178 OFFCURVE",
"307 -195 OFFCURVE",
"330 -195 CURVE SMOOTH"
);
}
);
width = 0;
}
);
note = uni05B1;
unicode = 05B1;
},
{
glyphname = "hatafpatah-hb";
lastChange = "2018-07-28 17:48:11 +0000";
layers = (
{
hints = (
{
horizontal = 1;
place = "{-88, 75}";
type = Stem;
},
{
place = "{330, 74}";
type = Stem;
},
{
horizontal = 1;
place = "{-192, 75}";
type = Stem;
},
{
horizontal = 1;
place = "{-83, 65}";
type = Stem;
},
{
place = "{301, 74}";
type = Stem;
}
);
layerId = "79248770-D821-459F-BACB-A514C4DCB9B2";
paths = (
{
closed = 1;
nodes = (
"379 -88 OFFCURVE",
"404 -71 OFFCURVE",
"404 -50 CURVE SMOOTH",
"404 -30 OFFCURVE",
"392 -13 OFFCURVE",
"367 -13 CURVE SMOOTH",
"346 -13 OFFCURVE",
"330 -30 OFFCURVE",
"330 -50 CURVE SMOOTH",
"330 -71 OFFCURVE",
"336 -88 OFFCURVE",
"359 -88 CURVE SMOOTH"
);
},
{
closed = 1;
nodes = (
"273 -83 OFFCURVE",
"291 -71 OFFCURVE",
"291 -50 CURVE SMOOTH",
"291 -33 OFFCURVE",
"278 -18 OFFCURVE",
"259 -18 CURVE SMOOTH",
"244 -18 OFFCURVE",
"130 -25 OFFCURVE",
"119 -25 CURVE SMOOTH",
"100 -25 OFFCURVE",
"88 -35 OFFCURVE",
"88 -49 CURVE SMOOTH",
"88 -63 OFFCURVE",
"102 -74 OFFCURVE",
"119 -75 CURVE SMOOTH",
"188 -79 OFFCURVE",
"243 -83 OFFCURVE",
"259 -83 CURVE SMOOTH"
);
},
{
closed = 1;
nodes = (
"350 -192 OFFCURVE",
"375 -175 OFFCURVE",
"375 -154 CURVE SMOOTH",
"375 -134 OFFCURVE",
"363 -117 OFFCURVE",
"338 -117 CURVE SMOOTH",
"317 -117 OFFCURVE",
"301 -134 OFFCURVE",
"301 -154 CURVE SMOOTH",
"301 -175 OFFCURVE",
"307 -192 OFFCURVE",
"330 -192 CURVE SMOOTH"
);
}
);
width = 0;
}
);
note = uni05B2;
unicode = 05B2;
},
{
glyphname = "hatafqamats-hb";
lastChange = "2018-07-28 17:48:11 +0000";
layers = (
{
hints = (
{
horizontal = 1;
place = "{-88, 75}";
type = Stem;
},
{
place = "{156, 66}";
type = Stem;
},
{
place = "{330, 74}";
type = Stem;
},
{
horizontal = 1;
place = "{-192, 75}";
type = Stem;
},
{
horizontal = 1;
place = "{-79, 64}";
type = Stem;
},
{
place = "{308, 74}";
type = Stem;
}
);
layerId = "79248770-D821-459F-BACB-A514C4DCB9B2";
paths = (
{
closed = 1;
nodes = (
"346 -13 OFFCURVE",
"330 -30 OFFCURVE",
"330 -50 CURVE SMOOTH",
"330 -71 OFFCURVE",
"336 -88 OFFCURVE",
"359 -88 CURVE SMOOTH",
"379 -88 OFFCURVE",
"404 -71 OFFCURVE",
"404 -50 CURVE SMOOTH",
"404 -30 OFFCURVE",
"392 -13 OFFCURVE",
"367 -13 CURVE SMOOTH"
);
},
{
closed = 1;
nodes = (
"254 -15 OFFCURVE",
"140 -21 OFFCURVE",
"129 -21 CURVE SMOOTH",
"110 -21 OFFCURVE",
"99 -31 OFFCURVE",
"99 -45 CURVE SMOOTH",
"99 -60 OFFCURVE",
"112 -69 OFFCURVE",
"129 -71 CURVE SMOOTH",
"144 -73 OFFCURVE",
"159 -74 OFFCURVE",
"173 -75 CURVE",
"156 -146 LINE SMOOTH",
"151 -168 OFFCURVE",
"167 -187 OFFCURVE",
"188 -187 CURVE SMOOTH",
"211 -187 OFFCURVE",
"222 -178 OFFCURVE",
"222 -150 CURVE SMOOTH",
"222 -78 LINE",
"245 -79 OFFCURVE",
"261 -79 OFFCURVE",
"269 -79 CURVE SMOOTH",
"283 -79 OFFCURVE",
"301 -68 OFFCURVE",
"301 -47 CURVE SMOOTH",
"301 -29 OFFCURVE",
"288 -15 OFFCURVE",
"269 -15 CURVE SMOOTH"
);
},
{
closed = 1;
nodes = (
"324 -117 OFFCURVE",
"308 -134 OFFCURVE",
"308 -154 CURVE SMOOTH",
"308 -175 OFFCURVE",
"314 -192 OFFCURVE",
"337 -192 CURVE SMOOTH",
"357 -192 OFFCURVE",
"382 -175 OFFCURVE",
"382 -154 CURVE SMOOTH",
"382 -134 OFFCURVE",
"370 -117 OFFCURVE",
"345 -117 CURVE SMOOTH"
);
}
);
width = 0;
}
);
note = uni05B3;
unicode = 05B3;
},
{
glyphname = "hiriq-hb";
lastChange = "2018-07-28 17:48:11 +0000";
layers = (
{
hints = (
{
horizontal = 1;
place = "{-116, 86}";
type = Stem;
},
{
place = "{210, 87}";
type = Stem;
}
);
layerId = "79248770-D821-459F-BACB-A514C4DCB9B2";
paths = (
{
closed = 1;
nodes = (
"267 -116 OFFCURVE",
"297 -97 OFFCURVE",
"297 -73 CURVE SMOOTH",
"297 -49 OFFCURVE",
"283 -30 OFFCURVE",
"254 -30 CURVE SMOOTH",
"230 -30 OFFCURVE",
"210 -49 OFFCURVE",
"210 -73 CURVE SMOOTH",
"210 -97 OFFCURVE",
"217 -116 OFFCURVE",
"244 -116 CURVE SMOOTH"
);
}
);
width = 0;
}
);
note = uni05B4;
unicode = 05B4;
},
{
glyphname = "tsere-hb";
lastChange = "2018-07-28 17:48:11 +0000";
layers = (
{
hints = (
{
horizontal = 1;
place = "{-110, 75}";
type = Stem;
},
{
place = "{175, 74}";
type = Stem;
},
{
place = "{276, 74}";
type = Stem;
}
);
layerId = "79248770-D821-459F-BACB-A514C4DCB9B2";
paths = (
{
closed = 1;
nodes = (
"224 -110 OFFCURVE",
"249 -93 OFFCURVE",
"249 -72 CURVE SMOOTH",
"249 -52 OFFCURVE",
"237 -35 OFFCURVE",
"212 -35 CURVE SMOOTH",
"191 -35 OFFCURVE",
"175 -52 OFFCURVE",
"175 -72 CURVE SMOOTH",
"175 -93 OFFCURVE",
"181 -110 OFFCURVE",
"204 -110 CURVE SMOOTH"
);
},
{
closed = 1;
nodes = (
"325 -110 OFFCURVE",
"350 -93 OFFCURVE",
"350 -72 CURVE SMOOTH",
"350 -52 OFFCURVE",
"338 -35 OFFCURVE",
"313 -35 CURVE SMOOTH",
"292 -35 OFFCURVE",
"276 -52 OFFCURVE",
"276 -72 CURVE SMOOTH",
"276 -93 OFFCURVE",
"282 -110 OFFCURVE",
"305 -110 CURVE SMOOTH"
);
}
);
width = 0;
}
);
note = uni05B5;
unicode = 05B5;
},
{
glyphname = "segol-hb";
lastChange = "2018-07-28 17:48:11 +0000";
layers = (
{
hints = (
{
horizontal = 1;
place = "{-83, 75}";
type = Stem;
},
{
place = "{165, 74}";
type = Stem;
},
{
place = "{276, 74}";
type = Stem;
},
{
horizontal = 1;
place = "{-89, 75}";
type = Stem;
},
{
horizontal = 1;
place = "{-184, 75}";
type = Stem;
},
{
place = "{199, 74}";
type = Stem;
}
);
layerId = "79248770-D821-459F-BACB-A514C4DCB9B2";
paths = (
{
closed = 1;
nodes = (
"214 -83 OFFCURVE",
"239 -66 OFFCURVE",
"239 -45 CURVE SMOOTH",
"239 -25 OFFCURVE",
"227 -8 OFFCURVE",
"202 -8 CURVE SMOOTH",
"181 -8 OFFCURVE",
"165 -25 OFFCURVE",
"165 -45 CURVE SMOOTH",
"165 -66 OFFCURVE",
"171 -83 OFFCURVE",
"194 -83 CURVE SMOOTH"
);
},
{
closed = 1;
nodes = (
"325 -89 OFFCURVE",
"350 -72 OFFCURVE",
"350 -51 CURVE SMOOTH",
"350 -31 OFFCURVE",
"338 -14 OFFCURVE",
"313 -14 CURVE SMOOTH",
"292 -14 OFFCURVE",
"276 -31 OFFCURVE",
"276 -51 CURVE SMOOTH",
"276 -72 OFFCURVE",
"282 -89 OFFCURVE",
"305 -89 CURVE SMOOTH"
);
},
{
closed = 1;
nodes = (
"248 -184 OFFCURVE",
"273 -167 OFFCURVE",
"273 -146 CURVE SMOOTH",
"273 -126 OFFCURVE",
"261 -109 OFFCURVE",
"236 -109 CURVE SMOOTH",
"215 -109 OFFCURVE",
"199 -126 OFFCURVE",
"199 -146 CURVE SMOOTH",
"199 -167 OFFCURVE",
"205 -184 OFFCURVE",
"228 -184 CURVE SMOOTH"
);
}
);
width = 0;
}
);
note = uni05B6;
unicode = 05B6;
},
{
glyphname = "patah-hb";
lastChange = "2018-07-28 17:48:11 +0000";
layers = (
{
hints = (
{
horizontal = 1;
place = "{-124, 68}";
type = Stem;
},
{
place = "{193, 212}";
type = Stem;
}
);
layerId = "79248770-D821-459F-BACB-A514C4DCB9B2";
paths = (
{
closed = 1;
nodes = (
"387 -124 OFFCURVE",
"405 -112 OFFCURVE",
"405 -90 CURVE SMOOTH",
"405 -71 OFFCURVE",
"392 -56 OFFCURVE",
"371 -56 CURVE SMOOTH",
"356 -56 OFFCURVE",
"237 -63 OFFCURVE",
"225 -63 CURVE SMOOTH",
"205 -63 OFFCURVE",
"193 -73 OFFCURVE",
"193 -88 CURVE SMOOTH",
"193 -103 OFFCURVE",
"206 -114 OFFCURVE",
"225 -115 CURVE",
"297 -122 OFFCURVE",
"355 -124 OFFCURVE",
"371 -124 CURVE SMOOTH"
);
}
);
width = 0;
}
);
note = uni05B7;
unicode = 05B7;
},
{
glyphname = "qamats-hb";
lastChange = "2018-07-28 17:48:11 +0000";
layers = (
{
hints = (
{
horizontal = 1;
place = "{-201, 21}";
target = up;
type = BottomGhost;
},
{
horizontal = 1;
place = "{-95, 71}";
type = Stem;
},
{
place = "{249.76, 76.24}";
type = Stem;
}
);
layerId = "79248770-D821-459F-BACB-A514C4DCB9B2";
paths = (
{
closed = 1;
nodes = (
"361 -24 OFFCURVE",
"236 -31 OFFCURVE",
"223 -31 CURVE SMOOTH",
"202 -31 OFFCURVE",
"190 -42 OFFCURVE",
"190 -58 CURVE SMOOTH",
"190 -74 OFFCURVE",
"204 -84 OFFCURVE",
"223 -86 CURVE SMOOTH",
"242 -88 OFFCURVE",
"261 -89 OFFCURVE",
"278 -90 CURVE",
"254 -146 LINE SMOOTH",
"242 -174 OFFCURVE",
"256 -201 OFFCURVE",
"289 -201 CURVE SMOOTH",
"324 -201 OFFCURVE",
"326 -187 OFFCURVE",
"326 -152 CURVE SMOOTH",
"326 -146 OFFCURVE",
"322 -114 OFFCURVE",
"321 -93 CURVE",
"348 -94 OFFCURVE",
"368 -95 OFFCURVE",
"377 -95 CURVE SMOOTH",
"393 -95 OFFCURVE",
"412 -83 OFFCURVE",
"412 -60 CURVE SMOOTH",
"412 -40 OFFCURVE",
"398 -24 OFFCURVE",
"377 -24 CURVE SMOOTH"
);
}
);
width = 0;
}
);
note = uni05B8;
unicode = 05B8;
},
{
glyphname = "holam-hb";
lastChange = "2018-07-28 17:48:11 +0000";
layers = (
{
hints = (
{
horizontal = 1;
place = "{532, 86}";
type = Stem;
},
{
place = "{354, 87}";
type = Stem;
}
);
layerId = "79248770-D821-459F-BACB-A514C4DCB9B2";
paths = (
{
closed = 1;
nodes = (
"411 532 OFFCURVE",
"441 551 OFFCURVE",
"441 575 CURVE SMOOTH",
"441 599 OFFCURVE",
"427 618 OFFCURVE",
"398 618 CURVE SMOOTH",
"374 618 OFFCURVE",
"354 599 OFFCURVE",
"354 575 CURVE SMOOTH",
"354 551 OFFCURVE",
"361 532 OFFCURVE",
"388 532 CURVE SMOOTH"
);
}
);
width = 0;
}
);
note = uni05B9;
unicode = 05B9;
},
{
glyphname = "holamhaser-hb";
lastChange = "2018-07-28 17:48:11 +0000";
layers = (
{
hints = (
{
horizontal = 1;
place = "{525, 85}";
type = Stem;
},
{
place = "{337, 87}";
type = Stem;
}
);
layerId = "79248770-D821-459F-BACB-A514C4DCB9B2";
paths = (
{
closed = 1;
nodes = (
"394 525 OFFCURVE",
"424 543 OFFCURVE",
"424 567 CURVE SMOOTH",
"424 591 OFFCURVE",
"410 610 OFFCURVE",
"381 610 CURVE SMOOTH",
"357 610 OFFCURVE",
"337 591 OFFCURVE",
"337 567 CURVE SMOOTH",
"337 543 OFFCURVE",
"344 525 OFFCURVE",
"371 525 CURVE SMOOTH"
);
}
);
width = 0;
}
);
note = uni05BA;
unicode = 05BA;
},
{
glyphname = "qubuts-hb";
lastChange = "2018-07-28 17:48:11 +0000";
layers = (
{
hints = (
{
horizontal = 1;
place = "{-235, 75}";
type = Stem;
},
{
horizontal = 1;
place = "{-80, 75}";
type = Stem;
},
{
place = "{142, 74}";
type = Stem;
},
{
place = "{262, 74}";
type = Stem;
},
{
horizontal = 1;
place = "{-155, 75}";
type = Stem;
},
{
place = "{202, 74}";
type = Stem;
}
);
layerId = "79248770-D821-459F-BACB-A514C4DCB9B2";
paths = (
{
closed = 1;
nodes = (
"191 -80 OFFCURVE",
"216 -63 OFFCURVE",
"216 -42 CURVE SMOOTH",
"216 -22 OFFCURVE",
"204 -5 OFFCURVE",
"179 -5 CURVE SMOOTH",
"158 -5 OFFCURVE",
"142 -22 OFFCURVE",
"142 -42 CURVE SMOOTH",
"142 -63 OFFCURVE",
"148 -80 OFFCURVE",
"171 -80 CURVE SMOOTH"
);
},
{
closed = 1;
nodes = (
"251 -155 OFFCURVE",
"276 -138 OFFCURVE",
"276 -117 CURVE SMOOTH",
"276 -97 OFFCURVE",
"264 -80 OFFCURVE",
"239 -80 CURVE SMOOTH",
"218 -80 OFFCURVE",
"202 -97 OFFCURVE",
"202 -117 CURVE SMOOTH",
"202 -138 OFFCURVE",
"208 -155 OFFCURVE",
"231 -155 CURVE SMOOTH"
);
},
{
closed = 1;
nodes = (
"311 -235 OFFCURVE",
"336 -218 OFFCURVE",
"336 -197 CURVE SMOOTH",
"336 -177 OFFCURVE",
"324 -160 OFFCURVE",
"299 -160 CURVE SMOOTH",
"278 -160 OFFCURVE",
"262 -177 OFFCURVE",
"262 -197 CURVE SMOOTH",
"262 -218 OFFCURVE",
"268 -235 OFFCURVE",
"291 -235 CURVE SMOOTH"
);
}
);
width = 0;
}
);
note = uni05BB;
unicode = 05BB;
},
{
glyphname = "dagesh-hb";
lastChange = "2018-07-28 17:48:11 +0000";
layers = (
{
hints = (
{
horizontal = 1;
place = "{296, 75}";
type = Stem;
},
{
place = "{222, 74}";
type = Stem;
}
);
layerId = "79248770-D821-459F-BACB-A514C4DCB9B2";
paths = (
{
closed = 1;
nodes = (
"271 296 OFFCURVE",
"296 313 OFFCURVE",
"296 334 CURVE SMOOTH",
"296 354 OFFCURVE",
"284 371 OFFCURVE",
"259 371 CURVE SMOOTH",
"238 371 OFFCURVE",
"222 354 OFFCURVE",
"222 334 CURVE SMOOTH",
"222 313 OFFCURVE",
"228 296 OFFCURVE",
"251 296 CURVE SMOOTH"
);
}
);
width = 0;
}
);
note = uni05BC;
unicode = 05BC;
},
{
glyphname = "rafe-hb";
lastChange = "2018-07-28 17:48:11 +0000";
layers = (
{
hints = (
{
horizontal = 1;
place = "{547, 62}";
type = Stem;
},
{
place = "{234, 210}";
type = Stem;
}
);
layerId = "79248770-D821-459F-BACB-A514C4DCB9B2";
paths = (
{
closed = 1;
nodes = (
"427 547 OFFCURVE",
"444 558 OFFCURVE",
"444 578 CURVE SMOOTH",
"444 594 OFFCURVE",
"432 609 OFFCURVE",
"413 609 CURVE SMOOTH",
"400 609 OFFCURVE",
"273 602 OFFCURVE",
"263 602 CURVE SMOOTH",
"245 602 OFFCURVE",
"234 593 OFFCURVE",
"234 580 CURVE SMOOTH",
"234 566 OFFCURVE",
"246 557 OFFCURVE",
"263 555 CURVE SMOOTH",
"327 547 OFFCURVE",
"399 547 OFFCURVE",
"413 547 CURVE SMOOTH"
);
}
);
width = 0;
}
);
note = uni05BF;
unicode = 05BF;
},
{
glyphname = "sindot-hb";
lastChange = "2018-07-28 17:48:11 +0000";
layers = (
{
hints = (
{
horizontal = 1;
place = "{525, 85}";
type = Stem;
},
{
place = "{337, 87}";
type = Stem;
}
);
layerId = "79248770-D821-459F-BACB-A514C4DCB9B2";
paths = (
{
closed = 1;
nodes = (
"394 525 OFFCURVE",
"424 543 OFFCURVE",
"424 567 CURVE SMOOTH",
"424 591 OFFCURVE",
"410 610 OFFCURVE",
"381 610 CURVE SMOOTH",
"357 610 OFFCURVE",
"337 591 OFFCURVE",
"337 567 CURVE SMOOTH",
"337 543 OFFCURVE",
"344 525 OFFCURVE",
"371 525 CURVE SMOOTH"
);
}
);
width = 0;
}
);
note = uni05C2;
unicode = 05C2;
},
{
glyphname = "qamatsqatan-hb";
lastChange = "2018-07-28 17:48:11 +0000";
layers = (
{
hints = (
{
horizontal = 1;
place = "{-82, 47}";
type = Stem;
},
{
place = "{223.12, 49.88}";
type = Stem;
}
);
layerId = "79248770-D821-459F-BACB-A514C4DCB9B2";
paths = (
{
closed = 1;
nodes = (
"296 -35 OFFCURVE",
"214 -39 OFFCURVE",
"205 -39 CURVE SMOOTH",
"191 -39 OFFCURVE",
"183 -47 OFFCURVE",
"183 -57 CURVE SMOOTH",
"183 -68 OFFCURVE",
"193 -74 OFFCURVE",
"205 -76 CURVE",
"241 -79 LINE",
"226 -115 LINE SMOOTH",
"218 -134 OFFCURVE",
"227 -152 OFFCURVE",
"249 -152 CURVE SMOOTH",
"272 -152 OFFCURVE",
"273 -142 OFFCURVE",
"273 -119 CURVE SMOOTH",
"273 -116 OFFCURVE",
"270 -95 OFFCURVE",
"269 -80 CURVE",
"288 -81 OFFCURVE",
"301 -82 OFFCURVE",
"307 -82 CURVE SMOOTH",
"317 -82 OFFCURVE",
"330 -74 OFFCURVE",
"330 -59 CURVE SMOOTH",
"330 -45 OFFCURVE",
"321 -35 OFFCURVE",
"307 -35 CURVE SMOOTH"
);
}
);
width = 0;
}
);
note = uni05C7;
unicode = 05C7;
},
